<svg width="14" height="14" viewBox="0 0 14 14" fill="none" xmlns="http://www.w3.org/2000/svg">
<path d="M7 1C3.68663 1 1 3.68663 1 7C1 10.3134 3.68663 13 7 13C10.3134 13 13 10.3134 13 7C13 3.68663 10.3134 1 7 1Z" stroke="black" stroke-miterlimit="10"/>
<path d="M6.08696 6.08694H7.13044V9.86955" stroke="black" stroke-linecap="round" stroke-linejoin="round"/>
<path d="M5.69563 10H8.5652" stroke="black" stroke-miterlimit="10" stroke-linecap="round"/>
<path d="M7 3.15216C6.83232 3.15216 6.6684 3.20188 6.52898 3.29505C6.38955 3.38821 6.28088 3.52062 6.21671 3.67554C6.15254 3.83046 6.13575 4.00093 6.16847 4.16539C6.20118 4.32985 6.28193 4.48092 6.4005 4.59949C6.51907 4.71806 6.67014 4.79881 6.8346 4.83152C6.99906 4.86424 7.16953 4.84745 7.32445 4.78328C7.47937 4.71911 7.61178 4.61044 7.70494 4.47101C7.7981 4.33159 7.84783 4.16767 7.84783 3.99999C7.84783 3.77513 7.7585 3.55948 7.59951 3.40048C7.44051 3.24148 7.22486 3.15216 7 3.15216Z" fill="black"/>
</svg>
