<svg width="54" height="54" viewBox="0 0 54 54" fill="none" xmlns="http://www.w3.org/2000/svg">
<circle cx="27" cy="27" r="27" fill="white"/>
<path fill-rule="evenodd" clip-rule="evenodd" d="M20.8884 42.2436C14.5191 39.7609 10 33.5115 10 26.1945V26.1944H44V26.1945C44 33.5115 39.4809 39.7609 33.1117 42.2436C33.9475 43.0256 34.4375 43.9757 34.4375 45.0001H19.5625C19.5625 43.9757 20.0525 43.0256 20.8884 42.2436Z" fill="#FA8700"/>
<path d="M19.8789 13.8484C19.9266 13.2961 19.5207 12.8119 18.9724 12.767C18.424 12.7221 17.9409 13.1334 17.8932 13.6857L19.8789 13.8484ZM18.5932 17.1599L17.6004 17.0786C17.5656 17.481 17.7738 17.8638 18.1286 18.0501L18.5932 17.1599ZM22.3379 19.1259L23.3086 18.8931C23.2431 18.6099 23.0584 18.37 22.8026 18.2357L22.3379 19.1259ZM22.3079 23.4242C22.4326 23.9633 22.9683 24.296 23.5044 24.1674C24.0405 24.0389 24.374 23.4977 24.2493 22.9586L22.3079 23.4242ZM17.8932 13.6857L17.6004 17.0786L19.5861 17.2412L19.8789 13.8484L17.8932 13.6857ZM18.1286 18.0501L21.8732 20.0161L22.8026 18.2357L19.0579 16.2697L18.1286 18.0501ZM21.3672 19.3587L22.3079 23.4242L24.2493 22.9586L23.3086 18.8931L21.3672 19.3587Z" fill="#FFD900"/>
<path d="M28.2281 9.49851C28.4814 9.00734 28.2889 8.40439 27.7981 8.15177C27.3073 7.89916 26.7042 8.09254 26.451 8.5837L28.2281 9.49851ZM25.7823 12.0613L24.8937 11.6039C24.7098 11.9605 24.7566 12.3923 25.0126 12.7007L25.7823 12.0613ZM28.4947 15.329L29.462 15.5811C29.5437 15.2692 29.4701 14.9373 29.2644 14.6895L28.4947 15.329ZM26.3706 19.4949C26.2307 20.0294 26.5503 20.5756 27.0845 20.7148C27.6188 20.854 28.1653 20.5336 28.3052 19.9991L26.3706 19.4949ZM26.451 8.5837L24.8937 11.6039L26.6709 12.5187L28.2281 9.49851L26.451 8.5837ZM25.0126 12.7007L27.725 15.9684L29.2644 14.6895L26.552 11.4219L25.0126 12.7007ZM27.5274 15.0769L26.3706 19.4949L28.3052 19.9991L29.462 15.5811L27.5274 15.0769Z" fill="#FFD900"/>
<path d="M36.5802 14.0015C36.983 13.6259 37.0044 12.992 36.628 12.5858C36.2516 12.1796 35.62 12.1548 35.2172 12.5304L36.5802 14.0015ZM33.423 15.5745L32.7415 14.8389C32.4485 15.1121 32.3478 15.5356 32.4857 15.9142L33.423 15.5745ZM34.882 19.5784L35.7558 20.0673C35.8956 19.814 35.9187 19.5118 35.8192 19.2388L34.882 19.5784ZM31.9963 22.7357C31.7299 23.2186 31.9051 23.829 32.3877 24.0989C32.8703 24.3689 33.4776 24.1963 33.744 23.7133L31.9963 22.7357ZM35.2172 12.5304L32.7415 14.8389L34.1045 16.31L36.5802 14.0015L35.2172 12.5304ZM32.4857 15.9142L33.9447 19.9181L35.8192 19.2388L34.3603 15.2348L32.4857 15.9142ZM34.0081 19.0896L31.9963 22.7357L33.744 23.7133L35.7558 20.0673L34.0081 19.0896Z" fill="#FFD900"/>
</svg>
