<svg width="60" height="60" viewBox="0 0 60 60" fill="none" xmlns="http://www.w3.org/2000/svg">
<g clip-path="url(#clip0_392_813)">
<rect width="60" height="60" rx="30" fill="white"/>
<g clip-path="url(#clip1_392_813)">
<path d="M60 0H0V60H60V0Z" fill="white"/>
<path d="M60 0.0113068H0V60.0113H60V0.0113068Z" fill="url(#paint0_linear_392_813)"/>
<path opacity="0.6" d="M29.6009 -35.0092L-34.883 29.4747L-1.97356 62.3841L62.5103 -2.0998L29.6009 -35.0092Z" fill="url(#paint1_linear_392_813)"/>
<path opacity="0.7" d="M20.0839 -44.5262L-44.4 19.9577L-10.4589 53.8989L54.025 -10.585L20.0839 -44.5262Z" fill="url(#paint2_linear_392_813)"/>
<path opacity="0.9" d="M20.0839 -44.5262L-44.4 19.9577L-18.9442 45.4136L45.5397 -19.0703L20.0839 -44.5262Z" fill="url(#paint3_linear_392_813)"/>
</g>
<path d="M28.2505 40.38H21.046V18.1255H28.4786C30.6592 18.1255 32.5319 18.571 34.0966 19.462C35.6614 20.3458 36.8603 21.6172 37.6934 23.2762C38.5338 24.9279 38.954 26.9092 38.954 29.2201C38.954 31.5383 38.5301 33.5305 37.6826 35.1967C36.8422 36.8629 35.6252 38.1451 34.0315 39.0434C32.4377 39.9345 30.5107 40.38 28.2505 40.38ZM24.4037 37.4461H28.0657C29.7609 37.4461 31.1699 37.1273 32.2928 36.4898C33.4157 35.8451 34.256 34.9142 34.8138 33.6971C35.3716 32.4728 35.6506 30.9805 35.6506 29.2201C35.6506 27.4742 35.3716 25.9928 34.8138 24.7757C34.2632 23.5587 33.441 22.6351 32.3471 22.0048C31.2532 21.3745 29.8949 21.0594 28.2722 21.0594H24.4037V37.4461Z" fill="white"/>
</g>
<defs>
<linearGradient id="paint0_linear_392_813" x1="60" y1="60" x2="0" y2="0.0113068" gradientUnits="userSpaceOnUse">
<stop stop-color="#FFD232"/>
<stop offset="1" stop-color="#FDFF88"/>
</linearGradient>
<linearGradient id="paint1_linear_392_813" x1="62.5105" y1="-2.09972" x2="-19.8023" y2="-27.0931" gradientUnits="userSpaceOnUse">
<stop stop-color="white" stop-opacity="0.6"/>
<stop offset="1" stop-color="white" stop-opacity="0"/>
</linearGradient>
<linearGradient id="paint2_linear_392_813" x1="54.0251" y1="-10.585" x2="-30.5985" y2="-35.0889" gradientUnits="userSpaceOnUse">
<stop stop-color="white" stop-opacity="0.6"/>
<stop offset="1" stop-color="white" stop-opacity="0"/>
</linearGradient>
<linearGradient id="paint3_linear_392_813" x1="45.5398" y1="-19.0703" x2="-18.8509" y2="-45.8081" gradientUnits="userSpaceOnUse">
<stop stop-color="white" stop-opacity="0.6"/>
<stop offset="1" stop-color="white" stop-opacity="0"/>
</linearGradient>
<clipPath id="clip0_392_813">
<rect width="60" height="60" rx="30" fill="white"/>
</clipPath>
<clipPath id="clip1_392_813">
<rect width="60" height="60" fill="white"/>
</clipPath>
</defs>
</svg>
