<svg width="60" height="60" viewBox="0 0 60 60" fill="none" xmlns="http://www.w3.org/2000/svg">
<g clip-path="url(#clip0_392_824)">
<rect width="60" height="60" rx="30" fill="white"/>
<g clip-path="url(#clip1_392_824)">
<path d="M60 0H0V60H60V0Z" fill="white"/>
<path d="M60 0.0113068H0V60.0113H60V0.0113068Z" fill="url(#paint0_linear_392_824)"/>
<path opacity="0.6" d="M29.6009 -35.0092L-34.883 29.4747L-1.97359 62.3841L62.5103 -2.0998L29.6009 -35.0092Z" fill="url(#paint1_linear_392_824)"/>
<path opacity="0.7" d="M20.0839 -44.5262L-44.4 19.9577L-10.4589 53.8989L54.025 -10.585L20.0839 -44.5262Z" fill="url(#paint2_linear_392_824)"/>
<path opacity="0.9" d="M20.0839 -44.5262L-44.4 19.9577L-18.9442 45.4136L45.5397 -19.0703L20.0839 -44.5262Z" fill="url(#paint3_linear_392_824)"/>
</g>
<path d="M35.4713 18.1255H38.8399V32.7626C38.8399 34.3201 38.4741 35.7002 37.7424 36.9028C37.0107 38.098 35.982 39.0398 34.6563 39.728C33.3306 40.409 31.7767 40.7495 29.9946 40.7495C28.2197 40.7495 26.6694 40.409 25.3437 39.728C24.018 39.0398 22.9893 38.098 22.2576 36.9028C21.526 35.7002 21.1601 34.3201 21.1601 32.7626V18.1255H24.5179V32.491C24.5179 33.4979 24.7388 34.3926 25.1807 35.1749C25.6299 35.9573 26.2638 36.5731 27.0823 37.0223C27.901 37.4642 28.8717 37.6851 29.9946 37.6851C31.1247 37.6851 32.0991 37.4642 32.9176 37.0223C33.7435 36.5731 34.3738 35.9573 34.8084 35.1749C35.2503 34.3926 35.4713 33.4979 35.4713 32.491V18.1255Z" fill="white"/>
</g>
<defs>
<linearGradient id="paint0_linear_392_824" x1="60" y1="60" x2="0" y2="0.0113068" gradientUnits="userSpaceOnUse">
<stop stop-color="#FFD232"/>
<stop offset="1" stop-color="#FDFF88"/>
</linearGradient>
<linearGradient id="paint1_linear_392_824" x1="62.5105" y1="-2.09972" x2="-19.8023" y2="-27.0931" gradientUnits="userSpaceOnUse">
<stop stop-color="white" stop-opacity="0.6"/>
<stop offset="1" stop-color="white" stop-opacity="0"/>
</linearGradient>
<linearGradient id="paint2_linear_392_824" x1="54.0251" y1="-10.585" x2="-30.5985" y2="-35.0889" gradientUnits="userSpaceOnUse">
<stop stop-color="white" stop-opacity="0.6"/>
<stop offset="1" stop-color="white" stop-opacity="0"/>
</linearGradient>
<linearGradient id="paint3_linear_392_824" x1="45.5397" y1="-19.0703" x2="-18.8509" y2="-45.8081" gradientUnits="userSpaceOnUse">
<stop stop-color="white" stop-opacity="0.6"/>
<stop offset="1" stop-color="white" stop-opacity="0"/>
</linearGradient>
<clipPath id="clip0_392_824">
<rect width="60" height="60" rx="30" fill="white"/>
</clipPath>
<clipPath id="clip1_392_824">
<rect width="60" height="60" fill="white"/>
</clipPath>
</defs>
</svg>
