<svg width="20" height="20" viewBox="0 0 20 20" fill="none" xmlns="http://www.w3.org/2000/svg">
<path d="M6.55627 2C4.04409 2 2 4.04529 2 6.55811V13.0681C2 15.5806 4.04529 17.625 6.55811 17.625H13.0681C15.5806 17.625 17.625 15.5797 17.625 13.0669V6.55627C17.625 4.04409 15.5797 2 13.0669 2H6.55627ZM14.5 4.5C14.845 4.5 15.125 4.78 15.125 5.125C15.125 5.47 14.845 5.75 14.5 5.75C14.155 5.75 13.875 5.47 13.875 5.125C13.875 4.78 14.155 4.5 14.5 4.5ZM9.8125 5.75C12.0531 5.75 13.875 7.57188 13.875 9.8125C13.875 12.0531 12.0528 13.875 9.8125 13.875C7.57188 13.875 5.75 12.0528 5.75 9.8125C5.75 7.57219 7.57188 5.75 9.8125 5.75ZM9.8125 7C8.25906 7 7 8.25906 7 9.8125C7 11.3659 8.25906 12.625 9.8125 12.625C11.3659 12.625 12.625 11.3659 12.625 9.8125C12.625 8.25906 11.3659 7 9.8125 7Z" fill="white"/>
</svg>
