<svg width="20" height="20" viewBox="0 0 20 20" fill="none" xmlns="http://www.w3.org/2000/svg">
<path d="M10 19C10 19 17 12.2479 17 7.125C17 5.23533 16.2625 3.42306 14.9497 2.08686C13.637 0.750667 11.8565 0 10 0C8.14348 0 6.36301 0.750667 5.05025 2.08686C3.7375 3.42306 3 5.23533 3 7.125C3 12.2479 10 19 10 19ZM10 10.6875C9.07174 10.6875 8.1815 10.3122 7.52513 9.64407C6.86875 8.97597 6.5 8.06983 6.5 7.125C6.5 6.18017 6.86875 5.27403 7.52513 4.60593C8.1815 3.93783 9.07174 3.5625 10 3.5625C10.9283 3.5625 11.8185 3.93783 12.4749 4.60593C13.1313 5.27403 13.5 6.18017 13.5 7.125C13.5 8.06983 13.1313 8.97597 12.4749 9.64407C11.8185 10.3122 10.9283 10.6875 10 10.6875Z" fill="white"/>
</svg>
