<svg width="20" height="20" viewBox="0 0 20 20" fill="none" xmlns="http://www.w3.org/2000/svg">
<path d="M10 1C5.02942 1 1 5.02942 1 10C1 14.9706 5.02942 19 10 19C14.9706 19 19 14.9706 19 10C19 5.02942 14.9706 1 10 1ZM14.1716 7.12073C14.0362 8.54385 13.4502 11.9973 13.1519 13.5913C13.0257 14.2657 12.7773 14.4919 12.5368 14.514C12.0143 14.5621 11.6173 14.1686 11.1111 13.8368C10.319 13.3175 9.8715 12.9943 9.10258 12.4876C8.21401 11.902 8.79004 11.5803 9.29644 11.0541C9.42897 10.9165 11.7318 8.82191 11.7763 8.63189C11.7819 8.60812 11.7872 8.51939 11.7345 8.47279C11.6817 8.4262 11.6042 8.44198 11.5481 8.45465C11.4687 8.4727 10.2033 9.30909 7.75185 10.9638C7.3927 11.2105 7.06737 11.3306 6.77586 11.3243C6.45451 11.3174 5.83637 11.1427 5.37683 10.9933C4.81321 10.8101 4.36524 10.7132 4.40425 10.4021C4.42457 10.24 4.64776 10.0742 5.07381 9.90488C7.6975 8.76179 9.44703 8.00816 10.3224 7.644C12.8218 6.60439 13.3411 6.42381 13.6797 6.41778C13.7541 6.41655 13.9206 6.43498 14.0284 6.52248C14.1001 6.58481 14.1458 6.67179 14.1565 6.76621C14.1748 6.88344 14.1799 7.00236 14.1716 7.12073Z" fill="white"/>
</svg>
