<svg width="20" height="20" viewBox="0 0 20 20" fill="none" xmlns="http://www.w3.org/2000/svg">
<path fill-rule="evenodd" clip-rule="evenodd" d="M10 19C14.9706 19 19 14.9706 19 10C19 5.02944 14.9706 1 10 1C5.02944 1 1 5.02944 1 10C1 14.9706 5.02944 19 10 19ZM13.6077 6.46946C13.6828 6.51864 13.7604 6.56401 13.84 6.60539C14.3582 6.86514 14.8644 6.94423 15.1136 6.91704V8.93969C15.1136 8.93969 14.4022 8.91003 13.8742 8.76916C13.1382 8.5712 12.6664 8.26721 12.6664 8.26721C12.6664 8.26721 12.339 8.04947 12.3144 8.03464V12.2144C12.3144 12.4467 12.2532 13.028 12.0698 13.5126C11.9091 13.9271 11.6793 14.311 11.3904 14.6478C11.3904 14.6478 10.9381 15.2115 10.1436 15.5899C9.48132 15.9055 8.8922 15.9227 8.65822 15.9296C8.6391 15.9302 8.62236 15.9306 8.60814 15.9312C8.60814 15.9312 7.52037 15.9752 6.53929 15.305L6.53437 15.3V15.305C6.20268 15.0723 5.90689 14.7917 5.65654 14.4723C5.34606 14.0742 5.15555 13.6019 5.10638 13.4635V13.4585C5.02821 13.2235 4.86425 12.6548 4.88883 12.1059C4.92791 11.1388 5.25068 10.5429 5.33623 10.3946C5.56103 9.98801 5.85469 9.62394 6.20399 9.31882C6.60262 8.98284 7.06619 8.73357 7.56545 8.58673C8.0647 8.43989 8.58881 8.39867 9.1047 8.46566L9.10225 10.5402C8.93231 10.4845 8.75467 10.4563 8.57594 10.4564C7.63173 10.4564 6.86648 11.2305 6.86648 12.1865C6.86648 13.1424 7.63173 13.9165 8.57594 13.9165C8.86992 13.9169 9.15892 13.8402 9.41444 13.6941C9.65961 13.554 9.8668 13.3555 10.0178 13.1161C10.1687 12.8767 10.2589 12.6036 10.2802 12.3209V12.3165C10.2815 12.3105 10.2815 12.3046 10.2815 12.2989C10.2817 12.2944 10.282 12.2901 10.2823 12.2859C10.2829 12.2772 10.2834 12.269 10.2834 12.2604C10.2879 12.157 10.2879 12.0525 10.2879 11.9467V4.06818H12.3144C12.3112 4.06818 12.2901 4.26343 12.3412 4.56519H12.3388C12.4 4.92875 12.5661 5.448 13.0111 5.95984C13.1889 6.15315 13.3892 6.32425 13.6077 6.46946Z" fill="white"/>
</svg>
