<svg width="20" height="20" viewBox="0 0 20 20" fill="none" xmlns="http://www.w3.org/2000/svg">
<path d="M10 0C4.47739 0 0 4.47739 0 10C0 15.5226 4.47739 20 10 20C15.5226 20 20 15.5226 20 10C20 4.47739 15.5226 0 10 0ZM18.2387 9.56522H15.4983C15.4643 8.13 15.2639 6.77391 14.9309 5.55783C15.4643 5.24739 15.8778 4.88609 16.137 4.49087C17.3626 5.85304 18.137 7.61913 18.2387 9.56522ZM14.7004 16.4783C14.6196 16.6378 14.3378 16.88 13.8648 17.1187C14.0374 16.8087 14.1996 16.4774 14.3478 16.1287C14.5322 16.2617 14.6526 16.3852 14.7004 16.4783ZM5.65217 16.1287C5.8013 16.4778 5.96217 16.8087 6.13522 17.1187C5.66261 16.88 5.38 16.6387 5.3 16.4783C5.34739 16.3852 5.46783 16.2617 5.65217 16.1287ZM5.3 3.52174C5.38 3.3613 5.66261 3.12 6.13522 2.8813C5.96217 3.1913 5.8013 3.52261 5.65217 3.87087C5.46783 3.73826 5.34739 3.61522 5.3 3.52174ZM14.3478 3.8713C14.1987 3.52217 14.0374 3.1913 13.8648 2.8813C14.3378 3.12 14.6196 3.36087 14.7004 3.52174C14.6526 3.61522 14.5322 3.73826 14.3478 3.8713ZM10.8696 2.1313C10.9365 2.13652 11.0052 2.14087 11.0709 2.14739C11.6965 2.61174 12.2935 3.45652 12.7657 4.58174C12.2357 4.73522 11.6013 4.85565 10.8696 4.9113V2.1313ZM8.92913 2.14739C8.99478 2.1413 9.06304 2.13652 9.13043 2.1313V4.9113C8.39783 4.85565 7.76391 4.73522 7.23435 4.58174C7.70696 3.45652 8.30348 2.61217 8.92913 2.14739ZM9.13043 6.65261V9.56522H6.24609C6.27739 8.35435 6.43696 7.23043 6.69 6.23261C7.42261 6.44826 8.24739 6.59391 9.13043 6.65261ZM9.13043 11.3043V13.3474C8.24739 13.4061 7.42261 13.5517 6.69043 13.7674C6.49956 13.013 6.36174 12.1857 6.29174 11.3043H9.13043ZM9.13043 15.0887V17.8687C9.06304 17.8635 8.99478 17.8596 8.92913 17.8526C8.30348 17.3887 7.70652 16.5435 7.23435 15.4178C7.76391 15.2648 8.39783 15.1443 9.13043 15.0887ZM11.0709 17.8526C11.0057 17.8596 10.9365 17.8635 10.8696 17.8687V15.0887C11.6026 15.1443 12.2361 15.2648 12.7657 15.4178C12.2926 16.5435 11.6965 17.3878 11.0709 17.8526ZM10.8696 13.3474V11.3043H13.7083C13.6383 12.1857 13.5 13.013 13.3091 13.7674C12.5774 13.5517 11.7526 13.4061 10.8696 13.3474ZM10.8696 9.56522V6.65261C11.7526 6.59391 12.5774 6.44826 13.3091 6.23261C13.5622 7.23043 13.7217 8.35435 13.753 9.56522H10.8696ZM3.86217 4.49087C4.12174 4.88609 4.53522 5.24739 5.06826 5.55783C4.73565 6.77391 4.53522 8.13 4.5013 9.56522H1.7613C1.86304 7.61913 2.63783 5.85304 3.86217 4.49087ZM1.85261 11.3043H4.54348C4.62348 12.4183 4.80391 13.4743 5.06826 14.4422C4.53478 14.753 4.1213 15.1139 3.86217 15.5091C2.82304 14.353 2.10826 12.907 1.85261 11.3043ZM16.1378 15.5091C15.8778 15.1139 15.4643 14.753 14.9317 14.4422C15.1961 13.4743 15.3761 12.4187 15.4565 11.3043H18.147C17.8913 12.907 17.177 14.353 16.1378 15.5091Z" fill="white"/>
</svg>
