<svg width="20" height="20" viewBox="0 0 20 20" fill="none" xmlns="http://www.w3.org/2000/svg">
<path d="M11.5028 9.84344L9.39719 8.86094C9.21344 8.77562 9.0625 8.87125 9.0625 9.07469V10.9253C9.0625 11.1287 9.21344 11.2244 9.39719 11.1391L11.5019 10.1566C11.6866 10.0703 11.6866 9.92969 11.5028 9.84344ZM10 1C5.02938 1 1 5.02938 1 10C1 14.9706 5.02938 19 10 19C14.9706 19 19 14.9706 19 10C19 5.02938 14.9706 1 10 1ZM10 13.6562C5.39313 13.6562 5.3125 13.2409 5.3125 10C5.3125 6.75906 5.39313 6.34375 10 6.34375C14.6069 6.34375 14.6875 6.75906 14.6875 10C14.6875 13.2409 14.6069 13.6562 10 13.6562Z" fill="white"/>
</svg>
