<svg width="512" height="491" viewBox="0 0 512 491" fill="none" xmlns="http://www.w3.org/2000/svg">
<rect width="512" height="490.213" fill="#404040"/>
<path d="M259.435 321.362C330.124 321.362 387.435 264.051 387.435 193.362C387.435 122.672 330.124 65.3618 259.435 65.3618C188.745 65.3618 131.435 122.672 131.435 193.362C131.435 264.051 188.745 321.362 259.435 321.362Z" fill="#CDC4D6"/>
<path d="M259.435 282.405C283.05 282.405 305.699 273.024 322.398 256.325C339.097 239.626 348.478 216.977 348.478 193.362C348.478 169.746 339.097 147.097 322.398 130.398C305.699 113.699 283.05 104.318 259.435 104.318C235.819 104.318 213.17 113.699 196.471 130.398C179.772 147.097 170.391 169.746 170.391 193.362C170.391 216.977 179.772 239.626 196.471 256.325C213.17 273.024 235.819 282.405 259.435 282.405Z" fill="#E1D8EC"/>
<path d="M151.691 79.9426C149.684 79.9426 147.759 80.74 146.339 82.1594C144.92 83.5788 144.123 85.5039 144.123 87.5113V117.452C144.123 119.678 142.342 121.348 140.227 121.348C138.001 121.348 136.331 119.567 136.331 117.452V87.8452C136.331 83.7269 133.103 80.0539 128.985 79.9426C124.644 79.8313 121.083 83.2817 121.083 87.5113V117.452C121.083 119.678 119.302 121.348 117.187 121.348C114.961 121.348 113.291 119.567 113.291 117.452V87.8452C113.291 83.7269 110.063 80.0539 105.945 79.9426C101.604 79.8313 98.0426 83.2817 98.0426 87.5113V138.489C98.0426 148.528 102.907 157.488 110.386 163.076C117.076 166.849 117.076 184.123 117.076 184.123V295.65C117.076 301.438 121.75 306.113 127.538 306.113H130.098C135.886 306.113 140.561 301.438 140.561 295.65V184.123C140.561 184.123 140.561 167.528 147.25 163.076C151.079 160.221 154.189 156.511 156.332 152.243C158.475 147.975 159.592 143.265 159.594 138.489V87.5113C159.481 85.483 158.602 83.5733 157.135 82.1682C155.668 80.7632 153.722 79.9676 151.691 79.9426V79.9426ZM391.441 79.9426C401.458 79.9426 409.583 88.0678 409.583 98.0852V295.762C409.583 301.55 404.909 306.224 399.121 306.224H396.561C390.773 306.224 386.098 301.55 386.098 295.762V199.851C379.939 197.054 374.72 192.538 371.067 186.845C367.414 181.153 365.483 174.526 365.507 167.762V105.988C365.48 102.569 366.132 99.1798 367.425 96.0152C368.717 92.8505 370.625 89.9737 373.037 87.5514C375.449 85.129 378.317 83.2092 381.477 81.9031C384.636 80.5971 388.022 79.9307 391.441 79.9426V79.9426Z" fill="#998EA4"/>
<path d="M182.038 363.956C181.493 362.952 180.705 362.193 179.673 361.677C178.67 361.132 177.48 360.86 176.104 360.86C173.725 360.86 171.818 361.648 170.385 363.225C168.952 364.773 168.235 366.851 168.235 369.46C168.235 372.24 168.98 374.419 170.471 375.996C171.99 377.544 174.069 378.318 176.706 378.318C178.512 378.318 180.031 377.859 181.264 376.942C182.525 376.024 183.443 374.706 184.016 372.986H174.685V367.568H190.681V374.405C190.136 376.239 189.205 377.945 187.886 379.522C186.596 381.098 184.948 382.374 182.941 383.349C180.934 384.323 178.67 384.811 176.147 384.811C173.166 384.811 170.5 384.166 168.149 382.876C165.827 381.557 164.007 379.737 162.688 377.415C161.398 375.093 160.753 372.441 160.753 369.46C160.753 366.478 161.398 363.827 162.688 361.505C164.007 359.154 165.827 357.334 168.149 356.044C170.471 354.725 173.123 354.066 176.104 354.066C179.716 354.066 182.755 354.94 185.22 356.689C187.714 358.437 189.362 360.86 190.165 363.956H182.038ZM193.292 372.556C193.292 370.09 193.751 367.926 194.668 366.063C195.614 364.199 196.89 362.766 198.495 361.763C200.1 360.759 201.892 360.258 203.87 360.258C205.561 360.258 207.038 360.602 208.299 361.29C209.589 361.978 210.578 362.881 211.266 363.999V360.602H218.619V384.596H211.266V381.199C210.549 382.317 209.546 383.22 208.256 383.908C206.995 384.596 205.518 384.94 203.827 384.94C201.878 384.94 200.1 384.438 198.495 383.435C196.89 382.403 195.614 380.955 194.668 379.092C193.751 377.2 193.292 375.021 193.292 372.556ZM211.266 372.599C211.266 370.764 210.75 369.316 209.718 368.256C208.715 367.195 207.482 366.665 206.02 366.665C204.558 366.665 203.311 367.195 202.279 368.256C201.276 369.288 200.774 370.721 200.774 372.556C200.774 374.39 201.276 375.852 202.279 376.942C203.311 378.002 204.558 378.533 206.02 378.533C207.482 378.533 208.715 378.002 209.718 376.942C210.75 375.881 211.266 374.433 211.266 372.599ZM254.554 360.344C257.536 360.344 259.901 361.247 261.649 363.053C263.427 364.859 264.315 367.367 264.315 370.578V384.596H257.005V371.567C257.005 370.019 256.59 368.829 255.758 367.998C254.956 367.138 253.838 366.708 252.404 366.708C250.971 366.708 249.839 367.138 249.007 367.998C248.205 368.829 247.803 370.019 247.803 371.567V384.596H240.493V371.567C240.493 370.019 240.078 368.829 239.246 367.998C238.444 367.138 237.326 366.708 235.892 366.708C234.459 366.708 233.327 367.138 232.495 367.998C231.693 368.829 231.291 370.019 231.291 371.567V384.596H223.938V360.602H231.291V363.612C232.037 362.608 233.011 361.82 234.215 361.247C235.419 360.645 236.781 360.344 238.3 360.344C240.106 360.344 241.712 360.731 243.116 361.505C244.55 362.279 245.668 363.382 246.47 364.816C247.302 363.497 248.434 362.422 249.867 361.591C251.301 360.759 252.863 360.344 254.554 360.344ZM276.811 363.999C277.499 362.881 278.488 361.978 279.778 361.29C281.068 360.602 282.544 360.258 284.207 360.258C286.185 360.258 287.977 360.759 289.582 361.763C291.187 362.766 292.449 364.199 293.366 366.063C294.312 367.926 294.785 370.09 294.785 372.556C294.785 375.021 294.312 377.2 293.366 379.092C292.449 380.955 291.187 382.403 289.582 383.435C287.977 384.438 286.185 384.94 284.207 384.94C282.516 384.94 281.039 384.61 279.778 383.951C278.517 383.263 277.528 382.36 276.811 381.242V384.596H269.458V352.776H276.811V363.999ZM287.303 372.556C287.303 370.721 286.787 369.288 285.755 368.256C284.752 367.195 283.505 366.665 282.014 366.665C280.552 366.665 279.305 367.195 278.273 368.256C277.27 369.316 276.768 370.764 276.768 372.599C276.768 374.433 277.27 375.881 278.273 376.942C279.305 378.002 280.552 378.533 282.014 378.533C283.476 378.533 284.723 378.002 285.755 376.942C286.787 375.852 287.303 374.39 287.303 372.556ZM297.181 372.556C297.181 370.09 297.639 367.926 298.557 366.063C299.503 364.199 300.778 362.766 302.384 361.763C303.989 360.759 305.781 360.258 307.759 360.258C309.45 360.258 310.926 360.602 312.188 361.29C313.478 361.978 314.467 362.881 315.155 363.999V360.602H322.508V384.596H315.155V381.199C314.438 382.317 313.435 383.22 312.145 383.908C310.883 384.596 309.407 384.94 307.716 384.94C305.766 384.94 303.989 384.438 302.384 383.435C300.778 382.403 299.503 380.955 298.557 379.092C297.639 377.2 297.181 375.021 297.181 372.556ZM315.155 372.599C315.155 370.764 314.639 369.316 313.607 368.256C312.603 367.195 311.371 366.665 309.909 366.665C308.447 366.665 307.2 367.195 306.168 368.256C305.164 369.288 304.663 370.721 304.663 372.556C304.663 374.39 305.164 375.852 306.168 376.942C307.2 378.002 308.447 378.533 309.909 378.533C311.371 378.533 312.603 378.002 313.607 376.942C314.639 375.881 315.155 374.433 315.155 372.599ZM335.18 364.601C336.04 363.282 337.115 362.25 338.405 361.505C339.695 360.731 341.128 360.344 342.705 360.344V368.127H340.684C338.849 368.127 337.473 368.528 336.556 369.331C335.639 370.105 335.18 371.481 335.18 373.459V384.596H327.827V360.602H335.18V364.601ZM105.466 410.116C107.215 410.488 108.619 411.363 109.68 412.739C110.741 414.086 111.271 415.634 111.271 417.383C111.271 419.905 110.382 421.912 108.605 423.403C106.856 424.865 104.405 425.596 101.252 425.596H87.1909V395.41H100.779C103.846 395.41 106.24 396.112 107.96 397.517C109.709 398.921 110.583 400.828 110.583 403.236C110.583 405.013 110.11 406.489 109.164 407.665C108.247 408.84 107.014 409.657 105.466 410.116ZM94.5439 407.622H99.3599C100.564 407.622 101.481 407.364 102.112 406.848C102.771 406.303 103.101 405.515 103.101 404.483C103.101 403.451 102.771 402.662 102.112 402.118C101.481 401.573 100.564 401.301 99.3599 401.301H94.5439V407.622ZM99.9619 419.662C101.195 419.662 102.141 419.389 102.8 418.845C103.488 418.271 103.832 417.454 103.832 416.394C103.832 415.333 103.474 414.502 102.757 413.9C102.069 413.298 101.109 412.997 99.8759 412.997H94.5439V419.662H99.9619ZM138.154 413.212C138.154 413.9 138.111 414.616 138.025 415.362H121.384C121.498 416.852 121.971 417.999 122.803 418.802C123.663 419.576 124.709 419.963 125.942 419.963C127.776 419.963 129.052 419.189 129.769 417.641H137.595C137.193 419.217 136.462 420.636 135.402 421.898C134.37 423.159 133.065 424.148 131.489 424.865C129.912 425.581 128.149 425.94 126.2 425.94C123.849 425.94 121.756 425.438 119.922 424.435C118.087 423.431 116.654 421.998 115.622 420.135C114.59 418.271 114.074 416.093 114.074 413.599C114.074 411.105 114.575 408.926 115.579 407.063C116.611 405.199 118.044 403.766 119.879 402.763C121.713 401.759 123.82 401.258 126.2 401.258C128.522 401.258 130.586 401.745 132.392 402.72C134.198 403.694 135.602 405.085 136.606 406.891C137.638 408.697 138.154 410.804 138.154 413.212ZM130.629 411.277C130.629 410.015 130.199 409.012 129.339 408.267C128.479 407.521 127.404 407.149 126.114 407.149C124.881 407.149 123.835 407.507 122.975 408.224C122.143 408.94 121.627 409.958 121.427 411.277H130.629ZM149.386 393.776V425.596H142.033V393.776H149.386ZM178.407 401.602V425.596H171.054V422.328C170.309 423.388 169.291 424.248 168.001 424.908C166.74 425.538 165.335 425.854 163.787 425.854C161.953 425.854 160.333 425.452 158.928 424.65C157.524 423.818 156.434 422.629 155.66 421.081C154.886 419.533 154.499 417.712 154.499 415.62V401.602H161.809V414.631C161.809 416.236 162.225 417.483 163.056 418.372C163.888 419.26 165.006 419.705 166.41 419.705C167.844 419.705 168.976 419.26 169.807 418.372C170.639 417.483 171.054 416.236 171.054 414.631V401.602H178.407ZM214.305 401.344C217.286 401.344 219.651 402.247 221.4 404.053C223.177 405.859 224.066 408.367 224.066 411.578V425.596H216.756V412.567C216.756 411.019 216.34 409.829 215.509 408.998C214.706 408.138 213.588 407.708 212.155 407.708C210.722 407.708 209.589 408.138 208.758 408.998C207.955 409.829 207.554 411.019 207.554 412.567V425.596H200.244V412.567C200.244 411.019 199.828 409.829 198.997 408.998C198.194 408.138 197.076 407.708 195.643 407.708C194.21 407.708 193.077 408.138 192.246 408.998C191.443 409.829 191.042 411.019 191.042 412.567V425.596H183.689V401.602H191.042V404.612C191.787 403.608 192.762 402.82 193.966 402.247C195.17 401.645 196.532 401.344 198.051 401.344C199.857 401.344 201.462 401.731 202.867 402.505C204.3 403.279 205.418 404.382 206.221 405.816C207.052 404.497 208.185 403.422 209.618 402.591C211.051 401.759 212.614 401.344 214.305 401.344ZM260.036 395.41V401.301H252.038V425.596H244.685V401.301H236.687V395.41H260.036ZM286.344 413.212C286.344 413.9 286.301 414.616 286.215 415.362H269.574C269.689 416.852 270.162 417.999 270.993 418.802C271.853 419.576 272.899 419.963 274.132 419.963C275.967 419.963 277.242 419.189 277.959 417.641H285.785C285.384 419.217 284.653 420.636 283.592 421.898C282.56 423.159 281.256 424.148 279.679 424.865C278.102 425.581 276.339 425.94 274.39 425.94C272.039 425.94 269.947 425.438 268.112 424.435C266.277 423.431 264.844 421.998 263.812 420.135C262.78 418.271 262.264 416.093 262.264 413.599C262.264 411.105 262.766 408.926 263.769 407.063C264.801 405.199 266.234 403.766 268.069 402.763C269.904 401.759 272.011 401.258 274.39 401.258C276.712 401.258 278.776 401.745 280.582 402.72C282.388 403.694 283.793 405.085 284.796 406.891C285.828 408.697 286.344 410.804 286.344 413.212ZM278.819 411.277C278.819 410.015 278.389 409.012 277.529 408.267C276.669 407.521 275.594 407.149 274.304 407.149C273.071 407.149 272.025 407.507 271.165 408.224C270.334 408.94 269.818 409.958 269.617 411.277H278.819ZM297.576 405.601C298.436 404.282 299.511 403.25 300.801 402.505C302.091 401.731 303.524 401.344 305.101 401.344V409.127H303.08C301.245 409.127 299.869 409.528 298.952 410.331C298.035 411.105 297.576 412.481 297.576 414.459V425.596H290.223V401.602H297.576V405.601ZM318.377 425.94C316.284 425.94 314.421 425.581 312.787 424.865C311.153 424.148 309.863 423.173 308.917 421.941C307.971 420.679 307.44 419.275 307.326 417.727H314.593C314.679 418.558 315.066 419.232 315.754 419.748C316.442 420.264 317.287 420.522 318.291 420.522C319.208 420.522 319.91 420.35 320.398 420.006C320.914 419.633 321.172 419.16 321.172 418.587C321.172 417.899 320.813 417.397 320.097 417.082C319.38 416.738 318.219 416.365 316.614 415.964C314.894 415.562 313.46 415.147 312.314 414.717C311.167 414.258 310.178 413.556 309.347 412.61C308.515 411.635 308.1 410.331 308.1 408.697C308.1 407.321 308.472 406.074 309.218 404.956C309.992 403.809 311.11 402.906 312.572 402.247C314.062 401.587 315.825 401.258 317.861 401.258C320.871 401.258 323.236 402.003 324.956 403.494C326.704 404.984 327.708 406.962 327.966 409.428H321.172C321.057 408.596 320.684 407.937 320.054 407.45C319.452 406.962 318.649 406.719 317.646 406.719C316.786 406.719 316.126 406.891 315.668 407.235C315.209 407.55 314.98 407.994 314.98 408.568C314.98 409.256 315.338 409.772 316.055 410.116C316.8 410.46 317.947 410.804 319.495 411.148C321.272 411.606 322.72 412.065 323.838 412.524C324.956 412.954 325.93 413.67 326.762 414.674C327.622 415.648 328.066 416.967 328.095 418.63C328.095 420.034 327.693 421.296 326.891 422.414C326.117 423.503 324.984 424.363 323.494 424.994C322.032 425.624 320.326 425.94 318.377 425.94ZM355.211 413.212C355.211 413.9 355.168 414.616 355.082 415.362H338.441C338.556 416.852 339.029 417.999 339.86 418.802C340.72 419.576 341.767 419.963 342.999 419.963C344.834 419.963 346.11 419.189 346.826 417.641H354.652C354.251 419.217 353.52 420.636 352.459 421.898C351.427 423.159 350.123 424.148 348.546 424.865C346.97 425.581 345.207 425.94 343.257 425.94C340.907 425.94 338.814 425.438 336.979 424.435C335.145 423.431 333.711 421.998 332.679 420.135C331.647 418.271 331.131 416.093 331.131 413.599C331.131 411.105 331.633 408.926 332.636 407.063C333.668 405.199 335.102 403.766 336.936 402.763C338.771 401.759 340.878 401.258 343.257 401.258C345.579 401.258 347.643 401.745 349.449 402.72C351.255 403.694 352.66 405.085 353.663 406.891C354.695 408.697 355.211 410.804 355.211 413.212ZM347.686 411.277C347.686 410.015 347.256 409.012 346.396 408.267C345.536 407.521 344.461 407.149 343.171 407.149C341.939 407.149 340.892 407.507 340.032 408.224C339.201 408.94 338.685 409.958 338.484 411.277H347.686ZM357.628 413.556C357.628 411.09 358.087 408.926 359.004 407.063C359.95 405.199 361.226 403.766 362.831 402.763C364.437 401.759 366.228 401.258 368.206 401.258C369.783 401.258 371.216 401.587 372.506 402.247C373.825 402.906 374.857 403.795 375.602 404.913V393.776H382.955V425.596H375.602V422.156C374.914 423.302 373.925 424.22 372.635 424.908C371.374 425.596 369.898 425.94 368.206 425.94C366.228 425.94 364.437 425.438 362.831 424.435C361.226 423.403 359.95 421.955 359.004 420.092C358.087 418.2 357.628 416.021 357.628 413.556ZM375.602 413.599C375.602 411.764 375.086 410.316 374.054 409.256C373.051 408.195 371.818 407.665 370.356 407.665C368.894 407.665 367.647 408.195 366.615 409.256C365.612 410.288 365.11 411.721 365.11 413.556C365.11 415.39 365.612 416.852 366.615 417.942C367.647 419.002 368.894 419.533 370.356 419.533C371.818 419.533 373.051 419.002 374.054 417.942C375.086 416.881 375.602 415.433 375.602 413.599ZM391.973 399.108C390.683 399.108 389.622 398.735 388.791 397.99C387.988 397.216 387.587 396.27 387.587 395.152C387.587 394.005 387.988 393.059 388.791 392.314C389.622 391.54 390.683 391.153 391.973 391.153C393.234 391.153 394.266 391.54 395.069 392.314C395.9 393.059 396.316 394.005 396.316 395.152C396.316 396.27 395.9 397.216 395.069 397.99C394.266 398.735 393.234 399.108 391.973 399.108ZM395.628 401.602V425.596H388.275V401.602H395.628ZM399.495 413.556C399.495 411.09 399.953 408.926 400.871 407.063C401.817 405.199 403.092 403.766 404.698 402.763C406.303 401.759 408.095 401.258 410.073 401.258C411.764 401.258 413.24 401.602 414.502 402.29C415.792 402.978 416.781 403.881 417.469 404.999V401.602H424.822V425.596H417.469V422.199C416.752 423.317 415.749 424.22 414.459 424.908C413.197 425.596 411.721 425.94 410.03 425.94C408.08 425.94 406.303 425.438 404.698 424.435C403.092 423.403 401.817 421.955 400.871 420.092C399.953 418.2 399.495 416.021 399.495 413.556ZM417.469 413.599C417.469 411.764 416.953 410.316 415.921 409.256C414.917 408.195 413.685 407.665 412.223 407.665C410.761 407.665 409.514 408.195 408.482 409.256C407.478 410.288 406.977 411.721 406.977 413.556C406.977 415.39 407.478 416.852 408.482 417.942C409.514 419.002 410.761 419.533 412.223 419.533C413.685 419.533 414.917 419.002 415.921 417.942C416.953 416.881 417.469 415.433 417.469 413.599Z" fill="white"/>
</svg>
