<svg width="256" height="246" viewBox="0 0 256 246" fill="none" xmlns="http://www.w3.org/2000/svg">
<rect width="256" height="245.106" fill="white"/>
<path d="M129.717 160.681C165.062 160.681 193.717 132.026 193.717 96.6809C193.717 61.3362 165.062 32.6809 129.717 32.6809C94.3726 32.6809 65.7173 61.3362 65.7173 96.6809C65.7173 132.026 94.3726 160.681 129.717 160.681Z" fill="#CDC4D6"/>
<path d="M129.717 141.203C141.525 141.203 152.849 136.512 161.199 128.163C169.548 119.813 174.239 108.489 174.239 96.6809C174.239 84.873 169.548 73.5487 161.199 65.1993C152.849 56.8498 141.525 52.1592 129.717 52.1592C117.909 52.1592 106.585 56.8498 98.2357 65.1993C89.8862 73.5487 85.1956 84.873 85.1956 96.6809C85.1956 108.489 89.8862 119.813 98.2357 128.163C106.585 136.512 117.909 141.203 129.717 141.203V141.203Z" fill="#E1D8EC"/>
<path d="M75.8457 39.9713C74.842 39.9713 73.8794 40.37 73.1697 41.0797C72.46 41.7894 72.0613 42.752 72.0613 43.7556V58.7261C72.0613 59.8391 71.1709 60.6739 70.1135 60.6739C69.0004 60.6739 68.1657 59.7835 68.1657 58.7261V43.9226C68.1657 41.8635 66.5517 40.0269 64.4926 39.9713C62.3222 39.9156 60.5413 41.6408 60.5413 43.7556V58.7261C60.5413 59.8391 59.6509 60.6739 58.5935 60.6739C57.4804 60.6739 56.6456 59.7835 56.6456 58.7261V43.9226C56.6456 41.8635 55.0317 40.0269 52.9726 39.9713C50.8022 39.9156 49.0213 41.6408 49.0213 43.7556V69.2443C49.0213 74.2642 51.4533 78.7442 55.1931 81.5379C58.5378 83.4245 58.5378 92.0617 58.5378 92.0617V147.825C58.5378 150.719 60.8752 153.056 63.7691 153.056H65.0491C67.943 153.056 70.2804 150.719 70.2804 147.825V92.0617C70.2804 92.0617 70.2804 83.764 73.6251 81.5379C75.5396 80.1104 77.0945 78.2557 78.1659 76.1215C79.2374 73.9873 79.7959 71.6324 79.797 69.2443V43.7556C79.7406 42.7415 79.3012 41.7866 78.5677 41.0841C77.8342 40.3816 76.8613 39.9838 75.8457 39.9713V39.9713ZM195.72 39.9713C200.729 39.9713 204.792 44.0339 204.792 49.0426V147.881C204.792 150.775 202.454 153.112 199.56 153.112H198.28C195.387 153.112 193.049 150.775 193.049 147.881V99.9254C189.97 98.5271 187.36 96.269 185.533 93.4226C183.707 90.5763 182.742 87.2628 182.753 83.8808V52.9939C182.74 51.2847 183.066 49.5899 183.712 48.0076C184.359 46.4253 185.312 44.9869 186.518 43.7757C187.724 42.5645 189.159 41.6046 190.738 40.9516C192.318 40.2985 194.011 39.9653 195.72 39.9713V39.9713Z" fill="#998EA4"/>
<path d="M90.4583 182.97C91.5463 182.97 92.4343 183.122 93.1223 183.426C93.8103 183.73 94.4263 184.098 94.9703 184.53C95.1623 184.674 95.3223 184.746 95.4503 184.746C95.7543 184.746 95.9543 184.266 96.0503 183.306H96.6023C96.5703 183.93 96.5463 184.69 96.5303 185.586C96.5143 186.466 96.5063 187.642 96.5063 189.114H95.9543C95.8423 188.154 95.6663 187.322 95.4263 186.618C95.2023 185.898 94.7783 185.282 94.1543 184.77C93.7703 184.402 93.2903 184.114 92.7143 183.906C92.1543 183.698 91.5863 183.594 91.0103 183.594C90.1303 183.594 89.3783 183.826 88.7543 184.29C88.1303 184.738 87.6183 185.354 87.2183 186.138C86.8183 186.922 86.5223 187.81 86.3303 188.802C86.1383 189.778 86.0423 190.794 86.0423 191.85C86.0423 194.73 86.4343 196.834 87.2183 198.162C88.0183 199.49 89.1623 200.154 90.6503 200.154C91.0343 200.154 91.3703 200.106 91.6583 200.01C91.9463 199.914 92.1783 199.802 92.3543 199.674C92.5783 199.514 92.7303 199.346 92.8103 199.17C92.8903 198.978 92.9303 198.73 92.9303 198.426V196.074C92.9303 195.338 92.8663 194.794 92.7383 194.442C92.6263 194.074 92.3943 193.826 92.0423 193.698C91.6903 193.57 91.1783 193.498 90.5063 193.482V193.002C90.8423 193.018 91.2423 193.034 91.7063 193.05C92.1863 193.05 92.6823 193.058 93.1943 193.074C93.7063 193.074 94.1783 193.074 94.6103 193.074C95.2823 193.074 95.8983 193.066 96.4583 193.05C97.0183 193.034 97.4743 193.018 97.8263 193.002V193.482C97.5223 193.498 97.2903 193.554 97.1303 193.65C96.9863 193.746 96.8823 193.938 96.8183 194.226C96.7703 194.514 96.7463 194.954 96.7463 195.546V200.298H96.2663C96.2503 200.026 96.1863 199.73 96.0743 199.41C95.9783 199.09 95.8103 198.93 95.5703 198.93C95.4583 198.93 95.3063 198.962 95.1143 199.026C94.9383 199.074 94.6583 199.21 94.2743 199.434C93.6823 199.77 93.0583 200.058 92.4023 200.298C91.7463 200.522 91.0583 200.634 90.3383 200.634C88.4823 200.634 86.9143 200.29 85.6343 199.602C84.3543 198.914 83.3863 197.93 82.7303 196.65C82.0903 195.354 81.7703 193.802 81.7703 191.994C81.7703 190.17 82.1383 188.586 82.8743 187.242C83.6263 185.898 84.6503 184.85 85.9463 184.098C87.2583 183.346 88.7623 182.97 90.4583 182.97ZM102.228 200.466C101.508 200.466 100.908 200.33 100.428 200.058C99.9479 199.786 99.5959 199.426 99.3719 198.978C99.1479 198.514 99.0359 198.01 99.0359 197.466C99.0359 196.778 99.1879 196.218 99.4919 195.786C99.8119 195.354 100.22 195.002 100.716 194.73C101.212 194.458 101.732 194.234 102.276 194.058C102.836 193.882 103.364 193.714 103.86 193.554C104.372 193.378 104.78 193.178 105.084 192.954C105.404 192.714 105.564 192.41 105.564 192.042V190.17C105.564 189.754 105.492 189.386 105.348 189.066C105.22 188.73 105.012 188.474 104.724 188.298C104.452 188.122 104.092 188.034 103.644 188.034C103.324 188.034 103.004 188.082 102.684 188.178C102.364 188.258 102.1 188.402 101.892 188.61C102.34 188.77 102.684 189.018 102.924 189.354C103.18 189.674 103.308 190.042 103.308 190.458C103.308 191.002 103.116 191.434 102.732 191.754C102.364 192.074 101.924 192.234 101.412 192.234C100.836 192.234 100.396 192.058 100.092 191.706C99.8039 191.338 99.6599 190.898 99.6599 190.386C99.6599 189.922 99.7719 189.538 99.9959 189.234C100.236 188.93 100.564 188.642 100.98 188.37C101.428 188.114 101.964 187.914 102.588 187.77C103.228 187.626 103.916 187.554 104.652 187.554C105.388 187.554 106.052 187.634 106.644 187.794C107.236 187.938 107.732 188.21 108.132 188.61C108.5 188.978 108.74 189.434 108.852 189.978C108.964 190.506 109.02 191.178 109.02 191.994V198.522C109.02 198.922 109.06 199.202 109.14 199.362C109.22 199.506 109.356 199.578 109.548 199.578C109.692 199.578 109.828 199.538 109.956 199.458C110.1 199.378 110.252 199.282 110.412 199.17L110.652 199.578C110.316 199.866 109.924 200.09 109.476 200.25C109.044 200.394 108.556 200.466 108.012 200.466C107.42 200.466 106.948 200.386 106.596 200.226C106.244 200.05 105.988 199.818 105.828 199.53C105.684 199.242 105.612 198.906 105.612 198.522C105.228 199.13 104.764 199.61 104.22 199.962C103.676 200.298 103.012 200.466 102.228 200.466ZM103.932 198.93C104.252 198.93 104.54 198.858 104.796 198.714C105.068 198.554 105.324 198.298 105.564 197.946V193.026C105.42 193.266 105.22 193.482 104.964 193.674C104.708 193.866 104.436 194.066 104.148 194.274C103.86 194.466 103.58 194.682 103.308 194.922C103.052 195.162 102.844 195.458 102.684 195.81C102.524 196.162 102.444 196.586 102.444 197.082C102.444 197.706 102.58 198.17 102.852 198.474C103.124 198.778 103.484 198.93 103.932 198.93ZM120.05 187.554C120.722 187.554 121.266 187.642 121.682 187.818C122.098 187.978 122.434 188.202 122.69 188.49C122.946 188.794 123.13 189.194 123.242 189.69C123.354 190.17 123.41 190.81 123.41 191.61V198.066C123.41 198.738 123.514 199.194 123.722 199.434C123.93 199.674 124.29 199.794 124.802 199.794V200.298C124.514 200.282 124.074 200.266 123.482 200.25C122.906 200.218 122.338 200.202 121.778 200.202C121.202 200.202 120.634 200.218 120.074 200.25C119.514 200.266 119.09 200.282 118.802 200.298V199.794C119.234 199.794 119.53 199.674 119.69 199.434C119.866 199.194 119.954 198.738 119.954 198.066V190.602C119.954 190.202 119.922 189.858 119.858 189.57C119.794 189.266 119.666 189.034 119.474 188.874C119.298 188.698 119.026 188.61 118.658 188.61C118.242 188.61 117.858 188.73 117.506 188.97C117.154 189.21 116.866 189.546 116.642 189.978C116.434 190.394 116.33 190.866 116.33 191.394V198.066C116.33 198.738 116.418 199.194 116.594 199.434C116.77 199.674 117.066 199.794 117.482 199.794V200.298C117.226 200.282 116.826 200.266 116.282 200.25C115.754 200.218 115.21 200.202 114.65 200.202C114.042 200.202 113.418 200.218 112.778 200.25C112.138 200.266 111.658 200.282 111.338 200.298V199.794C111.898 199.794 112.29 199.674 112.514 199.434C112.754 199.194 112.874 198.738 112.874 198.066V190.506C112.874 189.786 112.762 189.258 112.538 188.922C112.33 188.57 111.93 188.394 111.338 188.394V187.89C111.85 187.938 112.346 187.962 112.826 187.962C113.498 187.962 114.122 187.938 114.698 187.89C115.29 187.826 115.834 187.738 116.33 187.626V189.786C116.714 188.986 117.234 188.418 117.89 188.082C118.546 187.73 119.266 187.554 120.05 187.554ZM127.274 187.554C127.946 187.554 128.49 187.642 128.906 187.818C129.322 187.978 129.658 188.202 129.914 188.49C130.17 188.794 130.354 189.194 130.466 189.69C130.578 190.17 130.634 190.81 130.634 191.61V198.066C130.634 198.738 130.746 199.194 130.97 199.434C131.21 199.674 131.61 199.794 132.17 199.794V200.298C131.866 200.282 131.41 200.266 130.802 200.25C130.194 200.218 129.594 200.202 129.002 200.202C128.426 200.202 127.858 200.218 127.298 200.25C126.738 200.266 126.314 200.282 126.026 200.298V199.794C126.458 199.794 126.754 199.674 126.914 199.434C127.09 199.194 127.178 198.738 127.178 198.066V190.602C127.178 190.202 127.138 189.858 127.058 189.57C126.994 189.266 126.858 189.034 126.65 188.874C126.458 188.698 126.154 188.61 125.738 188.61C125.322 188.61 124.938 188.738 124.586 188.994C124.234 189.25 123.946 189.594 123.722 190.026C123.514 190.458 123.402 190.938 123.386 191.466L123.266 190.002C123.698 189.042 124.266 188.394 124.97 188.058C125.69 187.722 126.458 187.554 127.274 187.554ZM141.296 187.554C142.544 187.554 143.576 188.066 144.392 189.09C145.224 190.098 145.64 191.658 145.64 193.77C145.64 195.434 145.384 196.77 144.872 197.778C144.376 198.786 143.712 199.514 142.88 199.962C142.048 200.41 141.136 200.634 140.144 200.634C139.488 200.634 138.88 200.522 138.32 200.298C137.76 200.074 137.28 199.706 136.88 199.194L137.216 199.074C137.504 199.426 137.84 199.69 138.224 199.866C138.624 200.042 139.016 200.13 139.4 200.13C140.28 200.13 140.936 199.634 141.368 198.642C141.8 197.65 142.016 196.138 142.016 194.106C142.016 192.73 141.928 191.642 141.752 190.842C141.592 190.026 141.352 189.45 141.032 189.114C140.712 188.762 140.328 188.586 139.88 188.586C139.32 188.586 138.808 188.818 138.344 189.282C137.88 189.73 137.616 190.362 137.552 191.178L137.432 190.338C137.72 189.426 138.208 188.738 138.896 188.274C139.584 187.794 140.384 187.554 141.296 187.554ZM137.624 181.53V199.818C137.224 199.754 136.816 199.754 136.4 199.818C135.984 199.882 135.6 199.994 135.248 200.154C134.896 200.298 134.6 200.474 134.36 200.682L134 200.466C134.064 200.242 134.104 200.018 134.12 199.794C134.152 199.57 134.168 199.346 134.168 199.122V184.41C134.168 183.69 134.056 183.162 133.832 182.826C133.624 182.474 133.224 182.298 132.632 182.298V181.794C133.144 181.842 133.64 181.866 134.12 181.866C134.776 181.866 135.4 181.842 135.992 181.794C136.584 181.73 137.128 181.642 137.624 181.53ZM150.439 200.466C149.719 200.466 149.119 200.33 148.639 200.058C148.159 199.786 147.807 199.426 147.583 198.978C147.359 198.514 147.247 198.01 147.247 197.466C147.247 196.778 147.399 196.218 147.703 195.786C148.023 195.354 148.431 195.002 148.927 194.73C149.423 194.458 149.943 194.234 150.487 194.058C151.047 193.882 151.575 193.714 152.071 193.554C152.583 193.378 152.991 193.178 153.295 192.954C153.615 192.714 153.775 192.41 153.775 192.042V190.17C153.775 189.754 153.703 189.386 153.559 189.066C153.431 188.73 153.223 188.474 152.935 188.298C152.663 188.122 152.303 188.034 151.855 188.034C151.535 188.034 151.215 188.082 150.895 188.178C150.575 188.258 150.311 188.402 150.103 188.61C150.551 188.77 150.895 189.018 151.135 189.354C151.391 189.674 151.519 190.042 151.519 190.458C151.519 191.002 151.327 191.434 150.943 191.754C150.575 192.074 150.135 192.234 149.623 192.234C149.047 192.234 148.607 192.058 148.303 191.706C148.015 191.338 147.871 190.898 147.871 190.386C147.871 189.922 147.983 189.538 148.207 189.234C148.447 188.93 148.775 188.642 149.191 188.37C149.639 188.114 150.175 187.914 150.799 187.77C151.439 187.626 152.127 187.554 152.863 187.554C153.599 187.554 154.263 187.634 154.855 187.794C155.447 187.938 155.943 188.21 156.343 188.61C156.711 188.978 156.951 189.434 157.063 189.978C157.175 190.506 157.231 191.178 157.231 191.994V198.522C157.231 198.922 157.271 199.202 157.351 199.362C157.431 199.506 157.567 199.578 157.759 199.578C157.903 199.578 158.039 199.538 158.167 199.458C158.311 199.378 158.463 199.282 158.623 199.17L158.863 199.578C158.527 199.866 158.135 200.09 157.687 200.25C157.255 200.394 156.767 200.466 156.223 200.466C155.631 200.466 155.159 200.386 154.807 200.226C154.455 200.05 154.199 199.818 154.039 199.53C153.895 199.242 153.823 198.906 153.823 198.522C153.439 199.13 152.975 199.61 152.431 199.962C151.887 200.298 151.223 200.466 150.439 200.466ZM152.143 198.93C152.463 198.93 152.751 198.858 153.007 198.714C153.279 198.554 153.535 198.298 153.775 197.946V193.026C153.631 193.266 153.431 193.482 153.175 193.674C152.919 193.866 152.647 194.066 152.359 194.274C152.071 194.466 151.791 194.682 151.519 194.922C151.263 195.162 151.055 195.458 150.895 195.81C150.735 196.162 150.655 196.586 150.655 197.082C150.655 197.706 150.791 198.17 151.063 198.474C151.335 198.778 151.695 198.93 152.143 198.93ZM167.805 187.554C168.317 187.554 168.733 187.666 169.053 187.89C169.373 188.098 169.605 188.37 169.749 188.706C169.909 189.042 169.989 189.394 169.989 189.762C169.989 190.354 169.813 190.842 169.461 191.226C169.125 191.594 168.677 191.778 168.117 191.778C167.557 191.778 167.117 191.642 166.797 191.37C166.493 191.082 166.341 190.706 166.341 190.242C166.341 189.794 166.437 189.426 166.629 189.138C166.837 188.834 167.093 188.578 167.397 188.37C167.173 188.306 166.949 188.314 166.725 188.394C166.421 188.442 166.133 188.57 165.861 188.778C165.589 188.97 165.357 189.218 165.165 189.522C164.973 189.81 164.821 190.13 164.709 190.482C164.597 190.818 164.541 191.146 164.541 191.466V197.826C164.541 198.594 164.725 199.114 165.093 199.386C165.477 199.658 166.045 199.794 166.797 199.794V200.298C166.429 200.282 165.893 200.266 165.189 200.25C164.485 200.218 163.749 200.202 162.981 200.202C162.341 200.202 161.693 200.218 161.037 200.25C160.381 200.266 159.885 200.282 159.549 200.298V199.794C160.109 199.794 160.501 199.674 160.725 199.434C160.965 199.194 161.085 198.738 161.085 198.066V190.506C161.085 189.786 160.973 189.258 160.749 188.922C160.541 188.57 160.141 188.394 159.549 188.394V187.89C160.061 187.938 160.557 187.962 161.037 187.962C161.709 187.962 162.333 187.938 162.909 187.89C163.501 187.826 164.045 187.738 164.541 187.626V189.858C164.733 189.426 164.989 189.034 165.309 188.682C165.629 188.33 165.997 188.058 166.413 187.866C166.829 187.658 167.293 187.554 167.805 187.554ZM42.4605 215.306C42.8765 215.322 43.4205 215.338 44.0925 215.354C44.7645 215.37 45.4365 215.378 46.1085 215.378C46.8765 215.378 47.6205 215.37 48.3405 215.354C49.0605 215.338 49.5725 215.33 49.8765 215.33C51.8605 215.33 53.3405 215.682 54.3165 216.386C55.3085 217.09 55.8045 217.994 55.8045 219.098C55.8045 219.658 55.6365 220.226 55.3005 220.802C54.9645 221.378 54.4445 221.89 53.7405 222.338C53.0365 222.786 52.1245 223.114 51.0045 223.322V223.37C52.5085 223.482 53.7005 223.754 54.5805 224.186C55.4605 224.618 56.0925 225.138 56.4765 225.746C56.8605 226.354 57.0525 226.986 57.0525 227.642C57.0525 228.65 56.7885 229.498 56.2605 230.186C55.7325 230.874 54.9725 231.402 53.9805 231.77C52.9885 232.122 51.8045 232.298 50.4285 232.298C50.0445 232.298 49.4925 232.29 48.7725 232.274C48.0525 232.242 47.1805 232.226 46.1565 232.226C45.4525 232.226 44.7645 232.234 44.0925 232.25C43.4205 232.25 42.8765 232.266 42.4605 232.298V231.818C42.9725 231.786 43.3565 231.722 43.6125 231.626C43.8685 231.53 44.0365 231.338 44.1165 231.05C44.2125 230.762 44.2605 230.33 44.2605 229.754V217.85C44.2605 217.258 44.2125 216.826 44.1165 216.554C44.0365 216.266 43.8605 216.074 43.5885 215.978C43.3325 215.866 42.9565 215.802 42.4605 215.786V215.306ZM49.5645 215.786C48.9405 215.786 48.5325 215.922 48.3405 216.194C48.1645 216.466 48.0765 217.018 48.0765 217.85V229.754C48.0765 230.314 48.1165 230.738 48.1965 231.026C48.2925 231.314 48.4525 231.506 48.6765 231.602C48.9165 231.698 49.2685 231.746 49.7325 231.746C50.8845 231.746 51.7245 231.386 52.2525 230.666C52.7965 229.93 53.0685 228.89 53.0685 227.546C53.0685 226.314 52.7565 225.362 52.1325 224.69C51.5245 224.018 50.5085 223.682 49.0845 223.682H47.0445C47.0445 223.682 47.0445 223.618 47.0445 223.49C47.0445 223.346 47.0445 223.274 47.0445 223.274H49.1085C49.8605 223.274 50.4365 223.098 50.8365 222.746C51.2365 222.378 51.5165 221.898 51.6765 221.306C51.8365 220.698 51.9165 220.05 51.9165 219.362C51.9165 218.178 51.7325 217.29 51.3645 216.698C50.9965 216.09 50.3965 215.786 49.5645 215.786ZM64.5375 219.554C65.9455 219.554 67.0495 219.97 67.8495 220.802C68.6495 221.634 69.0495 222.994 69.0495 224.882H61.1535L61.1055 224.426H66.0255C66.0415 223.642 65.9935 222.922 65.8815 222.266C65.7695 221.594 65.5935 221.058 65.3535 220.658C65.1135 220.258 64.7935 220.058 64.3935 220.058C63.8335 220.058 63.3535 220.41 62.9535 221.114C62.5695 221.818 62.3375 222.986 62.2575 224.618L62.3295 224.762C62.3135 224.954 62.2975 225.154 62.2815 225.362C62.2815 225.57 62.2815 225.786 62.2815 226.01C62.2815 227.114 62.4335 228.01 62.7375 228.698C63.0575 229.386 63.4575 229.89 63.9375 230.21C64.4175 230.514 64.9055 230.666 65.4015 230.666C65.7375 230.666 66.0815 230.618 66.4335 230.522C66.8015 230.41 67.1695 230.218 67.5375 229.946C67.9055 229.658 68.2495 229.258 68.5695 228.746L69.0015 228.89C68.8095 229.498 68.5055 230.09 68.0895 230.666C67.6735 231.242 67.1455 231.714 66.5055 232.082C65.8655 232.45 65.0975 232.634 64.2015 232.634C63.1135 232.634 62.1535 232.402 61.3215 231.938C60.4895 231.474 59.8335 230.77 59.3535 229.826C58.8895 228.882 58.6575 227.682 58.6575 226.226C58.6575 224.738 58.9055 223.498 59.4015 222.506C59.9135 221.514 60.6095 220.778 61.4895 220.298C62.3855 219.802 63.4015 219.554 64.5375 219.554ZM75.3353 213.506V230.066C75.3353 230.738 75.4473 231.194 75.6713 231.434C75.9113 231.674 76.3113 231.794 76.8713 231.794V232.298C76.5673 232.282 76.1113 232.266 75.5033 232.25C74.8953 232.218 74.2793 232.202 73.6553 232.202C73.0313 232.202 72.3993 232.218 71.7593 232.25C71.1353 232.266 70.6633 232.282 70.3433 232.298V231.794C70.9033 231.794 71.2953 231.674 71.5193 231.434C71.7593 231.194 71.8793 230.738 71.8793 230.066V216.386C71.8793 215.666 71.7673 215.138 71.5433 214.802C71.3353 214.45 70.9353 214.274 70.3433 214.274V213.77C70.8553 213.818 71.3513 213.842 71.8313 213.842C72.4873 213.842 73.1113 213.818 73.7033 213.77C74.2953 213.706 74.8393 213.618 75.3353 213.506ZM89.8444 219.626V229.682C89.8444 230.402 89.9564 230.938 90.1804 231.29C90.4044 231.626 90.8044 231.794 91.3804 231.794V232.298C90.8844 232.25 90.3884 232.226 89.8924 232.226C89.2204 232.226 88.5964 232.25 88.0204 232.298C87.4444 232.346 86.9004 232.434 86.3884 232.562V230.402C86.0044 231.202 85.4684 231.778 84.7804 232.13C84.1084 232.466 83.3564 232.634 82.5244 232.634C81.8524 232.634 81.3084 232.546 80.8924 232.37C80.4764 232.194 80.1484 231.97 79.9084 231.698C79.6364 231.394 79.4444 230.994 79.3324 230.498C79.2204 230.002 79.1644 229.362 79.1644 228.578V222.506C79.1644 221.786 79.0524 221.258 78.8284 220.922C78.6204 220.57 78.2204 220.394 77.6284 220.394V219.89C78.1404 219.938 78.6364 219.962 79.1164 219.962C79.7884 219.962 80.4124 219.938 80.9884 219.89C81.5804 219.826 82.1244 219.738 82.6204 219.626V229.562C82.6204 229.962 82.6524 230.314 82.7164 230.618C82.7964 230.922 82.9404 231.162 83.1484 231.338C83.3564 231.498 83.6604 231.578 84.0604 231.578C84.4924 231.578 84.8764 231.458 85.2124 231.218C85.5644 230.978 85.8444 230.65 86.0524 230.234C86.2764 229.802 86.3884 229.322 86.3884 228.794V222.506C86.3884 221.786 86.2764 221.258 86.0524 220.922C85.8444 220.57 85.4444 220.394 84.8524 220.394V219.89C85.3644 219.938 85.8604 219.962 86.3404 219.962C87.0124 219.962 87.6364 219.938 88.2124 219.89C88.8044 219.826 89.3484 219.738 89.8444 219.626ZM101.159 219.554C101.831 219.554 102.375 219.642 102.791 219.818C103.207 219.978 103.543 220.202 103.799 220.49C104.055 220.794 104.239 221.194 104.351 221.69C104.463 222.17 104.519 222.81 104.519 223.61V230.066C104.519 230.738 104.623 231.194 104.831 231.434C105.039 231.674 105.399 231.794 105.911 231.794V232.298C105.623 232.282 105.183 232.266 104.591 232.25C104.015 232.218 103.447 232.202 102.887 232.202C102.311 232.202 101.743 232.218 101.183 232.25C100.623 232.266 100.199 232.282 99.9111 232.298V231.794C100.343 231.794 100.639 231.674 100.799 231.434C100.975 231.194 101.063 230.738 101.063 230.066V222.602C101.063 222.202 101.031 221.858 100.967 221.57C100.903 221.266 100.775 221.034 100.583 220.874C100.407 220.698 100.135 220.61 99.7671 220.61C99.3511 220.61 98.9671 220.73 98.6151 220.97C98.2631 221.21 97.9751 221.546 97.7511 221.978C97.5431 222.394 97.4391 222.866 97.4391 223.394V230.066C97.4391 230.738 97.5271 231.194 97.7031 231.434C97.8791 231.674 98.1751 231.794 98.5911 231.794V232.298C98.3351 232.282 97.9351 232.266 97.3911 232.25C96.8631 232.218 96.3191 232.202 95.7591 232.202C95.1511 232.202 94.5271 232.218 93.8871 232.25C93.2471 232.266 92.7671 232.282 92.4471 232.298V231.794C93.0071 231.794 93.3991 231.674 93.6231 231.434C93.8631 231.194 93.9831 230.738 93.9831 230.066V222.506C93.9831 221.786 93.8711 221.258 93.6471 220.922C93.4391 220.57 93.0391 220.394 92.4471 220.394V219.89C92.9591 219.938 93.4551 219.962 93.9351 219.962C94.6071 219.962 95.2311 219.938 95.8071 219.89C96.3991 219.826 96.9431 219.738 97.4391 219.626V221.786C97.8231 220.986 98.3431 220.418 98.9991 220.082C99.6551 219.73 100.375 219.554 101.159 219.554ZM108.383 219.554C109.055 219.554 109.599 219.642 110.015 219.818C110.431 219.978 110.767 220.202 111.023 220.49C111.279 220.794 111.463 221.194 111.575 221.69C111.687 222.17 111.743 222.81 111.743 223.61V230.066C111.743 230.738 111.855 231.194 112.079 231.434C112.319 231.674 112.719 231.794 113.279 231.794V232.298C112.975 232.282 112.519 232.266 111.911 232.25C111.303 232.218 110.703 232.202 110.111 232.202C109.535 232.202 108.967 232.218 108.407 232.25C107.847 232.266 107.423 232.282 107.135 232.298V231.794C107.567 231.794 107.863 231.674 108.023 231.434C108.199 231.194 108.287 230.738 108.287 230.066V222.602C108.287 222.202 108.247 221.858 108.167 221.57C108.103 221.266 107.967 221.034 107.759 220.874C107.567 220.698 107.263 220.61 106.847 220.61C106.431 220.61 106.047 220.738 105.695 220.994C105.343 221.25 105.055 221.594 104.831 222.026C104.623 222.458 104.511 222.938 104.495 223.466L104.375 222.002C104.807 221.042 105.375 220.394 106.079 220.058C106.799 219.722 107.567 219.554 108.383 219.554ZM134.045 215.306C133.981 216.122 133.933 216.906 133.901 217.658C133.885 218.41 133.877 218.986 133.877 219.386C133.877 219.738 133.885 220.074 133.901 220.394C133.917 220.714 133.933 220.986 133.949 221.21H133.397C133.141 219.866 132.813 218.802 132.413 218.018C132.029 217.234 131.565 216.682 131.021 216.362C130.477 216.026 129.837 215.858 129.101 215.858H128.549V229.562C128.549 230.202 128.613 230.682 128.741 231.002C128.885 231.322 129.141 231.538 129.509 231.65C129.877 231.746 130.413 231.802 131.117 231.818V232.298C130.621 232.282 129.957 232.266 129.125 232.25C128.309 232.234 127.453 232.226 126.557 232.226C125.677 232.226 124.845 232.234 124.061 232.25C123.277 232.266 122.645 232.282 122.165 232.298V231.818C122.885 231.802 123.429 231.746 123.797 231.65C124.165 231.538 124.413 231.322 124.541 231.002C124.669 230.682 124.733 230.202 124.733 229.562V215.858H124.205C123.469 215.858 122.829 216.026 122.285 216.362C121.741 216.682 121.277 217.234 120.893 218.018C120.509 218.786 120.173 219.85 119.885 221.21H119.333C119.365 220.986 119.381 220.714 119.381 220.394C119.397 220.074 119.405 219.738 119.405 219.386C119.405 218.986 119.389 218.41 119.357 217.658C119.341 216.906 119.301 216.122 119.237 215.306C119.973 215.322 120.773 215.338 121.637 215.354C122.517 215.37 123.397 215.378 124.277 215.378C125.157 215.378 125.949 215.378 126.653 215.378C127.373 215.378 128.165 215.378 129.029 215.378C129.909 215.378 130.789 215.37 131.669 215.354C132.549 215.338 133.341 215.322 134.045 215.306ZM140.452 219.554C141.86 219.554 142.964 219.97 143.764 220.802C144.564 221.634 144.964 222.994 144.964 224.882H137.068L137.02 224.426H141.94C141.956 223.642 141.908 222.922 141.796 222.266C141.684 221.594 141.508 221.058 141.268 220.658C141.028 220.258 140.708 220.058 140.308 220.058C139.748 220.058 139.268 220.41 138.868 221.114C138.484 221.818 138.252 222.986 138.172 224.618L138.244 224.762C138.228 224.954 138.212 225.154 138.196 225.362C138.196 225.57 138.196 225.786 138.196 226.01C138.196 227.114 138.348 228.01 138.652 228.698C138.972 229.386 139.372 229.89 139.852 230.21C140.332 230.514 140.82 230.666 141.316 230.666C141.652 230.666 141.996 230.618 142.348 230.522C142.716 230.41 143.084 230.218 143.452 229.946C143.82 229.658 144.164 229.258 144.484 228.746L144.916 228.89C144.724 229.498 144.42 230.09 144.004 230.666C143.588 231.242 143.06 231.714 142.42 232.082C141.78 232.45 141.012 232.634 140.116 232.634C139.028 232.634 138.068 232.402 137.236 231.938C136.404 231.474 135.748 230.77 135.268 229.826C134.804 228.882 134.572 227.682 134.572 226.226C134.572 224.738 134.82 223.498 135.316 222.506C135.828 221.514 136.524 220.778 137.404 220.298C138.3 219.802 139.316 219.554 140.452 219.554ZM154.469 219.554C154.981 219.554 155.397 219.666 155.717 219.89C156.037 220.098 156.269 220.37 156.413 220.706C156.573 221.042 156.653 221.394 156.653 221.762C156.653 222.354 156.477 222.842 156.125 223.226C155.789 223.594 155.341 223.778 154.781 223.778C154.221 223.778 153.781 223.642 153.461 223.37C153.157 223.082 153.005 222.706 153.005 222.242C153.005 221.794 153.101 221.426 153.293 221.138C153.501 220.834 153.757 220.578 154.061 220.37C153.837 220.306 153.613 220.314 153.389 220.394C153.085 220.442 152.797 220.57 152.525 220.778C152.253 220.97 152.021 221.218 151.829 221.522C151.637 221.81 151.485 222.13 151.373 222.482C151.261 222.818 151.205 223.146 151.205 223.466V229.826C151.205 230.594 151.389 231.114 151.757 231.386C152.141 231.658 152.709 231.794 153.461 231.794V232.298C153.093 232.282 152.557 232.266 151.853 232.25C151.149 232.218 150.413 232.202 149.645 232.202C149.005 232.202 148.357 232.218 147.701 232.25C147.045 232.266 146.549 232.282 146.213 232.298V231.794C146.773 231.794 147.165 231.674 147.389 231.434C147.629 231.194 147.749 230.738 147.749 230.066V222.506C147.749 221.786 147.637 221.258 147.413 220.922C147.205 220.57 146.805 220.394 146.213 220.394V219.89C146.725 219.938 147.221 219.962 147.701 219.962C148.373 219.962 148.997 219.938 149.573 219.89C150.165 219.826 150.709 219.738 151.205 219.626V221.858C151.397 221.426 151.653 221.034 151.973 220.682C152.293 220.33 152.661 220.058 153.077 219.866C153.493 219.658 153.957 219.554 154.469 219.554ZM162.168 219.554C162.84 219.554 163.424 219.642 163.92 219.818C164.432 219.978 164.8 220.138 165.024 220.298C165.568 220.666 165.904 220.426 166.032 219.578H166.536C166.504 220.026 166.48 220.578 166.464 221.234C166.448 221.874 166.44 222.73 166.44 223.802H165.936C165.856 223.21 165.704 222.626 165.48 222.05C165.256 221.474 164.928 221.002 164.496 220.634C164.08 220.266 163.536 220.082 162.864 220.082C162.4 220.082 162.008 220.218 161.688 220.49C161.368 220.746 161.208 221.122 161.208 221.618C161.208 222.098 161.352 222.522 161.64 222.89C161.928 223.242 162.296 223.586 162.744 223.922C163.208 224.242 163.688 224.586 164.184 224.954C164.712 225.354 165.192 225.754 165.624 226.154C166.056 226.538 166.4 226.962 166.656 227.426C166.912 227.89 167.04 228.442 167.04 229.082C167.04 229.802 166.832 230.434 166.416 230.978C166 231.506 165.448 231.914 164.76 232.202C164.088 232.49 163.336 232.634 162.504 232.634C162.024 232.634 161.592 232.586 161.208 232.49C160.84 232.394 160.52 232.274 160.248 232.13C160.04 232.034 159.84 231.946 159.648 231.866C159.472 231.77 159.304 231.69 159.144 231.626C158.984 231.578 158.84 231.634 158.712 231.794C158.6 231.954 158.512 232.178 158.448 232.466H157.944C157.976 231.954 158 231.33 158.016 230.594C158.032 229.858 158.04 228.882 158.04 227.666H158.544C158.64 228.53 158.816 229.298 159.072 229.97C159.328 230.626 159.672 231.146 160.104 231.53C160.552 231.898 161.112 232.082 161.784 232.082C162.056 232.082 162.32 232.026 162.576 231.914C162.832 231.802 163.04 231.618 163.2 231.362C163.376 231.106 163.464 230.778 163.464 230.378C163.464 229.674 163.232 229.09 162.768 228.626C162.32 228.162 161.744 227.658 161.04 227.114C160.528 226.698 160.04 226.29 159.576 225.89C159.128 225.474 158.76 225.026 158.472 224.546C158.184 224.05 158.04 223.49 158.04 222.866C158.04 222.146 158.232 221.538 158.616 221.042C159 220.546 159.504 220.178 160.128 219.938C160.768 219.682 161.448 219.554 162.168 219.554ZM174.694 219.554C176.102 219.554 177.206 219.97 178.006 220.802C178.806 221.634 179.206 222.994 179.206 224.882H171.31L171.262 224.426H176.182C176.198 223.642 176.15 222.922 176.038 222.266C175.926 221.594 175.75 221.058 175.51 220.658C175.27 220.258 174.95 220.058 174.55 220.058C173.99 220.058 173.51 220.41 173.11 221.114C172.726 221.818 172.494 222.986 172.414 224.618L172.486 224.762C172.47 224.954 172.454 225.154 172.438 225.362C172.438 225.57 172.438 225.786 172.438 226.01C172.438 227.114 172.59 228.01 172.894 228.698C173.214 229.386 173.614 229.89 174.094 230.21C174.574 230.514 175.062 230.666 175.558 230.666C175.894 230.666 176.238 230.618 176.59 230.522C176.958 230.41 177.326 230.218 177.694 229.946C178.062 229.658 178.406 229.258 178.726 228.746L179.158 228.89C178.966 229.498 178.662 230.09 178.246 230.666C177.83 231.242 177.302 231.714 176.662 232.082C176.022 232.45 175.254 232.634 174.358 232.634C173.27 232.634 172.31 232.402 171.478 231.938C170.646 231.474 169.99 230.77 169.51 229.826C169.046 228.882 168.814 227.682 168.814 226.226C168.814 224.738 169.062 223.498 169.558 222.506C170.07 221.514 170.766 220.778 171.646 220.298C172.542 219.802 173.558 219.554 174.694 219.554ZM192.404 213.506V229.658C192.404 230.378 192.516 230.914 192.74 231.266C192.964 231.602 193.364 231.77 193.94 231.77V232.274C193.444 232.226 192.948 232.202 192.452 232.202C191.78 232.202 191.148 232.226 190.556 232.274C189.98 232.322 189.444 232.41 188.948 232.538V216.386C188.948 215.666 188.836 215.138 188.612 214.802C188.404 214.45 188.004 214.274 187.412 214.274V213.77C187.924 213.818 188.42 213.842 188.9 213.842C189.556 213.842 190.18 213.818 190.772 213.77C191.364 213.706 191.908 213.618 192.404 213.506ZM186.284 219.554C186.988 219.554 187.604 219.674 188.132 219.914C188.676 220.138 189.1 220.522 189.404 221.066L189.116 221.33C188.908 220.946 188.628 220.674 188.276 220.514C187.94 220.338 187.58 220.25 187.196 220.25C186.38 220.25 185.732 220.73 185.252 221.69C184.772 222.634 184.54 224.098 184.556 226.082C184.556 227.442 184.644 228.53 184.82 229.346C185.012 230.146 185.276 230.722 185.612 231.074C185.964 231.426 186.364 231.602 186.812 231.602C187.356 231.602 187.844 231.386 188.276 230.954C188.708 230.522 188.94 229.938 188.972 229.202L189.092 230.042C188.852 230.89 188.46 231.538 187.916 231.986C187.388 232.418 186.692 232.634 185.828 232.634C184.884 232.634 184.036 232.402 183.284 231.938C182.548 231.474 181.972 230.762 181.556 229.802C181.14 228.826 180.932 227.57 180.932 226.034C180.932 224.578 181.164 223.378 181.628 222.434C182.092 221.474 182.724 220.754 183.524 220.274C184.34 219.794 185.26 219.554 186.284 219.554ZM198.059 213.698C198.731 213.698 199.259 213.866 199.643 214.202C200.043 214.522 200.243 214.97 200.243 215.546C200.243 216.122 200.043 216.578 199.643 216.914C199.259 217.234 198.731 217.394 198.059 217.394C197.387 217.394 196.851 217.234 196.451 216.914C196.067 216.578 195.875 216.122 195.875 215.546C195.875 214.97 196.067 214.522 196.451 214.202C196.851 213.866 197.387 213.698 198.059 213.698ZM199.931 219.626V230.066C199.931 230.738 200.043 231.194 200.267 231.434C200.507 231.674 200.907 231.794 201.467 231.794V232.298C201.179 232.282 200.731 232.266 200.123 232.25C199.515 232.218 198.899 232.202 198.275 232.202C197.651 232.202 197.019 232.218 196.379 232.25C195.739 232.266 195.259 232.282 194.939 232.298V231.794C195.499 231.794 195.891 231.674 196.115 231.434C196.355 231.194 196.475 230.738 196.475 230.066V222.506C196.475 221.786 196.363 221.258 196.139 220.922C195.931 220.57 195.531 220.394 194.939 220.394V219.89C195.451 219.938 195.947 219.962 196.427 219.962C197.099 219.962 197.723 219.938 198.299 219.89C198.891 219.826 199.435 219.738 199.931 219.626ZM205.822 232.466C205.102 232.466 204.502 232.33 204.022 232.058C203.542 231.786 203.19 231.426 202.966 230.978C202.742 230.514 202.63 230.01 202.63 229.466C202.63 228.778 202.782 228.218 203.086 227.786C203.406 227.354 203.814 227.002 204.31 226.73C204.806 226.458 205.326 226.234 205.87 226.058C206.43 225.882 206.958 225.714 207.454 225.554C207.966 225.378 208.374 225.178 208.678 224.954C208.998 224.714 209.158 224.41 209.158 224.042V222.17C209.158 221.754 209.086 221.386 208.942 221.066C208.814 220.73 208.606 220.474 208.318 220.298C208.046 220.122 207.686 220.034 207.238 220.034C206.918 220.034 206.598 220.082 206.278 220.178C205.958 220.258 205.694 220.402 205.486 220.61C205.934 220.77 206.278 221.018 206.518 221.354C206.774 221.674 206.902 222.042 206.902 222.458C206.902 223.002 206.71 223.434 206.326 223.754C205.958 224.074 205.518 224.234 205.006 224.234C204.43 224.234 203.99 224.058 203.686 223.706C203.398 223.338 203.254 222.898 203.254 222.386C203.254 221.922 203.366 221.538 203.59 221.234C203.83 220.93 204.158 220.642 204.574 220.37C205.022 220.114 205.558 219.914 206.182 219.77C206.822 219.626 207.51 219.554 208.246 219.554C208.982 219.554 209.646 219.634 210.238 219.794C210.83 219.938 211.326 220.21 211.726 220.61C212.094 220.978 212.334 221.434 212.446 221.978C212.558 222.506 212.614 223.178 212.614 223.994V230.522C212.614 230.922 212.654 231.202 212.734 231.362C212.814 231.506 212.95 231.578 213.142 231.578C213.286 231.578 213.422 231.538 213.55 231.458C213.694 231.378 213.846 231.282 214.006 231.17L214.246 231.578C213.91 231.866 213.518 232.09 213.07 232.25C212.638 232.394 212.15 232.466 211.606 232.466C211.014 232.466 210.542 232.386 210.19 232.226C209.838 232.05 209.582 231.818 209.422 231.53C209.278 231.242 209.206 230.906 209.206 230.522C208.822 231.13 208.358 231.61 207.814 231.962C207.27 232.298 206.606 232.466 205.822 232.466ZM207.526 230.93C207.846 230.93 208.134 230.858 208.39 230.714C208.662 230.554 208.918 230.298 209.158 229.946V225.026C209.014 225.266 208.814 225.482 208.558 225.674C208.302 225.866 208.03 226.066 207.742 226.274C207.454 226.466 207.174 226.682 206.902 226.922C206.646 227.162 206.438 227.458 206.278 227.81C206.118 228.162 206.038 228.586 206.038 229.082C206.038 229.706 206.174 230.17 206.446 230.474C206.718 230.778 207.078 230.93 207.526 230.93Z" fill="#363636"/>
</svg>
