<?xml version="1.0" encoding="iso-8859-1"?>
<!-- Generator: Adobe Illustrator 16.0.0, SVG Export Plug-In . SVG Version: 6.00 Build 0)  -->
<svg version="1.1" fill="#ffffff" id="Capa_1" xmlns="http://www.w3.org/2000/svg" xmlns:xlink="http://www.w3.org/1999/xlink" x="0px" y="0px"
	 width="46px" height="46px" viewBox="0 0 46 46" style="enable-background:new 0 0 46 46;" xml:space="preserve">
<g>
	<path d="M23,0C10.298,0,0,10.298,0,23s10.298,23,23,23s23-10.298,23-23S35.702,0,23,0z M41.949,22h-6.303
		c-0.078-3.301-0.539-6.42-1.305-9.217c1.227-0.714,2.178-1.545,2.774-2.454C39.934,13.462,41.715,17.524,41.949,22z M33.811,37.9
		c-0.186,0.367-0.834,0.924-1.922,1.473c0.397-0.713,0.77-1.475,1.111-2.277C33.424,37.402,33.701,37.686,33.811,37.9z M13,37.096
		c0.343,0.803,0.713,1.564,1.111,2.277c-1.087-0.549-1.737-1.104-1.921-1.473C12.299,37.686,12.576,37.402,13,37.096z M12.19,8.1
		c0.184-0.369,0.834-0.924,1.921-1.473C13.713,7.34,13.343,8.102,13,8.903C12.576,8.598,12.299,8.315,12.19,8.1z M33,8.904
		c-0.343-0.803-0.714-1.564-1.111-2.277c1.088,0.549,1.736,1.103,1.922,1.473C33.701,8.315,33.424,8.598,33,8.904z M25,4.902
		c0.154,0.012,0.312,0.022,0.463,0.037c1.439,1.068,2.812,3.011,3.898,5.599c-1.219,0.353-2.678,0.63-4.361,0.758V4.902z
		 M20.537,4.939C20.688,4.925,20.845,4.914,21,4.902v6.394c-1.685-0.128-3.143-0.405-4.361-0.758
		C17.726,7.95,19.098,6.008,20.537,4.939z M21,15.301V22h-6.634c0.072-2.785,0.439-5.37,1.021-7.665
		C17.072,14.831,18.969,15.166,21,15.301z M21,26v4.699c-2.031,0.135-3.928,0.47-5.612,0.966c-0.439-1.735-0.756-3.638-0.917-5.665
		H21z M21,34.704v6.394c-0.155-0.012-0.312-0.021-0.463-0.037c-1.439-1.067-2.812-3.011-3.898-5.6
		C17.857,35.109,19.315,34.832,21,34.704z M25.463,41.061c-0.15,0.016-0.309,0.025-0.463,0.037v-6.394
		c1.686,0.128,3.143,0.405,4.361,0.757C28.273,38.05,26.902,39.992,25.463,41.061z M25,30.699V26h6.529
		c-0.161,2.027-0.479,3.93-0.918,5.665C28.928,31.169,27.031,30.834,25,30.699z M25,22v-6.699c2.031-0.135,3.928-0.47,5.611-0.966
		c0.582,2.295,0.949,4.88,1.021,7.665H25z M8.883,10.329c0.597,0.909,1.548,1.74,2.774,2.454c-0.765,2.797-1.226,5.916-1.304,9.217
		H4.051C4.285,17.524,6.067,13.462,8.883,10.329z M4.261,26h6.189c0.184,2.562,0.599,4.991,1.207,7.217
		c-1.227,0.715-2.178,1.545-2.774,2.454C6.493,33.012,4.849,29.686,4.261,26z M37.117,35.671c-0.598-0.909-1.549-1.739-2.774-2.454
		c0.608-2.226,1.022-4.654,1.207-7.217h6.188C41.15,29.686,39.507,33.012,37.117,35.671z"/>
</g>
<g>
</g>
<g>
</g>
<g>
</g>
<g>
</g>
<g>
</g>
<g>
</g>
<g>
</g>
<g>
</g>
<g>
</g>
<g>
</g>
<g>
</g>
<g>
</g>
<g>
</g>
<g>
</g>
<g>
</g>
</svg>
