<svg width="54" height="54" viewBox="0 0 54 54" fill="none" xmlns="http://www.w3.org/2000/svg">
<circle cx="27" cy="27" r="27" fill="white"/>
<path d="M30.648 11.5554C30.3749 11.3495 30.0603 11.1956 29.7224 11.1026C29.3844 11.0096 29.0299 10.9794 28.6792 11.0137C28.3285 11.0481 27.9887 11.1462 27.6794 11.3026C27.3701 11.4589 27.0975 11.6703 26.8773 11.9245L19.1547 20.8525H22.568L28.96 13.4601L31.0133 15.008L25.8667 20.8525H29.3013L33.08 16.5608L37.6613 20.0133L36.8667 20.8525H37.6667C38.4619 20.8517 39.2528 20.9603 40.0133 21.1748C40.3038 20.6719 40.3962 20.0915 40.2746 19.5328C40.153 18.974 39.825 18.4715 39.3467 18.1111L30.648 11.5554ZM13.6667 22.0829C13.6667 21.7565 13.8071 21.4436 14.0572 21.2128C14.3072 20.9821 14.6464 20.8525 15 20.8525H16.488L18.608 18.3916H15C13.9391 18.3916 12.9217 18.7805 12.1716 19.4728C11.4214 20.165 11 21.1039 11 22.0829V36.8479C11 38.4795 11.7024 40.0444 12.9526 41.1981C14.2029 42.3518 15.8986 43 17.6667 43H37.6667C39.0812 43 40.4377 42.4815 41.4379 41.5585C42.4381 40.6355 43 39.3836 43 38.0783V28.235C43 26.9297 42.4381 25.6778 41.4379 24.7548C40.4377 23.8318 39.0812 23.3133 37.6667 23.3133H15C14.6464 23.3133 14.3072 23.1837 14.0572 22.9529C13.8071 22.7222 13.6667 22.4092 13.6667 22.0829ZM33.6667 33.1566H36.3333C36.687 33.1566 37.0261 33.2863 37.2761 33.517C37.5262 33.7478 37.6667 34.0607 37.6667 34.3871C37.6667 34.7134 37.5262 35.0264 37.2761 35.2571C37.0261 35.4879 36.687 35.6175 36.3333 35.6175H33.6667C33.313 35.6175 32.9739 35.4879 32.7239 35.2571C32.4738 35.0264 32.3333 34.7134 32.3333 34.3871C32.3333 34.0607 32.4738 33.7478 32.7239 33.517C32.9739 33.2863 33.313 33.1566 33.6667 33.1566Z" fill="#FA8700"/>
</svg>
