<svg width="167" height="140" viewBox="0 0 167 140" fill="none" xmlns="http://www.w3.org/2000/svg">
<path d="M84.6649 85.4841C61.2478 85.6399 41.6246 66.2664 42.03 42.0466C42.4168 18.9193 61.074 -0.184602 85.0193 0.00134608C108.883 0.18497 127.237 19.7956 127.26 42.7393C127.284 66.4686 107.744 85.6957 84.6649 85.4841ZM112.798 38.5787C112.745 36.2101 112.161 33.2768 111.22 30.4225C110.153 27.1754 108.649 24.1793 106.088 21.8131C103.403 19.3307 99.6741 18.8147 96.48 20.5742C93.7561 22.0734 92.1185 24.5349 90.8191 27.2521C89.0866 30.8688 88.2597 34.7319 87.94 38.7088C87.7571 41.003 88.035 43.2413 88.9916 45.3704C90.0733 47.7785 91.7896 49.6124 93.9136 51.1348C95.5952 52.3388 96.4568 54.017 96.4777 56.1299C96.4939 57.7011 96.5796 59.277 96.6745 60.8483C96.7579 62.2685 96.7927 63.7049 97.0405 65.1019C97.3277 66.7103 99.0325 67.9143 100.559 67.7888C102.34 67.6401 103.781 66.1781 103.864 64.4278C103.989 61.8106 104.151 59.191 104.228 56.5715C104.304 54.0496 105.367 52.1808 107.41 50.6862C111.255 47.8784 113.097 44.0362 112.798 38.5787ZM66.2531 29.0349C66.2531 31.2546 66.2717 33.4767 66.2462 35.6965C66.2323 36.9167 65.3174 37.9 64.2403 37.9441C63.1355 37.9906 62.1441 37.1004 62.1395 35.8522C62.1326 34.0462 62.202 32.2332 62.3642 30.4341C62.5286 28.5816 62.8761 26.7454 63.0892 24.8952C63.2907 23.138 61.9681 21.5272 60.2309 21.3343C58.6698 21.1599 57.1874 22.4639 56.9836 24.2049C56.7357 26.3386 56.3837 28.47 56.2841 30.6131C56.1289 33.9811 55.9135 37.3746 56.152 40.7264C56.4717 45.2728 58.7184 48.8709 62.5124 51.4486C64.3353 52.6852 65.3846 54.4122 65.5282 56.611C65.6972 59.2306 65.7737 61.8547 65.8872 64.4766C65.9451 65.7899 66.9225 67.1427 68.1177 67.5587C69.482 68.0329 70.786 67.6889 71.7658 66.622C72.5047 65.8178 72.7177 64.8369 72.7571 63.7956C72.8266 61.8733 72.8544 59.9488 72.9471 58.0265C72.9841 57.22 73.0675 56.3995 73.2551 55.6162C73.6882 53.8171 74.8672 52.5573 76.3774 51.5765C78.777 50.0215 80.4146 47.8598 81.538 45.2449C82.5687 42.8439 82.6637 40.3033 82.6451 37.7814C82.6196 34.6389 82.395 31.4964 82.1633 28.3631C82.0475 26.8012 81.7696 25.2462 81.4801 23.7051C81.2369 22.4174 79.9467 21.3645 78.6983 21.2948C77.5008 21.225 76.3612 22.0757 75.796 23.2798C75.2378 24.4722 75.6501 25.6204 75.7451 26.7942C75.9883 29.7833 76.2454 32.7701 76.389 35.7639C76.4145 36.3217 76.0392 36.9958 75.6524 37.449C75.1405 38.051 74.3739 38.0789 73.6419 37.7582C72.7571 37.3746 72.419 36.6239 72.4143 35.7244C72.3981 31.6939 72.4097 27.6612 72.3958 23.6307C72.3958 23.138 72.3402 22.6382 72.236 22.1594C71.877 20.4905 70.5243 19.4051 69.0234 19.5422C67.4321 19.6863 66.2624 21.06 66.2555 22.8126C66.2462 24.8859 66.2531 26.9615 66.2531 29.0349Z" fill="#ED2836"/>
<path d="M20.6511 125.042C14.4645 130.235 5.77163 127.367 2.54975 123.071C-1.13306 118.155 -0.79026 110.892 3.34422 106.517C7.48333 102.133 15.9214 101.339 20.6048 105.52C20.6048 104.572 20.6048 103.728 20.6048 102.822C22.7774 102.822 24.8226 102.822 26.9652 102.822C26.9652 103.189 26.9652 103.533 26.9652 103.874C26.9652 111.728 26.9767 119.585 26.9605 127.439C26.9513 132.304 24.6258 135.772 20.3431 137.852C15.0296 140.432 7.01313 139.072 2.72115 135.021C2.48953 134.8 2.20695 134.635 2.31581 134.519C3.56426 133.138 4.80344 131.748 6.08432 130.398C6.17234 130.307 6.64716 130.456 6.84404 130.614C9.76482 132.94 13.0562 133.566 16.5931 132.573C19.178 131.85 20.6303 129.707 20.6488 127.016C20.6534 126.388 20.6511 125.761 20.6511 125.042ZM20.306 115.173C20.4473 113.723 20.3245 112.249 19.2313 110.999C18.2978 109.929 17.1165 109.318 15.7917 108.902C13.1766 108.077 9.76482 109.037 8.0786 111.036C6.70044 112.665 6.48271 114.583 6.76298 116.558C7.14979 119.278 8.72251 121.047 11.4279 121.665C12.2687 121.856 13.1604 121.977 14.0128 121.916C16.2225 121.763 18.1959 121.068 19.5555 119.131C20.394 117.941 20.3732 116.619 20.306 115.173Z" fill="black"/>
<path d="M160.403 94.4562C162.699 94.4562 164.816 94.4562 167 94.4562C167 105.364 167 116.235 167 127.151C165.02 127.151 163.053 127.151 160.989 127.151C160.989 126.479 160.989 125.795 160.989 124.861C158.096 127.608 154.754 128.194 151.182 127.813C147.564 127.427 144.53 125.879 142.314 122.911C138.809 118.223 139.258 111.008 143.379 106.564C147.229 102.412 154.983 101.174 160.403 105.211C160.403 101.592 160.403 98.0589 160.403 94.4562ZM160.48 115.352C160.464 115.352 160.445 115.35 160.429 115.35C160.429 114.913 160.41 114.474 160.431 114.037C160.51 112.333 159.78 110.982 158.388 110.141C157.323 109.495 156.109 108.946 154.893 108.723C152.06 108.198 149.068 109.253 147.555 111.749C145.677 114.841 146.619 119.266 149.603 120.977C151.648 122.146 153.851 122.279 156.084 121.651C158.12 121.079 159.722 119.936 160.292 117.779C160.498 117.007 160.427 116.163 160.48 115.352Z" fill="black"/>
<path d="M44.587 102.763C49.3677 102.852 53.4072 104.66 56.0732 108.988C57.3541 111.071 57.8104 113.386 57.7363 115.84C57.6575 118.502 56.8329 120.868 55.2301 122.953C53.2266 125.558 50.5305 127.065 47.3294 127.639C43.195 128.38 39.3014 127.776 35.8595 125.226C30.3074 121.11 29.3138 112.863 33.6891 107.552C36.4779 104.165 40.1561 102.803 44.587 102.763ZM51.0794 115.364C51.3018 111.517 48.2791 108.6 44.5731 108.611C40.3529 108.625 37.6175 111.284 37.6152 115.41C37.6152 119.327 40.4479 122.151 44.4295 122.104C48.7748 122.051 51.2763 118.799 51.0794 115.364Z" fill="black"/>
<path d="M107.978 115.287C108.047 122.116 102.62 127.013 96.6536 127.753C92.3292 128.287 88.4565 127.399 85.1605 124.466C80.4215 120.245 79.6919 112.846 83.6063 107.861C86.5248 104.144 90.4577 102.57 95.155 102.773C98.2426 102.905 101.017 103.821 103.424 105.78C105.467 107.445 106.866 109.553 107.496 112.119C107.748 113.153 107.823 114.229 107.978 115.287ZM101.233 115.347C101.388 111.433 98.4858 108.749 94.9836 108.607C90.2909 108.414 87.7987 111.612 87.7616 115.217C87.7199 119.234 90.4971 122.081 94.4995 122.06C98.7151 122.039 101.351 119.125 101.233 115.347Z" fill="black"/>
<path d="M110.567 114.492C110.451 109.09 115.102 104.049 120.944 103.028C126.186 102.115 130.885 103.263 134.524 107.433C136.05 109.183 136.868 111.271 137.216 113.588C137.67 116.617 137.07 119.408 135.451 121.937C133.287 125.319 130.109 127.167 126.16 127.732C122.32 128.28 118.762 127.62 115.603 125.284C112.244 122.799 110.572 119.441 110.567 114.492ZM117.229 115.313C117.222 119.324 119.927 122.044 123.951 122.072C127.87 122.1 130.725 119.259 130.73 115.334C130.735 111.51 127.974 108.702 124.319 108.593C120.094 108.465 117.115 111.359 117.229 115.313Z" fill="black"/>
<path d="M72.0274 109.067C72.0274 115.187 72.0274 121.137 72.0274 127.141C69.8062 127.141 67.6451 127.141 65.3961 127.141C65.3961 121.137 65.3961 115.164 65.3961 109.127C63.7168 109.127 62.1232 109.102 60.5296 109.141C59.9112 109.158 59.719 108.953 59.7329 108.347C59.763 106.717 59.7421 105.088 59.7421 103.375C61.653 103.375 63.4736 103.375 65.4354 103.375C65.4354 102.224 65.3127 101.136 65.4586 100.088C65.9033 96.8944 67.8675 94.8304 71.1079 94.4748C73.665 94.1958 76.2615 94.2981 78.8418 94.2679C79.0201 94.2656 79.3537 94.5724 79.3583 94.7421C79.3977 96.4551 79.3815 98.1728 79.3815 100.014C77.5517 100.014 75.8145 100.004 74.0773 100.016C72.5393 100.028 72.0321 100.567 72.0344 102.15C72.0344 102.522 72.0344 102.894 72.0344 103.335C75.0107 103.335 77.9084 103.335 80.8731 103.335C80.8731 105.255 80.8731 107.11 80.8731 109.067C77.9755 109.067 75.0571 109.067 72.0274 109.067Z" fill="black"/>
<path d="M112.798 38.5787C112.745 36.2102 112.161 33.2768 111.22 30.4225C110.153 27.1754 108.649 24.1793 106.088 21.8131C103.403 19.3307 99.674 18.8147 96.4799 20.5742C93.756 22.0734 92.1185 24.5349 90.819 27.2521C89.0865 30.8688 88.2596 34.7319 87.94 38.7088C87.757 41.003 88.0349 43.2413 88.9915 45.3704C90.0732 47.7785 91.7895 49.6124 93.9135 51.1348C95.5951 52.3389 96.4568 54.0171 96.4776 56.1299C96.4938 57.7012 96.5795 59.2771 96.6745 60.8483C96.7579 62.2685 96.7926 63.705 97.0404 65.1019C97.3277 66.7104 99.0324 67.9144 100.559 67.7889C102.34 67.6401 103.781 66.1781 103.864 64.4278C103.989 61.8106 104.151 59.1911 104.228 56.5715C104.304 54.0496 105.367 52.1808 107.41 50.6863C111.255 47.8784 113.097 44.0363 112.798 38.5787Z" fill="white"/>
<path d="M66.2532 29.0348C66.2532 31.2546 66.2717 33.4767 66.2462 35.6964C66.2323 36.9167 65.3174 37.8999 64.2404 37.9441C63.1355 37.9906 62.1442 37.1003 62.1395 35.8522C62.1326 34.0461 62.2021 32.2331 62.3642 30.4341C62.5287 28.5816 62.8761 26.7453 63.0892 24.8952C63.2907 23.1379 61.9681 21.5272 60.231 21.3342C58.6698 21.1599 57.1874 22.4639 56.9836 24.2048C56.7358 26.3386 56.3837 28.47 56.2841 30.6131C56.1289 33.9811 55.9135 37.3746 56.1521 40.7263C56.4717 45.2728 58.7185 48.8709 62.5125 51.4486C64.3353 52.6851 65.3846 54.4121 65.5282 56.611C65.6973 59.2305 65.7737 61.8547 65.8872 64.4766C65.9451 65.7899 66.9226 67.1426 68.1177 67.5587C69.482 68.0329 70.786 67.6889 71.7658 66.622C72.5047 65.8177 72.7178 64.8369 72.7571 63.7956C72.8266 61.8733 72.8544 59.9487 72.9471 58.0265C72.9841 57.22 73.0675 56.3995 73.2551 55.6162C73.6883 53.8171 74.8672 52.5573 76.3774 51.5764C78.777 50.0214 80.4146 47.8598 81.538 45.2449C82.5687 42.8438 82.6637 40.3033 82.6451 37.7814C82.6197 34.6389 82.395 31.4963 82.1634 28.3631C82.0476 26.8011 81.7696 25.2461 81.4801 23.7051C81.2369 22.4174 79.9467 21.3645 78.6983 21.2947C77.5008 21.225 76.3612 22.0757 75.796 23.2797C75.2378 24.4721 75.6501 25.6204 75.7451 26.7942C75.9883 29.7833 76.2454 32.7701 76.389 35.7638C76.4145 36.3217 76.0393 36.9957 75.6524 37.449C75.1406 38.051 74.3739 38.0789 73.642 37.7581C72.7572 37.3746 72.419 36.6239 72.4144 35.7243C72.3981 31.6939 72.4097 27.6611 72.3958 23.6307C72.3958 23.1379 72.3402 22.6382 72.236 22.1594C71.877 20.4905 70.5243 19.405 69.0234 19.5422C67.4321 19.6863 66.2624 21.06 66.2555 22.8125C66.2462 24.8859 66.2532 26.9615 66.2532 29.0348Z" fill="white"/>
</svg>
