<svg width="167" height="61" viewBox="0 0 167 61" fill="none" xmlns="http://www.w3.org/2000/svg">
<path d="M76.295 60.4454V30.2291H94.8797V36.1134H82.5536V42.3597H92.2475V48.244H82.5536V60.4376H76.295V60.4454ZM154.92 60.9332C152.097 60.9332 149.703 59.8397 147.747 57.6606C145.783 55.4736 144.805 52.8697 144.805 49.8331C144.805 46.7965 145.783 44.1926 147.747 42.0057C149.711 39.8187 152.105 38.7331 154.92 38.7331C156.272 38.7331 157.56 39.0399 158.602 39.5827C159.707 40.1255 160.503 40.7942 161.115 41.5809V28.5377H167V60.4533H161.115V58.0854C160.566 58.8721 159.707 59.5407 158.602 60.0836C157.56 60.6264 156.336 60.9332 154.92 60.9332ZM152.28 54.0183C153.258 55.1117 154.61 55.6546 156.208 55.6546C157.807 55.6546 159.151 55.1117 160.137 54.0183C161.115 52.9248 161.608 51.5324 161.608 49.8331C161.608 48.1339 161.115 46.7415 160.137 45.648C159.159 44.5545 157.807 44.0117 156.208 44.0117C154.61 44.0117 153.266 44.5545 152.28 45.648C151.302 46.7415 150.809 48.1339 150.809 49.8331C150.745 51.5324 151.238 52.9248 152.28 54.0183ZM139.214 57.7156C137.003 59.8397 134.308 60.9332 131.182 60.9332C128.057 60.9332 125.353 59.8397 123.15 57.7156C120.94 55.5916 119.842 52.9248 119.842 49.8253C119.842 46.7336 120.948 44.1218 123.15 41.9349C125.361 39.7479 128.057 38.7173 131.182 38.7173C134.308 38.7173 136.948 39.8108 139.214 41.9349C141.425 44.1218 142.522 46.7257 142.522 49.8253C142.522 52.9169 141.417 55.5916 139.214 57.7156ZM131.182 55.4736C132.717 55.4736 133.942 54.9308 134.983 53.8924C136.025 52.7989 136.518 51.4694 136.518 49.8253C136.518 48.189 136.025 46.8516 134.983 45.7581C133.942 44.6646 132.717 44.1769 131.182 44.1769C129.647 44.1769 128.359 44.7197 127.317 45.7581C126.276 46.8516 125.783 48.1811 125.783 49.8253C125.783 51.4615 126.276 52.7989 127.317 53.8924C128.359 54.9229 129.647 55.4736 131.182 55.4736ZM114.252 57.7156C112.041 59.8397 109.345 60.9332 106.22 60.9332C103.095 60.9332 100.391 59.8397 98.1879 57.7156C95.9771 55.5916 94.8797 52.9248 94.8797 49.8253C94.8797 46.7336 95.9851 44.1218 98.1879 41.9349C100.399 39.7479 103.095 38.7173 106.22 38.7173C109.345 38.7173 112.049 39.8108 114.252 41.9349C116.462 44.1218 117.56 46.7257 117.56 49.8253C117.56 52.9169 116.454 55.5916 114.252 57.7156ZM106.275 55.4736C107.81 55.4736 109.035 54.9308 110.077 53.8924C111.118 52.7989 111.611 51.4694 111.611 49.8253C111.611 48.189 111.118 46.8516 110.077 45.7581C109.035 44.6646 107.81 44.1769 106.275 44.1769C104.741 44.1769 103.452 44.7197 102.411 45.7581C101.369 46.8516 100.876 48.1811 100.876 49.8253C100.876 51.4615 101.369 52.7989 102.411 53.8924C103.389 54.9229 104.677 55.4736 106.275 55.4736Z" fill="#EE4E2C"/>
<path d="M50.9667 0.264465H29.4397H7.9126L0 11.7342C0 11.7342 1.65409 44.8613 1.65409 55.9613C1.65409 57.7786 3.92052 60.9332 5.70185 60.9332H29.376H53.0502C54.8316 60.9332 57.098 57.7156 57.098 55.9613C57.098 44.7984 58.7521 11.7342 58.7521 11.7342L50.9667 0.264465ZM42.1316 12.5839H29.4953H16.859V6.94337C16.859 5.97576 17.6543 5.12614 18.696 5.12614H29.4874H40.2787C41.2569 5.12614 42.1157 5.91282 42.1157 6.94337V12.5839H42.1316Z" fill="#EE4E2C"/>
<path fill-rule="evenodd" clip-rule="evenodd" d="M23.8571 39.5119C23.8571 40.2435 19.873 44.4837 19.873 44.4837L19.2607 60.9253H14.7835L14.1711 44.4837C14.1711 44.4837 10.187 40.2356 10.187 39.5119C10.187 38.9691 10.187 38.2375 10.187 38.2375L10.6164 20.4034C10.6164 20.1596 10.7993 19.9786 11.0459 19.9786C11.0459 19.9786 11.9047 19.9786 12.3978 19.9786H12.6443C12.7079 19.9786 12.7636 19.9786 12.7636 20.0416C13.0101 20.1045 13.2566 20.1596 13.3123 20.4034V20.4664V20.8283C13.3123 20.8283 13.3759 24.4076 13.4316 28.105C13.4952 31.7474 13.6145 35.5077 13.6145 35.6886C13.6781 35.8066 14.2904 36.3573 14.7835 36.2944C15.3322 36.2944 15.9525 35.6257 15.9525 35.6257V32.1643C15.9525 32.1643 15.9525 21.0643 15.9525 20.5136C15.9525 19.9708 16.8113 19.9078 16.8113 19.9078H17.3044C17.3044 19.9078 18.1632 19.9708 18.1632 20.5136C18.1632 21.1193 18.1632 32.1643 18.1632 32.1643V35.6257C18.1632 35.6257 18.7756 36.2314 19.3322 36.2944C19.8809 36.2944 20.4376 35.7516 20.5012 35.6886C20.5648 35.2638 20.8114 20.8283 20.8114 20.8283V20.4664V20.4034C20.875 20.1596 21.1215 20.0416 21.3601 20.0416C21.4237 20.0416 21.4237 19.9786 21.4794 19.9786H21.7259C22.2189 19.9786 23.0778 19.9786 23.0778 19.9786C23.3243 19.9786 23.5072 20.1596 23.5072 20.4034L23.9367 38.2375C23.873 38.2375 23.873 38.9691 23.873 39.5119H23.8571Z" fill="#FEFEFE"/>
<path fill-rule="evenodd" clip-rule="evenodd" d="M48.7559 32.1722C48.7559 38.7881 44.4617 43.3981 42.6247 45.0973C42.1316 45.585 41.7658 46.2537 41.7658 47.0404C41.6465 50.3759 41.2171 59.4778 41.1535 60.9331H37.1694C37.1057 59.4778 36.7399 50.3759 36.557 47.0404C36.4934 46.3088 36.1912 45.585 35.6982 45.0973C33.8612 43.3981 29.5669 38.7252 29.5669 32.1722C29.5669 23.8019 35.396 20.0416 39.1336 20.0416C42.9348 20.0416 48.7639 23.8019 48.7639 32.1722H48.7559Z" fill="#FEFEFE"/>
<path d="M130.14 8.53244C128.168 8.53244 126.395 9.35845 125.186 10.6722V9.14605C125.186 7.76936 122.951 7.76149 122.951 9.14605V27.1846C122.951 28.5692 125.186 28.5692 125.186 27.1846V19.1526C126.403 20.4664 128.176 21.2924 130.14 21.2924C133.799 21.2924 136.773 18.4289 136.773 14.9124C136.773 11.396 133.799 8.53244 130.14 8.53244ZM130.14 18.9953C127.802 18.9953 125.902 17.1623 125.902 14.9203C125.902 12.8985 127.445 11.2071 129.464 10.8925C129.472 10.8925 129.488 10.8846 129.496 10.8846C129.703 10.8531 129.918 10.8374 130.14 10.8374C131.866 10.8374 133.361 11.8365 134.013 13.2761C134.013 13.284 134.021 13.2918 134.021 13.2918C134.252 13.7875 134.371 14.3381 134.371 14.9124C134.371 17.1623 132.47 18.9874 130.14 18.9874V18.9953ZM113.671 21.3002C110.013 21.3002 107.031 18.4367 107.031 14.9203C107.031 11.4038 110.005 8.54031 113.671 8.54031C117.329 8.54031 120.311 11.4038 120.311 14.9203C120.311 18.4367 117.337 21.3002 113.671 21.3002ZM113.671 10.8374C111.333 10.8374 109.432 12.6625 109.432 14.9124C109.432 17.1623 111.333 18.9874 113.671 18.9874C116.009 18.9874 117.91 17.1623 117.91 14.9124C117.91 12.6625 116.009 10.8374 113.671 10.8374ZM167 14.7865C166.944 11.8522 165.385 9.20112 162.149 8.61111C159.365 8.10763 156.105 9.51579 154.92 12.0253C153.687 14.6292 154.204 18.2086 156.638 20.0258C159.27 21.9925 163.373 21.3868 166.069 19.9314C167.326 19.2549 166.196 17.3983 164.94 18.0749C163.23 18.9953 160.996 19.4515 159.079 18.8379C157.648 18.3817 156.844 17.1859 156.598 15.8564H165.886C166.483 15.8564 167.016 15.3608 167 14.7787V14.7865ZM156.677 13.7167C156.693 13.638 156.717 13.5593 156.741 13.4806C157.274 11.7342 159.103 10.7194 160.956 10.6722C163.079 10.6171 164.272 12.0253 164.646 13.7167H156.685H156.677ZM152.137 14.8101C152.081 11.8758 150.522 9.22472 147.286 8.63471C144.502 8.13123 141.242 9.53939 140.057 12.0489C138.824 14.6528 139.341 18.2322 141.775 20.0494C144.407 22.0161 148.51 21.4104 151.206 19.955C152.463 19.2785 151.333 17.4219 150.077 18.0985C148.367 19.0189 146.133 19.4751 144.216 18.8615C142.785 18.4053 141.982 17.2095 141.735 15.88H151.023C151.62 15.88 152.153 15.3844 152.137 14.8023V14.8101ZM141.815 13.7403C141.83 13.6616 141.854 13.5829 141.878 13.5043C142.411 11.7578 144.24 10.743 146.093 10.6958C148.216 10.6407 149.409 12.0489 149.783 13.7403H141.822H141.815ZM104.415 12.749V20.2068C104.415 21.6149 102.18 21.6149 102.18 20.2068V12.8985C102.1 11.451 100.86 10.7902 100.82 10.7745C99.2296 10.0901 96.3429 10.4047 94.6252 12.5681V20.2146C94.6252 21.6228 92.3906 21.6228 92.3906 20.2146V1.05899C92.3906 -0.34917 94.6252 -0.341303 94.6252 1.05899V9.66526C97.3608 7.85589 100.844 8.05256 102.482 9.16178C102.482 9.16178 104.446 10.2238 104.415 12.7569V12.749ZM88.7325 1.9322C86.5456 -0.459305 81.9491 -0.522239 79.2851 1.14552C76.7324 2.74248 75.6985 6.3612 77.8695 8.65044C80.5574 11.4904 85.7901 10.4834 87.9134 14.0943C89.4482 16.706 87.0466 19.0503 84.3428 19.1054C82.2274 19.1526 79.635 18.4525 78.1717 16.9578C77.1936 15.9508 75.6111 17.4612 76.5892 18.4603C78.7523 20.6788 82.7364 21.6621 85.8299 21.0957C88.7166 20.5686 91.0466 17.8939 90.5695 15.0225C89.981 11.4589 86.3627 9.73606 83.1022 8.79991C80.7244 8.1155 77.3367 6.58147 79.6032 3.74943C81.1936 1.75913 85.3686 1.49166 87.142 3.42689C88.0883 4.45744 89.6629 2.94702 88.7245 1.92433L88.7325 1.9322Z" fill="#EE4E2C"/>
</svg>
