<svg width="54" height="54" viewBox="0 0 54 54" fill="none" xmlns="http://www.w3.org/2000/svg">
<circle cx="27" cy="27" r="27" fill="white"/>
<path fill-rule="evenodd" clip-rule="evenodd" d="M20.8884 42.2436C14.5191 39.7609 10 33.5114 10 26.1944V26.1944H44V26.1944C44 33.5114 39.4809 39.7609 33.1117 42.2436C33.9475 43.0256 34.4375 43.9756 34.4375 45.0001H19.5625C19.5625 43.9756 20.0525 43.0256 20.8884 42.2436Z" fill="#FA8700"/>
<path d="M19.879 13.8484C19.9267 13.2961 19.5208 12.8119 18.9724 12.767C18.4241 12.7221 17.9409 13.1334 17.8932 13.6857L19.879 13.8484ZM18.5933 17.1599L17.6004 17.0785C17.5657 17.481 17.7738 17.8638 18.1286 18.0501L18.5933 17.1599ZM22.338 19.1259L23.3087 18.8931C23.2431 18.6099 23.0585 18.37 22.8026 18.2357L22.338 19.1259ZM22.308 23.4242C22.4327 23.9632 22.9684 24.296 23.5045 24.1674C24.0406 24.0388 24.3741 23.4977 24.2494 22.9586L22.308 23.4242ZM17.8932 13.6857L17.6004 17.0785L19.5862 17.2412L19.879 13.8484L17.8932 13.6857ZM18.1286 18.0501L21.8733 20.0161L22.8026 18.2357L19.058 16.2697L18.1286 18.0501ZM21.3673 19.3587L22.308 23.4242L24.2494 22.9586L23.3087 18.8931L21.3673 19.3587Z" fill="#FA8700"/>
<path d="M28.2283 9.49851C28.4815 9.00734 28.289 8.40439 27.7982 8.15177C27.3075 7.89916 26.7043 8.09254 26.4511 8.5837L28.2283 9.49851ZM25.7824 12.0613L24.8938 11.6039C24.7099 11.9605 24.7567 12.3923 25.0127 12.7007L25.7824 12.0613ZM28.4949 15.329L29.4621 15.5811C29.5438 15.2692 29.4702 14.9373 29.2646 14.6895L28.4949 15.329ZM26.3708 19.4949C26.2308 20.0294 26.5504 20.5756 27.0847 20.7148C27.6189 20.854 28.1654 20.5336 28.3054 19.9991L26.3708 19.4949ZM26.4511 8.5837L24.8938 11.6039L26.671 12.5187L28.2283 9.49851L26.4511 8.5837ZM25.0127 12.7007L27.7251 15.9684L29.2646 14.6895L26.5521 11.4219L25.0127 12.7007ZM27.5276 15.0769L26.3708 19.4949L28.3054 19.9991L29.4621 15.5811L27.5276 15.0769Z" fill="#FA8700"/>
<path d="M36.5804 14.0014C36.9832 13.6258 37.0046 12.992 36.6282 12.5858C36.2518 12.1796 35.6201 12.1547 35.2173 12.5304L36.5804 14.0014ZM33.4231 15.5745L32.7416 14.8389C32.4486 15.1121 32.3479 15.5356 32.4859 15.9141L33.4231 15.5745ZM34.8821 19.5784L35.756 20.0673C35.8957 19.814 35.9188 19.5117 35.8194 19.2388L34.8821 19.5784ZM31.9964 22.7357C31.73 23.2186 31.9052 23.829 32.3878 24.0989C32.8704 24.3689 33.4777 24.1963 33.7442 23.7133L31.9964 22.7357ZM35.2173 12.5304L32.7416 14.8389L34.1047 16.31L36.5804 14.0014L35.2173 12.5304ZM32.4859 15.9141L33.9448 19.9181L35.8194 19.2388L34.3604 15.2348L32.4859 15.9141ZM34.0082 19.0896L31.9964 22.7357L33.7442 23.7133L35.756 20.0673L34.0082 19.0896Z" fill="#FA8700"/>
</svg>
