<svg width="54" height="54" viewBox="0 0 54 54" fill="none" xmlns="http://www.w3.org/2000/svg">
<circle cx="27" cy="27" r="27" fill="#FA8700"/>
<path d="M20.5 19.7061H13.5C13.2238 19.7061 13 19.9168 13 20.1766V24.8825C13 25.1424 13.2239 25.3531 13.5 25.3531L17 25.8237L20.4999 25.3531C20.7761 25.3531 20.9999 25.1424 20.9999 24.8825V20.1767C21 19.9168 20.7761 19.7061 20.5 19.7061Z" fill="white"/>

<path d="M14 24.8825V20.1766C14 19.9167 14.2238 19.7061 14.4999 19.7061H13.5C13.2238 19.7061 13 19.9168 13 20.1766V24.8825C13 25.1424 13.2239 25.353 13.5 25.353H14.5C14.2238 25.353 14 25.1424 14 24.8825Z" fill="#FA8700"/>

<path d="M21.5 17.8235H12.5C12.2239 17.8235 12 18.0342 12 18.2941V20.1764C12 20.4363 12.2239 20.647 12.5 20.647H21.5C21.7761 20.647 22 20.4362 22 20.1764V18.2941C22 18.0342 21.7761 17.8235 21.5 17.8235Z" fill="white"/>

<path d="M13 20.1764V18.2941C13 18.0341 13.2239 17.8235 13.5 17.8235H12.5C12.2239 17.8235 12 18.0342 12 18.2941V20.1764C12 20.4363 12.2239 20.647 12.5 20.647H13.5C13.2238 20.647 13 20.4363 13 20.1764Z" fill="white"/>

<path d="M21.4999 29.1178C21.2906 29.1178 21.0955 28.9931 21.0256 28.7959L20.1396 26.2942H12.5C12.2239 26.2942 12 26.0834 12 25.8236C12 25.5637 12.2239 25.353 12.5 25.353H20.5C20.7152 25.353 20.9063 25.4827 20.9743 25.6748L21.9744 28.4983C22.0616 28.7448 21.9201 29.0114 21.6581 29.0936C21.6056 29.11 21.5523 29.1178 21.4999 29.1178Z" fill="#404040"/>

<path d="M20.5606 15.4135C20.2773 15.1469 19.9006 15 19.4999 15C19.0993 15 18.7226 15.1469 18.4393 15.4135C18.4393 15.4135 18.4393 15.4135 18.4393 15.4135C18.2032 15.6356 17.7967 16.0574 17.4978 16.3714C17.476 16.1305 17.2616 15.9412 17 15.9412C16.7383 15.9412 16.5239 16.1305 16.5021 16.3715C16.2033 16.0575 15.7967 15.6357 15.5607 15.4135C15.5606 15.4135 15.5607 15.4135 15.5606 15.4135C15.2773 15.1469 14.9005 15 14.4999 15C14.0993 15 13.7226 15.1469 13.4393 15.4135C13.1559 15.6801 12.9999 16.0347 12.9999 16.4118C12.9999 16.7889 13.1559 17.1434 13.4393 17.41C13.6091 17.5698 13.8848 17.7115 14.6638 17.7115C14.8543 17.7115 15.075 17.703 15.3316 17.6843C15.842 17.6469 16.3143 17.5813 16.4999 17.5539V25.8235C16.4999 26.0834 16.7238 26.294 16.9999 26.294C17.276 26.294 17.4999 26.0833 17.4999 25.8235V17.5539C17.6855 17.5814 18.1578 17.6469 18.6682 17.6843C18.9248 17.703 19.1455 17.7115 19.336 17.7115C20.1149 17.7115 20.3907 17.5697 20.5605 17.41C20.8439 17.1434 20.9999 16.7889 20.9999 16.4118C20.9999 16.0347 20.8439 15.6801 20.5606 15.4135ZM14.1237 16.7218C13.8454 16.4237 14.0794 15.9411 14.4999 15.9411C14.6334 15.9411 14.759 15.9901 14.8534 16.079H14.8534C15.0115 16.2277 15.2605 16.482 15.4965 16.7271C14.853 16.7851 14.3031 16.7874 14.1237 16.7218ZM19.8761 16.7218C19.6971 16.7871 19.1471 16.7848 18.5034 16.727C18.7393 16.4819 18.9883 16.2277 19.1464 16.0791H19.1464C19.3336 15.9028 19.6446 15.8967 19.8391 16.066C20.0353 16.2368 20.0528 16.5325 19.8761 16.7218Z" fill="#FF4343"/>

<path d="M22.0001 38.9999C24.4853 38.9999 26.5001 37.1037 26.5001 34.7646C26.5001 32.4255 24.4853 30.5293 22.0001 30.5293C19.5148 30.5293 17.5001 32.4255 17.5001 34.7646C17.5001 37.1037 19.5148 38.9999 22.0001 38.9999Z" fill="#3C3C3C"/>

<path d="M22 37.1175C23.3807 37.1175 24.5 36.0641 24.5 34.7646C24.5 33.4651 23.3807 32.4116 22 32.4116C20.6193 32.4116 19.5 33.4651 19.5 34.7646C19.5 36.0641 20.6193 37.1175 22 37.1175Z" fill="white"/>

<path d="M22 36.1766C22.8284 36.1766 23.5 35.5445 23.5 34.7648C23.5 33.9851 22.8284 33.353 22 33.353C21.1716 33.353 20.5 33.9851 20.5 34.7648C20.5 35.5445 21.1716 36.1766 22 36.1766Z" fill="#C7C9D9"/>

<path d="M35.5001 38.9999C37.9853 38.9999 40.0001 37.1037 40.0001 34.7646C40.0001 32.4255 37.9853 30.5293 35.5001 30.5293C33.0148 30.5293 31.0001 32.4255 31.0001 34.7646C31.0001 37.1037 33.0148 38.9999 35.5001 38.9999Z" fill="#3C3C3C"/>

<path d="M35.5 37.1175C36.8807 37.1175 38 36.0641 38 34.7646C38 33.4651 36.8807 32.4116 35.5 32.4116C34.1193 32.4116 33 33.4651 33 34.7646C33 36.0641 34.1193 37.1175 35.5 37.1175Z" fill="white"/>

<path d="M35.5 36.1766C36.3284 36.1766 37 35.5445 37 34.7648C37 33.9851 36.3284 33.353 35.5 33.353C34.6716 33.353 34 33.9851 34 34.7648C34 35.5445 34.6716 36.1766 35.5 36.1766Z" fill="#C7C9D9"/>

<path d="M33.1879 21.5575L30.9044 20.5985C30.6522 20.4925 30.5391 20.2141 30.6517 19.9765C30.7643 19.739 31.0601 19.6323 31.3123 19.7382L33.5958 20.6972C33.848 20.8032 33.9611 21.0816 33.8485 21.3192C33.7359 21.5568 33.4401 21.6634 33.1879 21.5575Z" fill="white"/>

<path d="M40.5886 20.5923L39.2542 20.9483C39.1068 20.9876 38.9535 20.9069 38.9116 20.768C38.8698 20.6292 38.9554 20.4847 39.1028 20.4454L40.4372 20.0895C40.5846 20.0502 40.7379 20.1309 40.7798 20.2697C40.8216 20.4086 40.736 20.553 40.5886 20.5923Z" fill="#3C3C3C"/>
<path d="M40.7674 22.1348L39.7091 22.1746C39.5922 22.179 39.4936 22.0933 39.4889 21.9831C39.4843 21.873 39.5752 21.7801 39.6921 21.7757L40.7504 21.7359C40.8673 21.7315 40.9659 21.8173 40.9706 21.9274C40.9753 22.0376 40.8843 22.1304 40.7674 22.1348Z" fill="#3C3C3C"/>

<path d="M40.7072 23.7932L39.4379 23.5172C39.2977 23.4867 39.2046 23.3781 39.23 23.2747C39.2554 23.1713 39.3897 23.1121 39.5298 23.1426L40.7991 23.4185C40.9393 23.449 41.0324 23.5576 41.007 23.661C40.9816 23.7645 40.8474 23.8236 40.7072 23.7932Z" fill="#3C3C3C"/>

<path d="M37 23.9409C38.1046 23.9409 39 23.0982 39 22.0586C39 21.019 38.1046 20.1763 37 20.1763C35.8955 20.1763 35.0001 21.019 35.0001 22.0586C35.0001 23.0982 35.8955 23.9409 37 23.9409Z" fill="#FA8700"/>

<path d="M37 20.1763H35C34.7239 20.1763 34.5001 20.387 34.5001 20.6468V23.4704C34.5001 23.7303 34.7239 23.9409 35 23.9409H37C37.2762 23.9409 37.5 23.7302 37.5 23.4704V20.6468C37.5 20.3869 37.2761 20.1763 37 20.1763Z" fill="white"/>

<path d="M27.5 25.353H24.5C23.1215 25.353 21.9999 26.4085 21.9999 27.706C21.9999 27.9659 22.2238 28.1766 22.4999 28.1766L25.9999 28.6471L28.4999 28.1766C28.7761 28.1766 28.9999 27.9658 28.9999 27.706V26.7648C29 25.9864 28.3271 25.353 27.5 25.353Z" fill="#3C3C3C"/>

<path d="M37.4868 28.539L35.4868 20.539C35.4336 20.3264 35.2321 20.1763 35.0001 20.1763H33.5001C33.2239 20.1763 33.0001 20.387 33.0001 20.6468V31.9409H29.0001V28.6468C29.0001 28.3869 28.7762 28.1763 28.5001 28.1763H20.5001C18.0187 28.1763 16.0001 30.0762 16.0001 32.4116V34.2939C16.0001 34.5538 16.2239 34.7645 16.5 34.7645H37.0001C37.2762 34.7645 37.5001 34.5537 37.5001 34.2939V28.6468C37.5001 28.6106 37.4956 28.5744 37.4868 28.539Z" fill="white"/>

<path d="M34.0001 20.6468C34.0001 20.3869 34.224 20.1763 34.5001 20.1763H33.5C33.2239 20.1763 33.0001 20.387 33.0001 20.6468V31.9409H34.0001V20.6468Z" fill="white"/>

<path d="M17 34.2941V32.4118C17 30.0764 19.0187 28.1765 21.5 28.1765H20.5C18.0187 28.1765 16 30.0764 16 32.4118V34.2941C16 34.554 16.2239 34.7647 16.5 34.7647H17.5C17.2239 34.7647 17 34.554 17 34.2941Z" fill="white"/>

<path d="M23 27.706C23 26.4086 24.1214 25.353 25.5 25.353H24.5C23.1215 25.353 21.9999 26.4085 21.9999 27.706C21.9999 27.9659 22.2238 28.1766 22.4999 28.1766H23.4999C23.2238 28.1766 23 27.9659 23 27.706Z" fill="white"/>

<path d="M23.8282 30.5295H21.3282C21.052 30.5295 20.8282 30.3188 20.8282 30.0589C20.8282 29.799 21.0521 29.5884 21.3282 29.5884H23.8282C24.1043 29.5884 24.3282 29.7991 24.3282 30.0589C24.3282 30.3188 24.1043 30.5295 23.8282 30.5295Z" fill="#FA8700"/>

<path d="M25.0001 31.9411H22.5C22.2239 31.9411 22.0001 31.7304 22.0001 31.4706C22.0001 31.2107 22.2239 31 22.5 31H25.0001C25.2762 31 25.5 31.2107 25.5 31.4706C25.5 31.7304 25.2762 31.9411 25.0001 31.9411Z" fill="#FA8700"/>

<path d="M23.8282 33.353H21.3282C21.052 33.353 20.8282 33.1423 20.8282 32.8824C20.8282 32.6226 21.0521 32.4119 21.3282 32.4119H23.8282C24.1043 32.4119 24.3282 32.6226 24.3282 32.8824C24.3282 33.1423 24.1043 33.353 23.8282 33.353Z" fill="#FA8700"/>

<path d="M35.5 28.1765C31.9159 28.1765 29 30.9208 29 34.2941C29 34.554 29.2239 34.7647 29.5 34.7647H41.5C41.7761 34.7647 42 34.554 42 34.2941C42 30.9209 39.0841 28.1765 35.5 28.1765Z" fill="white"/>

<path d="M30 34.2941C30 31.0792 32.6486 28.4355 36 28.1944C35.8349 28.1826 35.6681 28.1765 35.5 28.1765C31.9159 28.1765 29 30.9208 29 34.2941C29 34.554 29.2239 34.7647 29.5 34.7647H30.5C30.2238 34.7647 30 34.554 30 34.2941Z" fill="white"/>

<path d="M37.0235 31.4962C37.5758 31.4962 38.0235 31.0748 38.0235 30.555C38.0235 30.0352 37.5758 29.6138 37.0235 29.6138C36.4712 29.6138 36.0234 30.0352 36.0234 30.555C36.0234 31.0748 36.4712 31.4962 37.0235 31.4962Z" fill="#FA8700"/>

<path d="M38.5235 32.4372C38.7996 32.4372 39.0235 32.2266 39.0235 31.9667C39.0235 31.7068 38.7996 31.4961 38.5235 31.4961C38.2473 31.4961 38.0235 31.7068 38.0235 31.9667C38.0235 32.2266 38.2473 32.4372 38.5235 32.4372Z" fill="#FA8700"/>
</svg>
