<svg width="20" height="20" viewBox="0 0 20 20" fill="none" xmlns="http://www.w3.org/2000/svg">
<path fill-rule="evenodd" clip-rule="evenodd" d="M1 5C1 3.89543 1.89543 3 3 3H17C18.1046 3 19 3.89543 19 5V15C19 16.1046 18.1046 17 17 17H3C1.89543 17 1 16.1046 1 15V5ZM2.07692 7.4765C2.28934 6.9667 2.87481 6.72562 3.38462 6.93804L10 9.69445L16.6154 6.93804C17.1252 6.72562 17.7107 6.9667 17.9231 7.4765C18.1355 7.9863 17.8944 8.57177 17.3846 8.78419L10.3846 11.7009L10 11.8611L9.61539 11.7009L2.61538 8.78419C2.10558 8.57177 1.86451 7.9863 2.07692 7.4765ZM10 7.86111C10.5523 7.86111 11 7.42583 11 6.88889C11 6.35195 10.5523 5.91667 10 5.91667C9.44771 5.91667 9 6.35195 9 6.88889C9 7.42583 9.44771 7.86111 10 7.86111Z" fill="white"/>
</svg>
