<svg width="20" height="20" viewBox="0 0 20 20" fill="none" xmlns="http://www.w3.org/2000/svg">
<path d="M10 1C5.02991 1 1 5.02991 1 10C1 14.9701 5.02991 19 10 19C14.9701 19 19 14.9701 19 10C19 5.02991 14.9701 1 10 1ZM14.3252 7.78415C14.3312 7.87857 14.3312 7.97701 14.3312 8.07344C14.3312 11.0225 12.0853 14.4196 7.98103 14.4196C6.7154 14.4196 5.54219 14.052 4.55379 13.4192C4.7346 13.4393 4.90737 13.4473 5.09219 13.4473C6.13683 13.4473 7.0971 13.0938 7.8625 12.4951C6.88214 12.475 6.05848 11.8321 5.77723 10.9482C6.12076 10.9984 6.43013 10.9984 6.78371 10.908C6.27891 10.8055 5.8252 10.5313 5.49963 10.1322C5.17407 9.73298 4.99674 9.23341 4.99777 8.7183V8.69018C5.29308 8.85692 5.64062 8.95937 6.00424 8.97344C5.69857 8.76972 5.44788 8.49373 5.27442 8.16993C5.10096 7.84613 5.01007 7.48452 5.00982 7.11719C5.00982 6.70134 5.1183 6.32165 5.31317 5.99219C5.87347 6.68193 6.57263 7.24604 7.36522 7.64788C8.15781 8.04971 9.02609 8.28026 9.91362 8.32455C9.59821 6.80781 10.7312 5.58036 12.0933 5.58036C12.7362 5.58036 13.3147 5.84955 13.7225 6.28348C14.2268 6.18906 14.7089 6.00022 15.1388 5.7471C14.9721 6.26339 14.6225 6.69933 14.1585 6.97455C14.6085 6.92634 15.0424 6.80179 15.4442 6.62701C15.1408 7.07299 14.7612 7.46875 14.3252 7.78415Z" fill="white"/>
</svg>
