<svg width="20" height="20" viewBox="0 0 20 20" fill="none" xmlns="http://www.w3.org/2000/svg">
<path d="M10 1C5.03752 1 1.00006 5.03748 1.00006 10C1.00006 11.5496 1.40036 13.0733 2.15949 14.4178L1.01454 18.503C0.976971 18.6373 1.01336 18.7813 1.11041 18.881C1.18514 18.9581 1.28688 19 1.39136 19C1.42267 19 1.45436 18.9961 1.48527 18.9887L5.74891 17.9325C7.05078 18.6314 8.51699 19 10 19C14.9625 19 19 14.9625 19 10C19 5.03748 14.9625 1 10 1ZM14.5274 13.1758C14.3349 13.7088 13.4114 14.1952 12.9677 14.2605C12.5693 14.3188 12.0653 14.3439 11.512 14.1701C11.1767 14.0645 10.7462 13.9244 10.1949 13.6892C7.87721 12.7008 6.36365 10.3964 6.24782 10.2442C6.13239 10.092 5.30439 9.00726 5.30439 7.88461C5.30439 6.76196 5.90113 6.20983 6.11322 5.9813C6.3253 5.75278 6.57534 5.69565 6.72952 5.69565C6.88369 5.69565 7.03747 5.69761 7.17247 5.70387C7.31452 5.71091 7.50508 5.65026 7.69252 6.09557C7.88504 6.55261 8.34717 7.67526 8.4043 7.78991C8.46221 7.90417 8.50056 8.03761 8.42386 8.18983C8.34717 8.34204 8.30882 8.43713 8.19299 8.57057C8.07717 8.704 7.95038 8.86796 7.8463 8.97048C7.73047 9.08435 7.61034 9.20761 7.74495 9.43613C7.87956 9.66465 8.34325 10.4117 9.03038 11.0166C9.91277 11.7937 10.6574 12.0348 10.8883 12.149C11.1192 12.2633 11.2542 12.2441 11.3888 12.0919C11.5234 11.9393 11.9663 11.4255 12.1201 11.1974C12.2739 10.9693 12.4281 11.0068 12.6402 11.0831C12.8522 11.159 13.9882 11.7108 14.2191 11.825C14.4499 11.9393 14.6041 11.9964 14.662 12.0915C14.7199 12.1862 14.7199 12.6433 14.5274 13.1758Z" fill="white"/>
</svg>
