<svg width="167" height="167" viewBox="0 0 167 167" fill="none" xmlns="http://www.w3.org/2000/svg">
<path fill-rule="evenodd" clip-rule="evenodd" d="M83.5 0C129.622 0 167 37.378 167 83.5C167 129.622 129.622 167 83.5 167C37.378 167 0 129.622 0 83.5C0 37.378 37.378 0 83.5 0Z" fill="#029835"/>
<path fill-rule="evenodd" clip-rule="evenodd" d="M49.3119 51.9013H119.152V103.427H49.3119V51.9013ZM96.1845 95.1337C95.4339 95.584 94.7959 95.2838 94.1204 94.6083L83.2373 83.8377L72.2416 94.7209C71.566 95.3964 70.853 95.7341 70.1025 95.1712C69.9899 95.0962 68.7139 93.7827 68.6389 93.7076C68.1885 92.9571 68.4887 92.3191 69.1643 91.6436L80.0474 80.6854L76.2571 76.9326C72.3917 79.4845 68.3386 77.2328 65.7492 74.0054C64.6234 72.5793 63.1598 69.6897 62.6719 67.0252C62.3717 65.4865 62.4092 64.0604 62.7469 62.822C63.2348 61.1708 63.7227 60.6829 65.3739 60.195C66.5748 59.8573 68.0009 59.8198 69.5395 60.12C72.2416 60.6454 75.1312 62.0715 76.5198 63.1973C79.7472 65.7867 81.9989 69.8398 79.4469 73.7052L83.1998 77.4955L86.6899 73.9679C86.6148 72.3166 86.6148 70.4402 86.8025 69.6146C86.9526 68.9391 87.3654 68.5263 88.3411 67.6256L98.2485 58.844C99.9748 57.0427 101.251 58.2811 99.3744 60.0074L92.8069 66.1995C92.0564 66.9126 91.6061 67.5506 92.4317 68.4137C93.2948 69.2768 93.8202 68.789 94.4957 68.1135L101.326 61.2834C101.851 60.6829 102.564 60.6079 102.864 60.9831C103.24 61.2834 103.127 61.9964 102.564 62.5218L95.7341 69.3519C95.0586 70.0274 94.5708 70.5528 95.4339 71.4159C96.2595 72.2791 96.935 71.7912 97.6481 71.0407L103.84 64.4733C105.567 62.6344 106.842 63.8728 105.004 65.5991L96.222 75.5065C95.3213 76.4822 94.9085 76.895 94.233 77.0452C93.4449 77.2328 91.5685 77.2703 89.8798 77.1577L86.3521 80.6479L97.1227 91.4935C97.7982 92.169 98.1359 92.882 97.573 93.6326C97.498 93.7452 96.1845 95.0211 96.1094 95.0962L96.1845 95.1337ZM52.3141 50.0625C51.8263 50.0625 51.6762 49.4245 52.3141 48.8991L70.2526 32.1991H84.213H98.1735L116.112 48.8991C116.75 49.4245 116.6 50.0625 116.112 50.0625H84.213H52.3141ZM52.0139 39.9674L52.164 47.3604L65.7867 34.6384H57.7182C54.2281 34.5634 51.7512 36.5148 52.0139 39.9674ZM116.375 39.9674L116.224 47.3604L102.602 34.6384H110.67C114.16 34.5634 116.637 36.5148 116.375 39.9674ZM77.1577 38.0535H81.9989H83.1998H91.1932C91.9438 38.0535 92.5443 38.6539 92.5443 39.4045V41.431C92.5443 41.5061 92.5443 41.6186 92.5067 41.6937H84.5132H80.6478H75.8067C75.8067 41.6186 75.7692 41.5061 75.7692 41.431V39.4045C75.7692 38.6539 76.3696 38.0535 77.1202 38.0535H77.1577Z" fill="white"/>
<path d="M42.5569 126.732H47.7733H48.111V127.07V135.289V135.514L47.8858 135.589C47.6982 135.664 47.5106 135.702 47.3229 135.777C47.1353 135.852 46.9101 135.889 46.6474 135.964C46.1595 136.077 45.6342 136.189 45.0337 136.264C44.7335 136.302 44.4333 136.34 44.133 136.377C43.8328 136.415 43.5326 136.415 43.2324 136.415C41.9939 136.415 40.9056 136.264 39.9299 135.927C39.442 135.777 38.9917 135.551 38.5789 135.289C38.1661 135.026 37.7908 134.726 37.4155 134.388C37.1903 134.163 36.9652 133.9 36.74 133.6C36.5524 133.337 36.3647 133.037 36.1771 132.699C36.027 132.362 35.8769 132.024 35.7267 131.686C35.6142 131.348 35.5016 130.973 35.4265 130.56C35.3515 130.185 35.2764 129.772 35.2389 129.359C35.2013 128.947 35.1638 128.534 35.1638 128.083C35.1638 127.52 35.2013 126.995 35.2764 126.507C35.3515 126.019 35.464 125.531 35.5766 125.081C35.7267 124.631 35.8769 124.218 36.0645 123.805C36.2521 123.392 36.4773 123.017 36.74 122.679C37.0027 122.342 37.2654 122.004 37.6031 121.741C37.9034 121.441 38.2411 121.178 38.5789 120.953C38.9166 120.728 39.2919 120.503 39.7047 120.353C40.08 120.165 40.4928 120.015 40.9056 119.902C41.3184 119.79 41.7688 119.715 42.2191 119.64C42.6694 119.564 43.1198 119.564 43.6076 119.564C43.8703 119.564 44.133 119.564 44.3957 119.602C44.6584 119.602 44.9211 119.64 45.1463 119.677C45.3715 119.715 45.5966 119.752 45.8218 119.79C46.047 119.827 46.2346 119.865 46.4222 119.94C46.6099 119.977 46.7975 120.052 46.9476 120.09C47.1353 120.165 47.2854 120.202 47.398 120.278L47.6231 120.39L47.5481 120.653L46.9101 123.167L46.7975 123.542L46.4222 123.392C46.3097 123.355 46.1971 123.28 46.047 123.242C45.9344 123.205 45.7843 123.167 45.6717 123.13C45.5216 123.092 45.409 123.055 45.2213 123.017C45.0712 122.98 44.8836 122.942 44.7335 122.942C44.5458 122.904 44.3582 122.904 44.1706 122.904C43.9829 122.904 43.7578 122.904 43.5326 122.904C43.1948 122.904 42.8571 122.942 42.5569 122.98C42.2566 123.017 41.9564 123.092 41.6562 123.205C41.3935 123.317 41.1308 123.43 40.8681 123.58C40.6429 123.73 40.4178 123.918 40.1926 124.143C40.0049 124.368 39.8173 124.593 39.6297 124.856C39.4795 125.119 39.3294 125.419 39.2169 125.757C39.1043 126.094 39.0292 126.432 38.9542 126.845C38.8791 127.258 38.8791 127.671 38.8416 128.121C38.8416 128.571 38.8791 128.984 38.9166 129.359C38.9542 129.735 39.0667 130.11 39.1793 130.41C39.2919 130.748 39.4045 131.048 39.5546 131.311C39.7047 131.573 39.8548 131.799 40.08 132.024C40.2676 132.249 40.4928 132.437 40.6804 132.587C40.9056 132.737 41.1308 132.887 41.3935 133C41.6562 133.112 41.9189 133.187 42.2191 133.225C42.4818 133.262 42.782 133.3 43.1198 133.3C43.3074 133.3 43.4575 133.3 43.6076 133.3C43.7578 133.3 43.9079 133.262 44.0204 133.262C44.133 133.225 44.2456 133.225 44.3207 133.187V129.885H42.3692H42.0315V129.547V127.145V126.807H42.3692L42.5569 126.732ZM57.0052 123.88C57.0802 123.88 57.1178 123.918 57.1553 123.918L57.418 123.955V124.218V127.145V127.558L57.0427 127.483C57.0052 127.483 56.9301 127.483 56.8926 127.445C56.8551 127.445 56.78 127.445 56.7425 127.445C56.6674 127.445 56.6299 127.445 56.5548 127.445C56.5173 127.445 56.4422 127.445 56.3297 127.445C56.1045 127.445 55.9169 127.483 55.7667 127.52C55.5791 127.558 55.429 127.633 55.2789 127.708C55.1288 127.783 54.9786 127.896 54.8661 128.046C54.7535 128.196 54.6409 128.346 54.5283 128.534C54.4533 128.721 54.3782 128.947 54.3031 129.172C54.2656 129.434 54.2281 129.697 54.2281 129.997V135.927V136.264H53.8903H50.8506H50.5128V135.927V128.008C50.5128 127.596 50.5128 127.258 50.5128 126.995C50.5128 126.695 50.5128 126.357 50.5128 126.057C50.5128 125.757 50.5128 125.494 50.4753 125.194C50.4753 124.931 50.4378 124.668 50.4378 124.406V124.068H50.7755H53.4025H53.7027L53.7402 124.368L53.8153 125.306C53.9279 125.156 54.0029 125.044 54.1155 124.893C54.2656 124.706 54.4533 124.556 54.6409 124.406C54.8285 124.256 55.0162 124.143 55.2413 124.068C55.429 123.955 55.6542 123.918 55.8418 123.843C56.067 123.805 56.2546 123.768 56.4798 123.768C56.5173 123.768 56.5924 123.768 56.7049 123.768C56.78 123.768 56.8551 123.768 56.8926 123.768C56.9676 123.768 57.0052 123.768 57.0802 123.805L57.0052 123.88ZM68.1885 128.008C68.2261 128.309 68.2261 128.646 68.2261 128.984V133.187C68.2261 133.412 68.2261 133.6 68.2261 133.675C68.2261 133.825 68.2261 134.013 68.2261 134.163C68.2261 134.313 68.2261 134.463 68.2636 134.651C68.2636 134.801 68.2636 134.951 68.3011 135.101C68.3011 135.251 68.3386 135.364 68.3386 135.514C68.3386 135.627 68.3762 135.777 68.3762 135.889L68.4512 136.264H68.076H65.3364H65.0737L65.0362 136.002L64.9611 135.439C64.811 135.589 64.6609 135.702 64.5108 135.814C64.3231 135.927 64.173 136.039 63.9854 136.114C63.7978 136.189 63.6101 136.264 63.3849 136.34C63.1598 136.415 62.9721 136.452 62.747 136.49C62.5218 136.527 62.2966 136.527 62.0715 136.527C61.5085 136.527 60.9831 136.415 60.4953 136.227C60.2701 136.114 60.0449 136.002 59.8573 135.889C59.6697 135.739 59.482 135.589 59.2944 135.401C59.1443 135.214 58.9942 135.026 58.844 134.838C58.7315 134.651 58.6189 134.426 58.5438 134.2C58.4688 133.975 58.3937 133.75 58.3562 133.487C58.3186 133.262 58.2811 133 58.2811 132.737C58.2811 132.324 58.3186 131.986 58.3937 131.611C58.4688 131.273 58.6189 130.936 58.769 130.635C58.9191 130.335 59.1443 130.072 59.3694 129.81C59.5946 129.584 59.8573 129.359 60.1575 129.172C60.4578 128.984 60.7955 128.834 61.1333 128.684C61.471 128.534 61.8463 128.421 62.2591 128.346C62.6719 128.271 63.0847 128.196 63.4975 128.158C63.8353 128.121 64.173 128.121 64.5108 128.083C64.5108 128.008 64.5108 127.971 64.4733 127.933C64.4357 127.783 64.3982 127.633 64.3607 127.52C64.3231 127.408 64.2481 127.295 64.173 127.22C64.098 127.145 63.9854 127.033 63.8728 126.995C63.7602 126.92 63.6101 126.882 63.4225 126.845C63.2348 126.807 63.0097 126.77 62.747 126.77C62.4843 126.77 62.2591 126.807 61.9964 126.807C61.7712 126.845 61.5085 126.882 61.2834 126.958C61.0582 127.033 60.833 127.108 60.6454 127.183C60.4578 127.258 60.2701 127.37 60.0825 127.483L59.7072 127.708L59.5946 127.295L59.0317 125.306L58.9566 125.081L59.1818 124.969C59.3319 124.893 59.482 124.818 59.6321 124.706C59.8198 124.631 60.0074 124.556 60.1951 124.481C60.4202 124.406 60.6079 124.331 60.8706 124.256C61.0957 124.18 61.3584 124.143 61.6211 124.105C61.8838 124.068 62.1465 124.03 62.4467 123.993C62.747 123.955 63.0097 123.955 63.3474 123.955C63.7978 123.955 64.2481 123.993 64.6234 124.068C65.0362 124.143 65.3739 124.256 65.7117 124.368C66.0494 124.518 66.3121 124.668 66.5748 124.856C66.8375 125.044 67.0627 125.269 67.2503 125.531C67.438 125.757 67.5881 126.019 67.7382 126.32C67.8508 126.582 67.9634 126.882 68.0384 127.183C68.1135 127.483 68.151 127.783 68.1885 128.121V128.008ZM64.5483 132.399C64.5858 132.249 64.5858 132.136 64.5858 131.949V130.635C64.5108 130.635 64.3982 130.635 64.3231 130.635C64.1355 130.635 63.9103 130.673 63.7227 130.71C63.5351 130.748 63.3849 130.785 63.1973 130.823C63.0472 130.86 62.8595 130.936 62.747 131.011C62.5969 131.086 62.4843 131.161 62.3717 131.236C62.2591 131.311 62.184 131.423 62.109 131.536C62.0339 131.649 61.9964 131.761 61.9213 131.911C61.8838 132.061 61.8463 132.211 61.8463 132.399C61.8463 132.549 61.8463 132.699 61.8838 132.812C61.9213 132.924 61.9589 133.037 61.9964 133.112C62.0339 133.187 62.109 133.262 62.184 133.337C62.2591 133.412 62.3342 133.45 62.4092 133.487C62.5969 133.562 62.7845 133.6 62.9721 133.6C63.0472 133.6 63.1222 133.6 63.1973 133.562C63.2724 133.562 63.3849 133.525 63.46 133.487C63.5351 133.45 63.6476 133.412 63.7227 133.375C63.7978 133.337 63.9103 133.262 63.9854 133.187C64.0604 133.112 64.1355 133.075 64.2106 132.962C64.2856 132.887 64.3231 132.774 64.3982 132.662C64.4357 132.549 64.4733 132.437 64.5108 132.324L64.5483 132.399ZM74.5308 119.302V124.931C74.5683 124.893 74.5683 124.893 74.6058 124.856C74.831 124.631 75.0937 124.443 75.3939 124.293C75.6942 124.143 75.9944 124.03 76.3697 123.955C76.7074 123.88 77.0827 123.843 77.458 123.843C77.7957 123.843 78.1335 123.88 78.4337 123.955C78.7339 124.03 79.0342 124.143 79.3344 124.293C79.5971 124.443 79.8598 124.631 80.1225 124.856C80.3476 125.081 80.5728 125.306 80.798 125.569C80.9856 125.832 81.1733 126.132 81.3234 126.47C81.4735 126.807 81.5861 127.145 81.6987 127.52C81.8112 127.896 81.8863 128.271 81.9238 128.684C81.9613 129.097 81.9989 129.509 81.9989 129.96C81.9989 130.41 81.9613 130.785 81.9238 131.198C81.8863 131.573 81.8112 131.949 81.7362 132.287C81.6611 132.624 81.5485 132.962 81.3984 133.262C81.2858 133.562 81.1357 133.863 80.9856 134.125C80.8355 134.388 80.6479 134.613 80.4602 134.838C80.2726 135.064 80.0849 135.251 79.8598 135.439C79.6346 135.627 79.4094 135.777 79.1843 135.889C78.9591 136.039 78.7339 136.114 78.4712 136.227C78.2085 136.302 77.9834 136.377 77.7207 136.415C77.458 136.452 77.1953 136.49 76.9701 136.49C76.6324 136.49 76.2946 136.452 75.9569 136.377C75.6191 136.302 75.3189 136.189 75.0562 136.039C74.756 135.889 74.4933 135.664 74.2306 135.401C74.1555 135.326 74.118 135.251 74.0429 135.214L73.9679 135.964L73.9303 136.264H73.6301H71.0407H70.7029V135.927C70.7029 135.777 70.7029 135.627 70.7404 135.476C70.7404 135.326 70.7404 135.139 70.778 134.989V134.426V133.825C70.778 133.487 70.778 133.075 70.778 132.624V119.339V119.002H71.1157H74.1555H74.4933V119.339L74.5308 119.302ZM74.5683 128.571C74.5308 128.721 74.5308 128.871 74.5308 129.059V131.311C74.5308 131.498 74.5683 131.686 74.6058 131.874C74.6434 132.061 74.7184 132.211 74.7935 132.362C74.8685 132.512 74.9436 132.662 75.0562 132.774C75.1688 132.887 75.2813 133 75.3939 133.075C75.5065 133.15 75.6566 133.225 75.8067 133.262C75.9569 133.3 76.107 133.337 76.2946 133.337C76.5198 133.337 76.7074 133.3 76.8575 133.225C77.0452 133.15 77.1953 133.075 77.3454 132.962C77.4955 132.849 77.6081 132.699 77.7207 132.512C77.8333 132.324 77.9458 132.099 78.0209 131.874C78.096 131.611 78.171 131.348 78.2085 131.048C78.2461 130.748 78.2836 130.41 78.2836 130.072C78.2836 129.847 78.2836 129.622 78.2461 129.397C78.2085 129.172 78.171 128.984 78.1335 128.759C78.096 128.571 78.0209 128.384 77.9834 128.196C77.9083 128.046 77.8333 127.858 77.7582 127.746C77.6831 127.596 77.5706 127.483 77.4955 127.37C77.3829 127.258 77.2703 127.183 77.1578 127.108C77.0452 127.033 76.8951 126.995 76.7825 126.958C76.6324 126.92 76.4822 126.882 76.3321 126.882C76.2195 126.882 76.107 126.882 76.0319 126.92C75.9193 126.958 75.8443 126.995 75.7317 127.033C75.6191 127.07 75.544 127.145 75.4315 127.22C75.3564 127.295 75.2438 127.37 75.1688 127.483C75.0937 127.558 75.0187 127.671 74.9436 127.783C74.8685 127.896 74.831 128.008 74.756 128.158C74.7184 128.271 74.6809 128.421 74.6434 128.571H74.5683ZM87.8908 129.584V135.889V136.227H87.553H84.5133H84.1755V135.889V120.015V119.677H84.5133H92.9946H93.3324V120.015V122.567V122.904H92.9946H87.8908V126.432H92.6193H92.9571V126.77V129.284V129.622H92.6193H87.8908V129.584ZM98.4362 124.218C99.1492 123.918 99.8998 123.805 100.725 123.805C101.138 123.805 101.551 123.843 101.926 123.918C102.302 123.993 102.677 124.105 103.015 124.256C103.352 124.406 103.69 124.593 103.953 124.818C104.253 125.044 104.516 125.269 104.778 125.569C105.041 125.832 105.229 126.169 105.416 126.47C105.604 126.807 105.754 127.145 105.867 127.52C105.979 127.896 106.092 128.309 106.167 128.721C106.242 129.134 106.28 129.584 106.28 130.035C106.28 130.485 106.242 130.898 106.204 131.311C106.167 131.724 106.054 132.099 105.942 132.437C105.829 132.774 105.717 133.112 105.567 133.412C105.416 133.713 105.229 134.013 105.041 134.238C104.853 134.501 104.666 134.726 104.441 134.913C104.216 135.139 103.99 135.326 103.728 135.476C103.502 135.627 103.24 135.777 102.977 135.889C102.714 136.002 102.452 136.114 102.189 136.189C101.926 136.264 101.664 136.302 101.363 136.34C101.101 136.377 100.8 136.377 100.538 136.377C100.125 136.377 99.7497 136.34 99.3744 136.264C98.9991 136.189 98.6238 136.077 98.2861 135.964C97.9483 135.814 97.6106 135.664 97.3103 135.439C97.0101 135.214 96.7474 134.989 96.4847 134.726C96.222 134.463 95.9969 134.163 95.8092 133.825C95.6216 133.487 95.4339 133.15 95.3213 132.737C95.1712 132.362 95.0962 131.949 95.0211 131.498C94.9461 131.086 94.9085 130.598 94.9085 130.11C94.9085 129.622 94.9461 129.134 95.0211 128.684C95.0962 128.233 95.2088 127.821 95.3589 127.408C95.509 127.033 95.6591 126.657 95.8843 126.32C96.0719 125.982 96.3346 125.682 96.5973 125.381C96.86 125.119 97.1602 124.856 97.4604 124.668C97.7607 124.443 98.0984 124.293 98.4362 124.143V124.218ZM102.414 131.461C102.489 131.048 102.564 130.56 102.564 130.072C102.564 129.847 102.564 129.622 102.527 129.434C102.489 129.209 102.489 129.022 102.452 128.796C102.414 128.609 102.377 128.384 102.302 128.196C102.227 128.008 102.151 127.821 102.076 127.671C102.001 127.52 101.926 127.37 101.814 127.258C101.701 127.145 101.626 127.033 101.476 126.958C101.363 126.882 101.251 126.807 101.101 126.77C100.951 126.732 100.8 126.695 100.65 126.695C100.5 126.695 100.388 126.695 100.238 126.732C100.125 126.77 100.012 126.807 99.8998 126.845C99.7872 126.92 99.7121 126.995 99.5995 127.07C99.5245 127.145 99.4119 127.258 99.3369 127.333C99.2618 127.445 99.1867 127.558 99.1117 127.708C99.0366 127.821 98.9991 127.971 98.924 128.121C98.8865 128.271 98.8115 128.421 98.7739 128.571C98.7364 128.721 98.6989 128.871 98.6989 129.059C98.6613 129.247 98.6613 129.397 98.6613 129.584C98.6613 129.735 98.6613 129.922 98.6613 130.11C98.6613 130.373 98.6613 130.598 98.6989 130.823C98.7364 131.048 98.7739 131.273 98.8115 131.498C98.849 131.724 98.924 131.911 98.9991 132.099C99.0742 132.287 99.1492 132.437 99.2243 132.587C99.2993 132.737 99.4119 132.887 99.5245 133C99.6371 133.112 99.7497 133.225 99.8622 133.3C99.9748 133.375 100.087 133.45 100.238 133.487C100.388 133.525 100.5 133.562 100.65 133.562C100.8 133.562 100.951 133.525 101.063 133.487C101.176 133.45 101.326 133.375 101.438 133.3C101.551 133.225 101.664 133.112 101.776 133C101.889 132.887 101.964 132.737 102.039 132.587C102.114 132.437 102.189 132.249 102.264 132.061C102.339 131.874 102.377 131.686 102.414 131.461ZM111.196 124.218C111.909 123.918 112.659 123.805 113.485 123.805C113.898 123.805 114.311 123.843 114.686 123.918C115.061 123.993 115.436 124.105 115.774 124.256C116.112 124.406 116.45 124.593 116.712 124.818C117.013 125.044 117.275 125.269 117.538 125.569C117.801 125.832 117.988 126.169 118.176 126.47C118.364 126.807 118.514 127.145 118.626 127.52C118.739 127.896 118.851 128.309 118.927 128.721C119.002 129.134 119.039 129.584 119.039 130.035C119.039 130.485 119.002 130.898 118.964 131.311C118.927 131.724 118.814 132.099 118.701 132.437C118.589 132.774 118.476 133.112 118.326 133.412C118.176 133.713 117.988 134.013 117.801 134.238C117.613 134.501 117.425 134.726 117.2 134.913C116.975 135.139 116.75 135.326 116.487 135.476C116.262 135.627 115.999 135.777 115.737 135.889C115.474 136.002 115.211 136.114 114.949 136.189C114.686 136.264 114.423 136.302 114.123 136.34C113.86 136.377 113.56 136.377 113.297 136.377C112.884 136.377 112.509 136.34 112.134 136.264C111.759 136.189 111.383 136.077 111.046 135.964C110.708 135.814 110.37 135.664 110.07 135.439C109.77 135.214 109.507 134.989 109.244 134.726C108.982 134.463 108.756 134.163 108.569 133.825C108.381 133.487 108.193 133.15 108.081 132.737C107.931 132.362 107.856 131.949 107.781 131.498C107.706 131.086 107.668 130.598 107.668 130.11C107.668 129.622 107.706 129.134 107.781 128.684C107.856 128.233 107.968 127.821 108.118 127.408C108.269 127.033 108.419 126.657 108.644 126.32C108.831 125.982 109.094 125.682 109.357 125.381C109.62 125.119 109.92 124.856 110.22 124.668C110.52 124.443 110.858 124.293 111.196 124.143V124.218ZM115.174 131.461C115.249 131.048 115.324 130.56 115.324 130.072C115.324 129.847 115.324 129.622 115.286 129.434C115.249 129.209 115.249 129.022 115.211 128.796C115.174 128.609 115.136 128.384 115.061 128.196C114.986 128.008 114.911 127.821 114.836 127.671C114.761 127.52 114.686 127.37 114.573 127.258C114.461 127.145 114.386 127.033 114.236 126.958C114.123 126.882 114.01 126.807 113.86 126.77C113.71 126.732 113.56 126.695 113.41 126.695C113.26 126.695 113.147 126.695 112.997 126.732C112.884 126.77 112.772 126.807 112.659 126.845C112.547 126.92 112.472 126.995 112.359 127.07C112.284 127.145 112.171 127.258 112.096 127.333C112.021 127.445 111.946 127.558 111.871 127.708C111.796 127.821 111.759 127.971 111.684 128.121C111.646 128.271 111.571 128.421 111.533 128.571C111.496 128.721 111.458 128.871 111.458 129.059C111.421 129.247 111.421 129.397 111.421 129.584C111.421 129.735 111.421 129.922 111.421 130.11C111.421 130.373 111.421 130.598 111.458 130.823C111.496 131.048 111.533 131.273 111.571 131.498C111.609 131.724 111.684 131.911 111.759 132.099C111.834 132.287 111.909 132.437 111.984 132.587C112.059 132.737 112.171 132.887 112.284 133C112.397 133.112 112.509 133.225 112.622 133.3C112.734 133.375 112.847 133.45 112.997 133.487C113.147 133.525 113.26 133.562 113.41 133.562C113.56 133.562 113.71 133.525 113.823 133.487C113.935 133.45 114.085 133.375 114.198 133.3C114.311 133.225 114.423 133.112 114.536 133C114.648 132.887 114.723 132.737 114.798 132.587C114.873 132.437 114.949 132.249 115.024 132.061C115.099 131.874 115.136 131.686 115.174 131.461ZM128.309 118.927H131.348H131.686V119.264V132.587C131.686 132.849 131.686 133.075 131.686 133.187C131.686 133.375 131.686 133.562 131.686 133.788C131.686 133.975 131.686 134.163 131.686 134.351C131.686 134.538 131.686 134.726 131.686 134.913C131.686 135.251 131.724 135.589 131.724 135.889V136.227H131.386H128.721H128.421L128.384 135.927L128.309 135.139C128.196 135.289 128.046 135.401 127.933 135.514C127.746 135.664 127.558 135.814 127.37 135.927C127.183 136.039 126.958 136.152 126.732 136.227C126.507 136.302 126.282 136.377 126.019 136.415C125.794 136.452 125.531 136.49 125.269 136.49C124.931 136.49 124.593 136.452 124.256 136.377C123.918 136.302 123.618 136.189 123.317 136.039C123.017 135.889 122.754 135.702 122.492 135.476C122.229 135.251 122.004 135.026 121.779 134.726C121.553 134.463 121.366 134.163 121.216 133.825C121.066 133.487 120.916 133.15 120.803 132.774C120.69 132.399 120.615 132.024 120.54 131.573C120.465 131.161 120.465 130.748 120.465 130.26C120.465 129.735 120.503 129.284 120.578 128.834C120.653 128.384 120.728 127.971 120.878 127.558C120.991 127.183 121.141 126.807 121.328 126.47C121.516 126.132 121.704 125.832 121.929 125.531C122.154 125.269 122.417 125.006 122.679 124.818C122.942 124.593 123.242 124.443 123.542 124.293C123.843 124.143 124.143 124.03 124.481 123.955C124.818 123.88 125.119 123.843 125.456 123.843C125.682 123.843 125.944 123.843 126.132 123.88C126.357 123.918 126.545 123.955 126.77 124.03C126.958 124.105 127.145 124.18 127.333 124.256C127.52 124.331 127.671 124.443 127.821 124.556C127.858 124.593 127.896 124.631 127.933 124.668V119.302V118.964H128.271L128.309 118.927ZM127.933 131.724C127.971 131.536 127.971 131.348 127.971 131.161V129.059C127.971 128.871 127.971 128.684 127.933 128.534C127.896 128.384 127.858 128.233 127.821 128.083C127.783 127.933 127.708 127.821 127.633 127.708C127.558 127.596 127.483 127.483 127.408 127.408C127.333 127.333 127.258 127.258 127.145 127.183C127.07 127.108 126.958 127.07 126.882 127.033C126.695 126.958 126.47 126.92 126.282 126.92C126.132 126.92 125.944 126.958 125.832 126.995C125.682 127.033 125.569 127.108 125.456 127.183C125.344 127.258 125.231 127.37 125.119 127.445C125.006 127.558 124.931 127.671 124.818 127.821C124.743 127.971 124.668 128.121 124.593 128.309C124.518 128.496 124.481 128.684 124.406 128.871C124.368 129.059 124.331 129.284 124.293 129.509C124.256 129.735 124.256 129.96 124.256 130.222C124.256 130.56 124.293 130.86 124.331 131.161C124.368 131.461 124.443 131.724 124.518 131.949C124.593 132.174 124.706 132.399 124.818 132.549C124.931 132.737 125.044 132.887 125.194 133C125.344 133.112 125.494 133.225 125.644 133.262C125.832 133.337 126.019 133.337 126.207 133.337C126.32 133.337 126.395 133.337 126.507 133.3C126.62 133.3 126.695 133.262 126.807 133.225C126.92 133.187 126.995 133.15 127.108 133.075C127.183 133 127.295 132.962 127.37 132.849C127.445 132.774 127.52 132.662 127.596 132.587C127.671 132.474 127.746 132.362 127.783 132.211C127.821 132.061 127.896 131.911 127.896 131.761L127.933 131.724Z" fill="white"/>
</svg>
