<svg width="54" height="54" viewBox="0 0 54 54" fill="none" xmlns="http://www.w3.org/2000/svg" xmlns:xlink="http://www.w3.org/1999/xlink">
<circle cx="27.0001" cy="27" r="27" fill="white"/>
<rect x="16.7943" y="32.2686" width="20.7348" height="10.4645" fill="url(#pattern0)"/>
<path d="M41.9665 43.8632H11.8005V31.0507C11.8015 30.1568 12.159 29.2999 12.7945 28.6679C13.4299 28.0359 14.2915 27.6804 15.1901 27.6796H38.5775C39.4761 27.6804 40.3375 28.0359 40.9729 28.6679C41.6083 29.2999 41.9656 30.1569 41.9665 31.0507V43.8632ZM13.3258 42.3433H40.4412V31.0507C40.4407 30.5591 40.2442 30.0878 39.8948 29.7401C39.5454 29.3925 39.0717 29.1969 38.5775 29.1962H15.1901C14.6958 29.1969 14.2221 29.3925 13.8726 29.7401C13.5231 30.0877 13.3265 30.559 13.3258 31.0507V42.3433Z" fill="#FA8700"/>
<path d="M44 46.7289H9.93622V44.0316C9.93604 43.5841 10.1145 43.1549 10.4324 42.8384C10.7503 42.5218 11.1815 42.3437 11.6314 42.3434H42.3056C42.7553 42.3439 43.1863 42.522 43.5041 42.8386C43.8218 43.1552 44.0002 43.5843 44 44.0316V46.7289ZM11.4615 45.2116H42.4754V44.0316C42.4752 43.9869 42.4573 43.9441 42.4254 43.9126C42.3936 43.881 42.3505 43.8633 42.3056 43.8633H11.6314C11.5864 43.8633 11.5433 43.881 11.5115 43.9126C11.4797 43.9441 11.4617 43.9869 11.4615 44.0316V45.2116Z" fill="#FA8700"/>
<g opacity="0.5">
<path d="M18.3544 33.4299H18.3423C18.0195 33.4056 17.716 33.267 17.487 33.0393C17.258 32.8116 17.1185 32.5099 17.0939 32.1887C17.0923 32.1667 17.0955 32.1447 17.1033 32.124C17.111 32.1034 17.1231 32.0846 17.1387 32.069C17.1543 32.0536 17.1731 32.0417 17.1937 32.0341C17.2144 32.0265 17.2364 32.0235 17.2584 32.0251C17.5813 32.0497 17.8846 32.1885 18.1136 32.4162C18.3426 32.644 18.4821 32.9458 18.5068 33.267C18.5085 33.2888 18.5054 33.3107 18.4978 33.3313C18.4902 33.3518 18.4782 33.3705 18.4627 33.386C18.4337 33.4142 18.3949 33.4299 18.3544 33.4299ZM17.2236 32.1781C17.2473 32.468 17.3738 32.7401 17.5805 32.9458C17.7873 33.1515 18.0609 33.2774 18.3524 33.3009C18.3557 33.3012 18.359 33.3007 18.3621 33.2996C18.3653 33.2984 18.3681 33.2966 18.3704 33.2942C18.373 33.2919 18.3749 33.289 18.3762 33.2857C18.3775 33.2825 18.378 33.2791 18.3778 33.2756C18.354 32.9864 18.2278 32.7149 18.0218 32.5094C17.8157 32.304 17.5431 32.1778 17.2524 32.1535C17.2489 32.1532 17.2454 32.1537 17.2422 32.155C17.2389 32.1563 17.236 32.1582 17.2336 32.1608C17.2313 32.1631 17.2295 32.1659 17.2283 32.169C17.2271 32.1721 17.2267 32.1754 17.227 32.1787L17.2236 32.1781Z" fill="#FA8700"/>
<g opacity="0.5">
<path d="M18.5313 33.1844C18.6211 33.095 18.4158 32.7459 18.0727 32.4045C17.7295 32.0632 17.3785 31.8589 17.2887 31.9483C17.1989 32.0377 17.4042 32.3868 17.7473 32.7281C18.0905 33.0695 18.4415 33.2737 18.5313 33.1844Z" fill="#FA8700"/>
</g>
</g>
<path d="M20.1733 36.2611C20.1304 36.3007 20.0779 36.3285 20.0208 36.3416C19.9429 36.3617 19.8626 36.3711 19.7821 36.3695C19.6927 36.3702 19.6037 36.3565 19.5186 36.329C19.4735 36.3107 19.4325 36.2836 19.3981 36.2493C19.3636 36.215 19.3364 36.1743 19.318 36.1294L18.9456 35.3738C18.9075 35.2966 18.874 35.2234 18.8439 35.1549C18.8138 35.0864 18.7811 35.0073 18.7456 34.9175H18.7236C18.7334 35.0505 18.7389 35.1877 18.7403 35.3292C18.7416 35.4707 18.7416 35.6079 18.7403 35.7409V36.321C18.6986 36.3307 18.6564 36.3383 18.6139 36.3436C18.5585 36.351 18.5026 36.3547 18.4467 36.3549C18.3975 36.3553 18.3482 36.3515 18.2996 36.3436C18.2613 36.3376 18.2252 36.322 18.1946 36.2984C18.1646 36.2741 18.1416 36.2425 18.1278 36.2066C18.1115 36.1579 18.104 36.1068 18.1057 36.0556V34.1878C18.1459 34.1342 18.2024 34.095 18.2668 34.076C18.3419 34.0504 18.4208 34.0375 18.5002 34.0381C18.5912 34.0376 18.6816 34.0522 18.7677 34.0813C18.813 34.0993 18.8542 34.1262 18.8887 34.1605C18.9232 34.1948 18.9503 34.2358 18.9683 34.2809L19.3441 35.0365C19.3822 35.1137 19.4157 35.1869 19.4458 35.2554C19.4758 35.3239 19.5086 35.403 19.544 35.4928L19.5628 35.4895C19.5527 35.3565 19.5461 35.2234 19.544 35.0851C19.542 34.9467 19.54 34.8157 19.54 34.6807V34.0747C19.5817 34.0649 19.6239 34.0573 19.6664 34.0521C19.7218 34.0447 19.7777 34.0409 19.8336 34.0408C19.9216 34.0354 20.0092 34.0557 20.0857 34.0993C20.1432 34.1379 20.172 34.2184 20.172 34.3408L20.1733 36.2611Z" fill="#FA8700"/>
<path d="M21.0572 34.1392C21.1186 34.1075 21.1837 34.0835 21.2511 34.068C21.3365 34.0461 21.4244 34.0349 21.5126 34.0347C21.6264 34.0325 21.7396 34.0508 21.8469 34.0886C21.8888 34.1013 21.9272 34.1231 21.9594 34.1526C21.9916 34.1821 22.0167 34.2184 22.0328 34.2589C22.0774 34.3884 22.1264 34.5394 22.1799 34.7119C22.2328 34.8842 22.2849 35.0618 22.3377 35.244C22.3906 35.4263 22.4421 35.6079 22.4922 35.7868C22.5424 35.9657 22.5858 36.1194 22.6259 36.2597C22.5895 36.2989 22.5434 36.3281 22.4922 36.3442C22.4232 36.3668 22.3509 36.3776 22.2782 36.3761C22.227 36.377 22.1758 36.3718 22.1258 36.3608C22.0891 36.3532 22.0545 36.338 22.0241 36.3163C21.9959 36.2958 21.973 36.2689 21.9573 36.2378C21.9396 36.2016 21.9251 36.164 21.9138 36.1254L21.8469 35.8673H21.1629C21.1428 35.9418 21.1227 36.0189 21.1027 36.0988C21.0826 36.1786 21.0625 36.2564 21.0425 36.3309C21.0062 36.3438 20.9691 36.3545 20.9315 36.3628C20.8851 36.3723 20.8378 36.3768 20.7904 36.3761C20.6911 36.3831 20.592 36.3599 20.5062 36.3096C20.4766 36.2896 20.4526 36.2625 20.4364 36.2307C20.4203 36.1989 20.4125 36.1636 20.4139 36.128C20.4141 36.0927 20.4193 36.0575 20.4293 36.0236C20.4393 35.9883 20.4507 35.9478 20.4627 35.8999C20.4808 35.8334 20.5049 35.7489 20.5363 35.6491C20.5677 35.5493 20.6032 35.4416 20.6399 35.3258C20.6767 35.2101 20.7175 35.0904 20.7603 34.968C20.8031 34.8456 20.8432 34.7305 20.8807 34.6221C20.9181 34.5136 20.9529 34.4165 20.9843 34.3321C21.0157 34.2476 21.0398 34.1844 21.0572 34.1392ZM21.5086 34.6221C21.4738 34.7272 21.4343 34.8438 21.3902 34.972C21.3467 35.1003 21.3066 35.2307 21.2718 35.3631H21.7399C21.7045 35.23 21.6691 35.097 21.6323 34.9686C21.5955 34.8402 21.5654 34.7245 21.5326 34.6221H21.5086Z" fill="#FA8700"/>
<path d="M23.5028 35.4381C23.3922 35.4 23.2919 35.3618 23.2019 35.3237C23.1175 35.2887 23.0388 35.2414 22.9685 35.1833C22.9039 35.1284 22.8519 35.0604 22.816 34.9838C22.7775 34.8958 22.759 34.8004 22.7619 34.7044C22.759 34.6062 22.7799 34.5087 22.8227 34.4202C22.8655 34.3317 22.929 34.2546 23.008 34.1956C23.1725 34.0683 23.4027 34.0046 23.6987 34.0046C23.7995 34.0043 23.9001 34.0119 23.9996 34.0273C24.0819 34.0384 24.1622 34.0608 24.2384 34.0938C24.2992 34.1209 24.3528 34.1619 24.3948 34.2135C24.4323 34.2624 24.4521 34.3224 24.451 34.3838C24.4526 34.4427 24.4368 34.5007 24.4055 34.5508C24.3762 34.5959 24.3394 34.6357 24.2965 34.6685C24.2274 34.6273 24.1526 34.5963 24.0745 34.5767C23.9754 34.5498 23.873 34.5366 23.7703 34.5375C23.6847 34.5317 23.5991 34.5477 23.5215 34.584C23.4988 34.5946 23.4795 34.6112 23.4656 34.632C23.4517 34.6527 23.4437 34.6768 23.4426 34.7017C23.4424 34.7199 23.4468 34.7378 23.4553 34.7538C23.4639 34.7698 23.4763 34.7835 23.4914 34.7935C23.5365 34.8235 23.5862 34.8459 23.6385 34.8601L23.8391 34.9233C24.0389 34.979 24.2243 35.0767 24.3828 35.2099C24.4468 35.2707 24.4969 35.3444 24.5297 35.4261C24.5625 35.5079 24.5771 35.5957 24.5727 35.6835C24.575 35.783 24.5533 35.8816 24.5095 35.9711C24.4656 36.0606 24.4008 36.1383 24.3206 36.1977C24.153 36.3308 23.906 36.3962 23.5797 36.3939C23.4718 36.3946 23.3642 36.3853 23.258 36.366C23.1683 36.3504 23.081 36.3229 22.9986 36.2842C22.9314 36.2537 22.8721 36.2081 22.8254 36.1512C22.7841 36.0981 22.7622 36.0327 22.7632 35.9656C22.7623 35.8979 22.7861 35.8322 22.8301 35.7807C22.8684 35.7329 22.9156 35.6929 22.9692 35.6629C23.0477 35.7224 23.1344 35.7703 23.2266 35.8053C23.3332 35.8462 23.4467 35.8665 23.561 35.8651C23.6512 35.8729 23.7417 35.8532 23.8204 35.8086C23.843 35.7943 23.8617 35.7747 23.8749 35.7515C23.8881 35.7283 23.8953 35.7022 23.896 35.6756C23.897 35.653 23.892 35.6306 23.8814 35.6106C23.8708 35.5906 23.8551 35.5737 23.8358 35.5618C23.7827 35.5295 23.7259 35.5036 23.6666 35.4847L23.5028 35.4381Z" fill="#FA8700"/>
<path d="M28.8448 35.5014C28.8473 35.6274 28.8246 35.7527 28.778 35.8699C28.7335 35.9786 28.6649 36.0759 28.5774 36.1546C28.4843 36.2361 28.3756 36.2978 28.2577 36.3362C27.9805 36.4204 27.6843 36.4204 27.4072 36.3362C27.2876 36.2993 27.177 36.2384 27.0822 36.1572C26.9948 36.0784 26.9263 35.9811 26.8816 35.8725C26.835 35.7553 26.8123 35.6301 26.8147 35.504V34.0719C26.8421 34.0673 26.8862 34.06 26.9484 34.0513C27.0058 34.0428 27.0636 34.0383 27.1216 34.038C27.1728 34.0375 27.2238 34.042 27.2741 34.0513C27.3141 34.0586 27.3519 34.0745 27.3851 34.0979C27.4159 34.1222 27.4391 34.1547 27.452 34.1917C27.4685 34.2423 27.4762 34.2954 27.4747 34.3486V35.4921C27.4716 35.5431 27.4788 35.5943 27.4959 35.6425C27.513 35.6907 27.5397 35.735 27.5743 35.7728C27.6445 35.8378 27.7369 35.874 27.8328 35.874C27.9287 35.874 28.021 35.8378 28.0912 35.7728C28.1254 35.7348 28.1517 35.6904 28.1686 35.6422C28.1855 35.594 28.1926 35.543 28.1895 35.4921V34.0719C28.2169 34.0673 28.2604 34.06 28.3233 34.0513C28.3804 34.0428 28.438 34.0383 28.4958 34.038C28.5469 34.0375 28.598 34.0419 28.6482 34.0513C28.6883 34.0585 28.7262 34.0744 28.7592 34.0979C28.7903 34.1219 28.8136 34.1545 28.8261 34.1917C28.843 34.2422 28.8507 34.2954 28.8489 34.3486L28.8448 35.5014Z" fill="#FA8700"/>
<path d="M30.0978 36.3994C30.055 36.3994 30.0062 36.3994 29.9507 36.3994C29.8952 36.3994 29.8383 36.3921 29.7795 36.3841C29.7206 36.3761 29.6618 36.3675 29.6029 36.3562C29.547 36.3459 29.4921 36.3303 29.4391 36.3096C29.379 36.2934 29.3261 36.2577 29.2887 36.2082C29.2513 36.1587 29.2315 36.0982 29.2325 36.0362V34.2855C29.231 34.2634 29.234 34.2412 29.2414 34.2203C29.2487 34.1994 29.2603 34.1802 29.2753 34.1638C29.3092 34.1331 29.3497 34.1104 29.3936 34.0973C29.5049 34.0625 29.6198 34.0402 29.736 34.0308C29.857 34.0194 29.9647 34.0135 30.0597 34.0135C30.2405 34.0111 30.4207 34.0351 30.5946 34.0846C30.7456 34.1277 30.8855 34.2023 31.0052 34.3035C31.1222 34.4053 31.2137 34.5329 31.2727 34.676C31.3392 34.8454 31.3712 35.0263 31.3669 35.2081C31.3708 35.3863 31.3401 35.5636 31.2767 35.7303C31.2203 35.8728 31.1323 36.0008 31.0192 36.1048C30.9033 36.2078 30.7665 36.285 30.618 36.3309C30.4493 36.3809 30.2737 36.404 30.0978 36.3994ZM29.8865 35.8533C29.9146 35.8586 29.948 35.8626 29.9881 35.8666C30.0282 35.8706 30.0663 35.872 30.1011 35.872C30.1811 35.8727 30.2607 35.8601 30.3365 35.8347C30.4061 35.8107 30.4692 35.7711 30.5211 35.719C30.5756 35.6604 30.6166 35.5907 30.6414 35.5148C30.6721 35.4173 30.6865 35.3155 30.6842 35.2134C30.6842 34.9886 30.6316 34.8196 30.5264 34.7066C30.4726 34.6497 30.4071 34.6051 30.3344 34.5757C30.2617 34.5463 30.1835 34.5329 30.1051 34.5363C30.0697 34.5363 30.0342 34.5363 29.9975 34.5363C29.9607 34.5363 29.9246 34.5429 29.8865 34.5476V35.8533Z" fill="#FA8700"/>
<path d="M33.6681 35.5014C33.6705 35.6274 33.6478 35.7527 33.6012 35.8699C33.5565 35.9785 33.488 36.0757 33.4006 36.1546C33.3073 36.2361 33.1983 36.2979 33.0803 36.3362C32.8033 36.4204 32.5074 36.4204 32.2304 36.3362C32.1125 36.298 32.0037 36.2362 31.9108 36.1546C31.823 36.0761 31.7544 35.9787 31.7102 35.8699C31.6633 35.7528 31.6405 35.6274 31.6433 35.5014V34.0719C31.6707 34.0673 31.7142 34.0599 31.777 34.0513C31.8344 34.0428 31.8922 34.0383 31.9502 34.038C32.0014 34.0375 32.0524 34.042 32.1027 34.0513C32.1427 34.0585 32.1806 34.0744 32.2137 34.0979C32.2447 34.1219 32.268 34.1545 32.2806 34.1917C32.2975 34.2422 32.3052 34.2954 32.3033 34.3486V35.4921C32.3003 35.5431 32.3076 35.5942 32.3247 35.6424C32.3418 35.6906 32.3684 35.7349 32.4029 35.7728C32.4733 35.8377 32.5657 35.8738 32.6617 35.8738C32.7577 35.8738 32.8501 35.8377 32.9205 35.7728C32.9891 35.6957 33.0242 35.5948 33.0181 35.4921V34.0719C33.0455 34.0673 33.0897 34.0599 33.1519 34.0513C33.2092 34.0428 33.2671 34.0383 33.3251 34.038C33.3762 34.0375 33.4272 34.042 33.4775 34.0513C33.5175 34.0586 33.5554 34.0745 33.5885 34.0979C33.6193 34.1222 33.6425 34.1547 33.6554 34.1917C33.6719 34.2423 33.6796 34.2954 33.6781 34.3486L33.6681 35.5014Z" fill="#FA8700"/>
<path d="M34.7171 35.4981V36.3249C34.673 36.335 34.6283 36.3425 34.5833 36.3475C34.5248 36.3548 34.4658 36.3586 34.4068 36.3588C34.3557 36.3593 34.3046 36.3548 34.2543 36.3455C34.2143 36.3383 34.1764 36.3224 34.1433 36.2989C34.1123 36.2749 34.089 36.2422 34.0765 36.2051C34.0596 36.1546 34.0519 36.1014 34.0537 36.0481V34.0719C34.0812 34.0673 34.1253 34.0599 34.1875 34.0513C34.2448 34.0428 34.3027 34.0383 34.3607 34.038C34.4118 34.0375 34.4629 34.042 34.5131 34.0513C34.5531 34.0586 34.591 34.0745 34.6241 34.0979C34.6549 34.1222 34.6781 34.1547 34.691 34.1917C34.7075 34.2423 34.7152 34.2954 34.7137 34.3486V34.9473L35.4961 34.0526C35.6664 34.0526 35.7885 34.0846 35.8625 34.1484C35.897 34.1753 35.9249 34.2097 35.9441 34.2488C35.9634 34.288 35.9734 34.331 35.9735 34.3746C35.9739 34.439 35.957 34.5023 35.9247 34.5582C35.881 34.6296 35.8279 34.6949 35.7669 34.7524L35.2988 35.218C35.361 35.2845 35.4272 35.3597 35.4961 35.4349C35.565 35.51 35.6298 35.5825 35.6967 35.6537C35.7636 35.7249 35.8271 35.7927 35.8886 35.8579L36.0491 36.0242C36.0501 36.0744 36.0398 36.1241 36.019 36.1699C35.9999 36.2112 35.9723 36.2481 35.9381 36.2783C35.9044 36.3075 35.8653 36.3301 35.8231 36.3448C35.78 36.3594 35.7348 36.3668 35.6894 36.3668C35.599 36.3708 35.51 36.3438 35.4373 36.2903C35.3688 36.236 35.3059 36.1752 35.2494 36.1087L34.7171 35.4981Z" fill="#FA8700"/>
<path d="M21.609 39.4379C21.5662 39.4379 21.5161 39.4379 21.4586 39.4346C21.4011 39.4312 21.3409 39.4266 21.2794 39.4193C21.2179 39.4119 21.157 39.4026 21.0968 39.3913C21.0404 39.3812 20.9851 39.3656 20.9317 39.3448C20.7939 39.2922 20.7244 39.2011 20.7244 39.0714V37.324C20.723 37.3018 20.7262 37.2796 20.7336 37.2587C20.7411 37.2378 20.7527 37.2186 20.7678 37.2022C20.8018 37.1715 20.8422 37.1488 20.8862 37.1357C20.9901 37.1016 21.0976 37.0793 21.2065 37.0692C21.3376 37.0555 21.4692 37.0486 21.601 37.0486C21.922 37.0486 22.1692 37.1022 22.3426 37.2096C22.427 37.2615 22.4956 37.3351 22.5413 37.4227C22.587 37.5103 22.608 37.6086 22.6021 37.7071C22.6044 37.8123 22.5699 37.9151 22.5044 37.9978C22.4354 38.0807 22.344 38.1424 22.241 38.1754C22.3619 38.2075 22.4708 38.2738 22.5546 38.3663C22.6401 38.4618 22.6854 38.5864 22.681 38.7142C22.681 38.9612 22.5887 39.1439 22.4041 39.2623C22.2196 39.3807 21.9545 39.4392 21.609 39.4379ZM21.3643 37.9971H21.6391C21.7219 38.0041 21.8046 37.983 21.8738 37.9373C21.8989 37.9156 21.9185 37.8885 21.9313 37.858C21.9441 37.8276 21.9496 37.7946 21.9474 37.7616C21.9481 37.7299 21.9407 37.6984 21.9259 37.6702C21.911 37.6421 21.8892 37.6181 21.8625 37.6007C21.7861 37.5556 21.6977 37.5347 21.609 37.5408C21.5709 37.5408 21.5281 37.5408 21.4787 37.5448C21.4404 37.546 21.4022 37.5496 21.3643 37.5554V37.9971ZM21.3643 38.9104C21.4081 38.9216 21.4529 38.9285 21.498 38.931C21.5535 38.935 21.6064 38.9363 21.6565 38.9363C21.744 38.9396 21.8306 38.9184 21.9066 38.8751C21.9392 38.8549 21.9656 38.8263 21.9832 38.7924C22.0007 38.7584 22.0087 38.7204 22.0062 38.6822C22.0094 38.6482 22.0034 38.6139 21.9889 38.5829C21.9743 38.5519 21.9517 38.5254 21.9233 38.506C21.8456 38.4662 21.7584 38.4483 21.6712 38.4541H21.363L21.3643 38.9104Z" fill="#FA8700"/>
<path d="M24.9831 38.5398C24.9855 38.6659 24.9628 38.7911 24.9162 38.9083C24.8718 39.0171 24.8032 39.1144 24.7156 39.193C24.6226 39.2745 24.5138 39.3363 24.396 39.3746C24.1188 39.4589 23.8226 39.4589 23.5454 39.3746C23.4276 39.3363 23.3188 39.2745 23.2258 39.193C23.1382 39.1144 23.0696 39.0171 23.0252 38.9083C22.9786 38.7911 22.9559 38.6659 22.9583 38.5398V37.1104C22.9857 37.1051 23.0299 37.0984 23.092 37.0898C23.1494 37.0812 23.2073 37.0768 23.2652 37.0764C23.3164 37.076 23.3674 37.0804 23.4177 37.0898C23.4577 37.097 23.4955 37.1129 23.5287 37.1363C23.5595 37.1606 23.5827 37.1931 23.5956 37.2301C23.6121 37.2808 23.6198 37.3338 23.6183 37.3871V38.5285C23.6152 38.5796 23.6224 38.6307 23.6395 38.6789C23.6566 38.7271 23.6833 38.7715 23.7179 38.8092C23.7881 38.8743 23.8805 38.9104 23.9764 38.9104C24.0723 38.9104 24.1647 38.8743 24.2348 38.8092C24.2689 38.7712 24.2951 38.7268 24.3118 38.6786C24.3286 38.6304 24.3356 38.5794 24.3325 38.5285V37.1104C24.3605 37.1051 24.404 37.0984 24.4662 37.0898C24.5235 37.0812 24.5814 37.0768 24.6394 37.0764C24.6905 37.076 24.7416 37.0804 24.7919 37.0898C24.8319 37.0969 24.8698 37.1128 24.9029 37.1363C24.9339 37.1604 24.9572 37.193 24.9697 37.2301C24.9866 37.2807 24.9943 37.3338 24.9925 37.3871L24.9831 38.5398Z" fill="#FA8700"/>
<path d="M26.3828 39.3893C26.3359 39.3933 26.2886 39.387 26.2444 39.3709C26.2002 39.3548 26.16 39.3293 26.1267 39.2962C26.0934 39.2631 26.0678 39.2231 26.0516 39.1791C26.0354 39.1351 26.0291 39.0881 26.0331 39.0414V37.1065L26.1668 37.0858C26.2239 37.0775 26.2816 37.0733 26.3393 37.0732C26.3904 37.0725 26.4415 37.0767 26.4918 37.0858C26.5318 37.0932 26.5698 37.1093 26.6028 37.1331C26.6339 37.1568 26.6572 37.1892 26.6697 37.2262C26.6866 37.277 26.6943 37.3304 26.6924 37.3838V38.8618H27.5503C27.5709 38.8966 27.5873 38.9337 27.5991 38.9723C27.6139 39.0187 27.6214 39.0672 27.6212 39.1159C27.6248 39.1539 27.6207 39.1921 27.6092 39.2284C27.5977 39.2647 27.5791 39.2984 27.5543 39.3275C27.5317 39.3485 27.5051 39.3647 27.476 39.3754C27.447 39.386 27.4161 39.3907 27.3852 39.3893H26.3828Z" fill="#FA8700"/>
<path d="M28.5306 39.3633C28.4879 39.3733 28.4445 39.3808 28.4009 39.3859C28.343 39.3931 28.2847 39.3966 28.2264 39.3966C28.1753 39.3973 28.1242 39.3931 28.0739 39.3839C28.0338 39.3768 27.9958 39.3607 27.9629 39.3367C27.932 39.3128 27.9087 39.2805 27.896 39.2436C27.8797 39.1927 27.8722 39.1394 27.874 39.0859V37.1104C27.9014 37.1051 27.9455 37.0984 28.0077 37.0898C28.0648 37.0812 28.1225 37.0768 28.1802 37.0765C28.2314 37.0759 28.2824 37.0804 28.3327 37.0898C28.3727 37.0969 28.4106 37.1128 28.4437 37.1363C28.4748 37.1604 28.498 37.193 28.5106 37.2301C28.5275 37.2807 28.5352 37.3338 28.5333 37.3871L28.5306 39.3633Z" fill="#FA8700"/>
<path d="M30.9945 39.2994C30.9516 39.3391 30.899 39.3668 30.842 39.3799C30.7641 39.4 30.6838 39.4094 30.6033 39.4078C30.5138 39.4086 30.4248 39.3947 30.3398 39.3666C30.2946 39.3485 30.2535 39.3215 30.219 39.2872C30.1846 39.2529 30.1574 39.212 30.1392 39.167L29.7668 38.4114C29.7286 38.3343 29.6952 38.2611 29.6651 38.1926C29.635 38.1241 29.6023 38.0442 29.5668 37.9544L29.5447 37.9584C29.5546 38.0915 29.5601 38.2287 29.5615 38.3702C29.5628 38.5116 29.5628 38.6489 29.5615 38.7819V39.3619C29.5198 39.3717 29.4776 39.3793 29.4351 39.3846C29.3796 39.3917 29.3238 39.3953 29.2679 39.3952C29.2189 39.3958 29.1699 39.3922 29.1215 39.3846C29.0829 39.3787 29.0466 39.3631 29.0158 39.3393C28.986 39.315 28.9629 39.2833 28.9489 39.2475C28.9326 39.1987 28.9252 39.1473 28.9269 39.0959V37.2261C28.9672 37.1723 29.024 37.1331 29.0887 37.1143C29.1635 37.0887 29.2422 37.0758 29.3214 37.0764C29.4124 37.0759 29.5028 37.0905 29.5889 37.1196C29.6339 37.1372 29.6748 37.1637 29.7093 37.1974C29.7438 37.2311 29.771 37.2714 29.7895 37.3159L30.166 38.0722C30.2034 38.1493 30.2368 38.2225 30.2669 38.291C30.297 38.3595 30.3298 38.4387 30.3652 38.5285H30.384C30.3739 38.3954 30.3672 38.2591 30.3652 38.1241C30.3632 37.989 30.3612 37.858 30.3612 37.7196V37.1137C30.4043 37.1024 30.4481 37.094 30.4923 37.0884C30.5477 37.081 30.6035 37.0772 30.6595 37.0771C30.7474 37.0715 30.835 37.0916 30.9115 37.1349C30.9691 37.174 30.9978 37.2545 30.9978 37.3764L30.9945 39.2994Z" fill="#FA8700"/>
<path d="M31.8787 37.1776C31.94 37.1459 32.0052 37.122 32.0726 37.1064C32.158 37.0846 32.2458 37.0734 32.334 37.0732C32.4478 37.071 32.5611 37.0892 32.6684 37.1271C32.7103 37.1398 32.7488 37.1617 32.7811 37.1912C32.8134 37.2206 32.8386 37.2569 32.8549 37.2973C32.8995 37.4273 32.9483 37.5783 33.0014 37.7503C33.0542 37.9226 33.1064 38.1002 33.1592 38.2825C33.212 38.4647 33.2635 38.6463 33.3137 38.8246C33.3638 39.0028 33.408 39.1612 33.4474 39.2982C33.4109 39.3374 33.3649 39.3665 33.3137 39.3827C33.2447 39.4053 33.1723 39.4161 33.0997 39.4146C33.0484 39.4154 32.9973 39.4103 32.9472 39.3993C32.9106 39.3917 32.876 39.3765 32.8456 39.3547C32.8173 39.3339 32.7944 39.3068 32.7787 39.2756C32.7611 39.2396 32.7466 39.2022 32.7352 39.1638L32.6684 38.9051H31.9843C31.9642 38.9802 31.9442 39.0574 31.9241 39.1372C31.9041 39.217 31.884 39.2949 31.8639 39.3694C31.8276 39.3823 31.7906 39.3929 31.7529 39.4013C31.7065 39.4108 31.6592 39.4152 31.6118 39.4146C31.5125 39.4216 31.4134 39.3984 31.3277 39.3481C31.2981 39.328 31.2741 39.3009 31.258 39.2691C31.2418 39.2374 31.234 39.202 31.2354 39.1665C31.2356 39.1311 31.2407 39.096 31.2508 39.062C31.2608 39.0268 31.2722 38.9855 31.2842 38.9383C31.3022 38.8718 31.3263 38.7873 31.3577 38.6876C31.3892 38.5878 31.4246 38.48 31.4614 38.3636C31.4982 38.2472 31.539 38.1288 31.5818 38.0064C31.6246 37.884 31.6647 37.7689 31.7021 37.6605C31.7396 37.5521 31.7743 37.455 31.8058 37.3705C31.8372 37.286 31.8613 37.2215 31.8787 37.1776ZM32.3307 37.6605C32.295 37.7656 32.2554 37.8822 32.2117 38.0104C32.168 38.1386 32.1285 38.2689 32.0933 38.4015H32.5614C32.526 38.2685 32.4905 38.1355 32.4537 38.0064C32.417 37.8774 32.3869 37.763 32.3541 37.6605H32.3307Z" fill="#FA8700"/>
<g opacity="0.6">
<rect x="23.493" y="29.7802" width="4.53373" height="7.98207" fill="url(#pattern1)"/>
</g>
<path d="M25.9812 36.0833L25.9699 34.0386C26.3116 33.7632 26.6894 33.2304 26.6947 32.5819C26.7028 31.6586 26.2394 30.9076 25.6603 30.9043C25.0812 30.901 24.6044 31.646 24.5964 32.5672C24.5904 33.2158 24.9581 33.7419 25.2952 34.0213L25.3065 36.0002C25.3065 36.2104 25.344 36.4452 25.6081 36.4472H25.6395C25.9037 36.4512 25.9799 36.2935 25.9812 36.0833Z" fill="#FFD876"/>
<path d="M17.2283 34.6207C17.2383 34.5246 17.2706 34.4321 17.3226 34.3506C17.3265 34.3441 17.3284 34.3366 17.3281 34.329C17.3278 34.3215 17.3253 34.3142 17.3209 34.308C17.3165 34.3018 17.3105 34.297 17.3034 34.2942C17.2963 34.2913 17.2886 34.2906 17.2812 34.2921C17.0956 34.3321 16.9033 34.3285 16.7195 34.2814C16.7145 34.2802 16.7097 34.2782 16.7054 34.2754C16.1705 33.9063 16.1036 33.3555 16.676 32.556C16.6779 32.5532 16.6801 32.5507 16.6827 32.5486C17.2577 32.0345 17.8482 31.9247 18.4601 32.3617C18.4683 32.3675 18.4785 32.37 18.4886 32.3687C18.4986 32.3673 18.5078 32.3622 18.5142 32.3544C18.8907 31.8941 19.2979 31.8635 19.7366 32.2772C19.7417 32.2819 19.748 32.2852 19.7548 32.2868C19.7616 32.2885 19.7686 32.2884 19.7754 32.2866C20.3565 32.1163 20.8225 32.1588 21.0064 32.7196C21.2946 33.3568 21.207 33.7779 20.6962 33.9608H20.6868L20.5109 33.9801C20.5021 33.981 20.4938 33.9849 20.4874 33.991C20.481 33.9972 20.4768 34.0052 20.4755 34.014L20.4675 34.0805C20.4662 34.0899 20.4616 34.0984 20.4544 34.1047C20.4473 34.1109 20.4382 34.1144 20.4287 34.1145C20.1405 34.1145 18.1163 34.1544 17.2858 34.6519C17.2801 34.6549 17.2737 34.6564 17.2672 34.6563C17.2607 34.6563 17.2544 34.6546 17.2487 34.6515C17.243 34.6484 17.2382 34.644 17.2346 34.6386C17.2311 34.6332 17.2289 34.6271 17.2283 34.6207Z" fill="white"/>
<path d="M18.088 33.811C18.1623 33.811 18.2224 33.751 18.2224 33.677C18.2224 33.6031 18.1623 33.5431 18.088 33.5431C18.0138 33.5431 17.9536 33.6031 17.9536 33.677C17.9536 33.751 18.0138 33.811 18.088 33.811Z" fill="#FCFC5B"/>
<path d="M17.0302 32.7682C17.5196 32.7682 17.9163 32.3736 17.9163 31.8868C17.9163 31.4001 17.5196 31.0055 17.0302 31.0055C16.5409 31.0055 16.1442 31.4001 16.1442 31.8868C16.1442 32.3736 16.5409 32.7682 17.0302 32.7682Z" fill="#FCFC5B"/>
<path d="M17.2677 34.6938C17.2546 34.6938 17.2417 34.6903 17.2303 34.6838C17.2188 34.6771 17.2094 34.6673 17.2033 34.6555C17.1971 34.6437 17.1944 34.6305 17.1955 34.6173C17.2054 34.516 17.2391 34.4185 17.2938 34.3326C17.2946 34.3315 17.2951 34.3302 17.2951 34.3289C17.2951 34.3276 17.2946 34.3263 17.2938 34.3252C17.2934 34.3248 17.293 34.3245 17.2924 34.3242C17.2919 34.324 17.2914 34.3239 17.2908 34.3239C17.2902 34.3239 17.2897 34.324 17.2891 34.3242C17.2886 34.3245 17.2882 34.3248 17.2878 34.3252C17.0974 34.3667 16.8999 34.3628 16.7114 34.3139C16.7023 34.3119 16.6937 34.3083 16.686 34.3033C16.4399 34.1337 16.2941 33.9275 16.252 33.69C16.1958 33.3694 16.3295 32.9816 16.6492 32.5373C16.6524 32.5326 16.6562 32.5283 16.6605 32.5246C17.2744 31.9759 17.8863 31.912 18.4794 32.335C18.4799 32.3356 18.4806 32.3361 18.4814 32.3364C18.4821 32.3367 18.4829 32.3369 18.4837 32.3369C18.4845 32.3369 18.4853 32.3367 18.4861 32.3364C18.4868 32.3361 18.4875 32.3356 18.4881 32.335C18.6827 32.0976 18.8893 31.9705 19.1013 31.9572C19.3132 31.9439 19.5352 32.0437 19.7599 32.2552C19.7609 32.2557 19.7619 32.2559 19.7629 32.2559C19.764 32.2559 19.765 32.2557 19.7659 32.2552C20.2059 32.1269 20.8158 32.0337 21.0365 32.7095C21.207 33.088 21.2451 33.394 21.1488 33.6188C21.0766 33.7891 20.9281 33.9155 20.7068 33.9953C20.7014 33.9973 20.6958 33.9986 20.6901 33.9993L20.5135 34.0186C20.5122 34.0187 20.5109 34.0194 20.5099 34.0203C20.5089 34.0213 20.5083 34.0226 20.5082 34.0239L20.4995 34.0904C20.4979 34.1083 20.4897 34.125 20.4765 34.1373C20.4633 34.1495 20.446 34.1565 20.428 34.157C20.1952 34.157 18.1317 34.1929 17.3045 34.6891C17.2928 34.6936 17.2802 34.6952 17.2677 34.6938ZM17.2617 34.6219C17.2612 34.6227 17.2609 34.6236 17.2609 34.6246C17.2609 34.6255 17.2612 34.6265 17.2617 34.6272C17.2627 34.6278 17.2639 34.628 17.265 34.628C17.2662 34.628 17.2673 34.6278 17.2684 34.6272C18.0935 34.1317 20.0435 34.0884 20.4259 34.0851C20.4276 34.085 20.4291 34.0843 20.4303 34.0833C20.4315 34.0822 20.4323 34.0807 20.4326 34.0791L20.4407 34.0126C20.4428 33.996 20.4506 33.9807 20.4628 33.9692C20.475 33.9576 20.4908 33.9507 20.5075 33.9494L20.6834 33.9301C20.8887 33.857 21.0244 33.7426 21.0893 33.5902C21.1776 33.3827 21.1401 33.094 20.9769 32.7328V32.7262C20.8198 32.2479 20.4534 32.1209 19.7873 32.3151C19.7751 32.3186 19.7621 32.3189 19.7497 32.316C19.7373 32.3131 19.7258 32.3071 19.7165 32.2985C19.5065 32.0989 19.3019 32.0058 19.108 32.0184C18.914 32.0311 18.7248 32.1515 18.5422 32.3723C18.5305 32.3866 18.5138 32.396 18.4954 32.3985C18.477 32.4009 18.4584 32.3963 18.4433 32.3856C17.8715 31.9772 17.3065 32.0377 16.7047 32.5705C16.3944 33.0016 16.2647 33.3727 16.3175 33.6754C16.3563 33.8949 16.4927 34.0864 16.7241 34.2454C16.9029 34.2912 17.09 34.2946 17.2704 34.2554C17.2841 34.2525 17.2984 34.2536 17.3115 34.2587C17.3246 34.2638 17.3359 34.2726 17.3439 34.284C17.3524 34.2955 17.3573 34.3091 17.358 34.3233C17.3587 34.3375 17.3552 34.3516 17.348 34.3638C17.2985 34.4406 17.2678 34.5279 17.2584 34.6186L17.2617 34.6219Z" fill="#777777"/>
<path d="M17.2523 34.6938C17.2437 34.6937 17.2355 34.6902 17.2294 34.6841C17.2233 34.678 17.2198 34.6698 17.2196 34.6612C17.2149 34.4091 17.372 34.2216 17.5385 34.0227C17.5773 33.9768 17.6168 33.9289 17.6549 33.8797C17.6604 33.8728 17.6684 33.8684 17.6772 33.8674C17.686 33.8664 17.6948 33.8689 17.7017 33.8743C17.7052 33.8769 17.7082 33.8801 17.7104 33.8838C17.7126 33.8876 17.7141 33.8917 17.7146 33.896C17.7152 33.9003 17.7149 33.9047 17.7137 33.9088C17.7125 33.913 17.7105 33.9169 17.7077 33.9202C17.6689 33.9701 17.6282 34.018 17.5894 34.0652C17.4309 34.2542 17.2818 34.4324 17.2858 34.6599C17.2859 34.6643 17.2851 34.6686 17.2835 34.6727C17.2819 34.6768 17.2795 34.6805 17.2765 34.6836C17.2734 34.6868 17.2698 34.6893 17.2658 34.691C17.2617 34.6928 17.2574 34.6937 17.253 34.6938H17.2523Z" fill="#777777"/>
<path d="M18.1215 32.9397H18.1128C18.1086 32.9386 18.1047 32.9367 18.1013 32.9341C18.0978 32.9315 18.095 32.9283 18.0928 32.9246C18.0906 32.9209 18.0892 32.9168 18.0886 32.9125C18.088 32.9083 18.0883 32.9039 18.0894 32.8998C18.1449 32.6909 18.5575 32.2572 18.5736 32.2386C18.5798 32.2336 18.5878 32.231 18.5958 32.2314C18.6039 32.2317 18.6115 32.2349 18.6174 32.2404C18.6233 32.2459 18.6269 32.2533 18.6277 32.2613C18.6285 32.2693 18.6264 32.2773 18.6217 32.2838C18.617 32.2885 18.2051 32.7242 18.1536 32.9164C18.1515 32.9232 18.1472 32.9291 18.1414 32.9333C18.1356 32.9375 18.1287 32.9398 18.1215 32.9397Z" fill="#777777"/>
<path d="M20.3022 34.0287C20.0983 34.0287 19.8067 33.9961 19.5901 33.8365C19.514 33.7799 19.4504 33.7084 19.4033 33.6263C19.3561 33.5443 19.3264 33.4535 19.3159 33.3596C19.3152 33.3553 19.3153 33.3509 19.3163 33.3466C19.3173 33.3424 19.3192 33.3384 19.3219 33.3349C19.3245 33.3314 19.3278 33.3285 19.3316 33.3263C19.3354 33.3242 19.3396 33.3228 19.344 33.3223C19.3527 33.3212 19.3615 33.3234 19.3685 33.3287C19.3755 33.3339 19.3801 33.3416 19.3814 33.3502C19.3908 33.4355 19.4176 33.5179 19.4603 33.5924C19.503 33.6669 19.5606 33.7318 19.6295 33.7833C19.9686 34.0327 20.5276 33.9482 20.5336 33.9476C20.538 33.9469 20.5425 33.9471 20.5468 33.9482C20.5511 33.9493 20.5551 33.9512 20.5587 33.9538C20.5623 33.9564 20.5653 33.9597 20.5676 33.9635C20.5699 33.9673 20.5714 33.9715 20.572 33.9758C20.5727 33.9802 20.5725 33.9847 20.5714 33.9889C20.5704 33.9932 20.5684 33.9973 20.5658 34.0008C20.5632 34.0044 20.5598 34.0074 20.556 34.0097C20.5522 34.0119 20.548 34.0134 20.5436 34.0141C20.4636 34.0246 20.3829 34.0295 20.3022 34.0287Z" fill="#777777"/>
<path d="M20.0546 33.4533C20.0479 33.4536 20.0412 33.4517 20.0355 33.4481C20.0298 33.4444 20.0254 33.439 20.0229 33.4327C20.0204 33.4265 20.0199 33.4196 20.0215 33.413C20.0231 33.4064 20.0268 33.4005 20.0319 33.3961C20.0824 33.3524 20.1224 33.298 20.149 33.2369C20.1757 33.1757 20.1882 33.1095 20.1857 33.0429C20.169 32.6578 19.6795 32.2693 19.6748 32.2653C19.6714 32.2627 19.6685 32.2595 19.6663 32.2557C19.6642 32.252 19.6628 32.2479 19.6622 32.2436C19.6616 32.2394 19.6619 32.235 19.6631 32.2309C19.6642 32.2267 19.6662 32.2228 19.6688 32.2194C19.6742 32.2125 19.6822 32.2079 19.691 32.2068C19.6997 32.2057 19.7086 32.2081 19.7156 32.2134C19.737 32.2301 20.2338 32.6245 20.2506 33.0402C20.2538 33.1164 20.2398 33.1922 20.2096 33.2622C20.1794 33.3322 20.1337 33.3946 20.076 33.4447C20.0702 33.45 20.0626 33.4531 20.0546 33.4533Z" fill="#777777"/>
<path d="M25.1309 33.4533H25.1189C25.1108 33.4501 25.1043 33.4438 25.1007 33.4359C25.0971 33.428 25.0966 33.419 25.0995 33.4108C25.0995 33.4028 25.3917 32.6252 25.1597 32.3418C24.9023 32.0279 25.1457 31.535 25.1557 31.5137C25.1598 31.506 25.1668 31.5001 25.1751 31.4974C25.1835 31.4947 25.1926 31.4953 25.2005 31.499C25.2045 31.501 25.208 31.5036 25.2109 31.5069C25.2138 31.5102 25.216 31.5141 25.2174 31.5182C25.2187 31.5224 25.2192 31.5268 25.2189 31.5311C25.2185 31.5355 25.2173 31.5397 25.2152 31.5436C25.2152 31.5483 24.9812 32.0192 25.2112 32.3006C25.4673 32.6132 25.1744 33.4008 25.1617 33.4314C25.1596 33.4378 25.1555 33.4434 25.1499 33.4473C25.1444 33.4513 25.1377 33.4534 25.1309 33.4533Z" fill="#FCFCFC"/>
<path d="M25.5968 33.6209H25.5854C25.5813 33.6194 25.5775 33.6171 25.5743 33.6142C25.5711 33.6112 25.5685 33.6077 25.5667 33.6037C25.5649 33.5997 25.5639 33.5954 25.5638 33.5911C25.5637 33.5867 25.5644 33.5824 25.566 33.5783C25.566 33.5703 25.8583 32.7928 25.6262 32.5094C25.3688 32.1954 25.6115 31.7019 25.6222 31.6813C25.6262 31.6734 25.6332 31.6675 25.6416 31.6647C25.65 31.662 25.6591 31.6627 25.667 31.6666C25.6747 31.6706 25.6806 31.6774 25.6833 31.6856C25.686 31.6938 25.6855 31.7027 25.6817 31.7105C25.6817 31.7158 25.4477 32.1868 25.6777 32.4682C25.9338 32.7801 25.6409 33.5684 25.6282 33.5989C25.6258 33.6053 25.6215 33.6108 25.6159 33.6147C25.6103 33.6187 25.6036 33.6208 25.5968 33.6209Z" fill="#FCFCFC"/>
<path d="M26.1339 33.5204H26.1218C26.1136 33.5173 26.107 33.5111 26.1034 33.5031C26.0997 33.4951 26.0994 33.4861 26.1024 33.4779C26.1024 33.4699 26.3947 32.6923 26.1626 32.4089C25.9052 32.095 26.1486 31.6014 26.1586 31.5808C26.1605 31.5768 26.1632 31.5733 26.1665 31.5704C26.1699 31.5676 26.1737 31.5654 26.1779 31.564C26.1821 31.5626 26.1865 31.5621 26.1909 31.5625C26.1953 31.5629 26.1995 31.5641 26.2034 31.5662C26.2111 31.5701 26.217 31.5769 26.2197 31.5851C26.2225 31.5933 26.2219 31.6023 26.2181 31.6101C26.2181 31.6147 25.9841 32.0863 26.2141 32.367C26.4702 32.6797 26.1773 33.4672 26.1646 33.4978C26.1624 33.5043 26.1583 33.5099 26.1528 33.5139C26.1473 33.518 26.1407 33.5202 26.1339 33.5204Z" fill="#FCFCFC"/>
<path d="M24.4289 40.5819C24.4002 40.5719 24.3741 40.5619 24.35 40.5519C24.328 40.5427 24.3076 40.5304 24.2892 40.5153C24.2723 40.5009 24.2587 40.4832 24.249 40.4633C24.2391 40.4404 24.2343 40.4156 24.235 40.3907C24.2346 40.3647 24.2404 40.3391 24.2521 40.3159C24.2637 40.2927 24.2808 40.2726 24.3019 40.2574C24.355 40.2212 24.4188 40.2036 24.4831 40.2074C24.5093 40.2073 24.5354 40.2093 24.5613 40.2134C24.583 40.2166 24.6041 40.2226 24.6242 40.2314C24.6399 40.2387 24.6539 40.2494 24.665 40.2627C24.6747 40.2756 24.6799 40.2913 24.6797 40.3074C24.6802 40.3229 24.676 40.3382 24.6676 40.3514C24.6603 40.3632 24.6507 40.3736 24.6396 40.382C24.6212 40.3718 24.6016 40.3638 24.5814 40.358C24.5554 40.3511 24.5287 40.3478 24.5018 40.348C24.4788 40.3462 24.4558 40.3504 24.4349 40.36C24.429 40.3629 24.4239 40.3673 24.4202 40.3728C24.4166 40.3783 24.4145 40.3847 24.4142 40.3913C24.4144 40.3961 24.4157 40.4008 24.418 40.4049C24.4203 40.4091 24.4236 40.4127 24.4276 40.4153C24.4392 40.4232 24.4521 40.4288 24.4657 40.432L24.5179 40.4486C24.5701 40.4634 24.6187 40.4891 24.6603 40.5239C24.6769 40.5399 24.6899 40.5592 24.6984 40.5806C24.707 40.602 24.7108 40.6249 24.7098 40.6479C24.7099 40.6738 24.704 40.6993 24.6923 40.7225C24.6807 40.7456 24.6638 40.7657 24.6429 40.7811C24.5854 40.819 24.5171 40.8371 24.4483 40.8325C24.4203 40.8325 24.3923 40.8301 24.3647 40.8251C24.3416 40.821 24.3191 40.8138 24.2979 40.8038C24.2803 40.7955 24.2648 40.7834 24.2524 40.7685C24.2417 40.7545 24.2361 40.7374 24.2363 40.7198C24.2357 40.7021 24.2417 40.6848 24.2531 40.6712C24.263 40.6588 24.2753 40.6484 24.2892 40.6406C24.3097 40.6557 24.3322 40.6681 24.356 40.6772C24.3839 40.6881 24.4137 40.6935 24.4436 40.6932C24.4669 40.6953 24.4903 40.6902 24.5105 40.6785C24.5164 40.6748 24.5214 40.6697 24.5249 40.6637C24.5284 40.6577 24.5303 40.6509 24.5306 40.6439C24.5307 40.6379 24.5293 40.632 24.5265 40.6268C24.5237 40.6215 24.5195 40.6171 24.5145 40.6139C24.5005 40.6057 24.4857 40.599 24.4704 40.5939L24.4289 40.5819Z" fill="#5B5B5B"/>
<path d="M24.8253 40.3147C24.8248 40.3025 24.8267 40.2903 24.8309 40.2789C24.8352 40.2675 24.8417 40.257 24.85 40.2481C24.8589 40.2396 24.8694 40.2331 24.8809 40.2288C24.8924 40.2246 24.9047 40.2227 24.9169 40.2234H25.2419C25.2472 40.2324 25.2515 40.242 25.2546 40.2521C25.2581 40.2642 25.2599 40.2767 25.2599 40.2894C25.2609 40.2988 25.26 40.3083 25.2572 40.3173C25.2545 40.3263 25.2499 40.3347 25.2439 40.342C25.2381 40.3474 25.2312 40.3516 25.2238 40.3543C25.2163 40.3571 25.2084 40.3583 25.2004 40.358H24.9931V40.4493H25.2145C25.2197 40.4581 25.224 40.4675 25.2272 40.4773C25.2307 40.4892 25.2325 40.5015 25.2325 40.5139C25.2343 40.5331 25.2286 40.5522 25.2165 40.5672C25.205 40.5776 25.1899 40.5831 25.1743 40.5826H24.9931V40.6858H25.2459C25.2583 40.7058 25.2645 40.729 25.264 40.7525C25.2649 40.7621 25.2639 40.7719 25.2611 40.7812C25.2582 40.7904 25.2535 40.799 25.2472 40.8065C25.2416 40.8119 25.2349 40.8161 25.2275 40.8189C25.2201 40.8216 25.2123 40.8228 25.2044 40.8224H24.9169C24.9047 40.8231 24.8924 40.8213 24.8809 40.817C24.8694 40.8128 24.8589 40.8062 24.85 40.7978C24.8416 40.7889 24.8351 40.7784 24.8309 40.767C24.8266 40.7555 24.8247 40.7433 24.8253 40.7312V40.3147Z" fill="#5B5B5B"/>
<path d="M25.502 40.2234L25.5368 40.218C25.5517 40.2171 25.5667 40.2171 25.5816 40.218C25.595 40.2169 25.6084 40.2169 25.6217 40.218C25.6322 40.2201 25.642 40.2244 25.6505 40.2307C25.6588 40.2367 25.6651 40.2451 25.6686 40.2547C25.673 40.268 25.675 40.282 25.6746 40.296V40.6592C25.6767 40.6837 25.6732 40.7084 25.6646 40.7314C25.6559 40.7545 25.6422 40.7753 25.6244 40.7924C25.582 40.824 25.5295 40.8394 25.4766 40.8357C25.4482 40.8368 25.4199 40.8315 25.3937 40.8204C25.3797 40.8144 25.3681 40.8039 25.361 40.7904C25.3535 40.7777 25.3498 40.7632 25.3503 40.7484C25.3501 40.7369 25.3519 40.7254 25.3556 40.7145C25.3587 40.7058 25.3632 40.6976 25.369 40.6905C25.3796 40.6929 25.3903 40.6947 25.4011 40.6958C25.4109 40.6965 25.4207 40.6965 25.4305 40.6958C25.4405 40.697 25.4506 40.6959 25.46 40.6927C25.4695 40.6895 25.4782 40.6842 25.4853 40.6771C25.4977 40.6609 25.5036 40.6408 25.502 40.6205V40.2234Z" fill="#5B5B5B"/>
<path d="M25.9498 40.2415C25.9659 40.2331 25.9829 40.2269 26.0006 40.2228C26.0224 40.2169 26.0449 40.2138 26.0675 40.2135C26.0973 40.2132 26.127 40.2182 26.1551 40.2282C26.166 40.2314 26.1761 40.2371 26.1844 40.2448C26.1928 40.2526 26.1992 40.2622 26.2032 40.2728C26.2153 40.3068 26.228 40.3461 26.242 40.3914L26.2835 40.5314C26.2968 40.5793 26.3102 40.6266 26.3236 40.6733L26.3584 40.7979C26.3483 40.8078 26.3362 40.8153 26.3229 40.8199C26.3047 40.8255 26.2858 40.8282 26.2668 40.8279C26.2533 40.8282 26.2398 40.8268 26.2266 40.8239C26.2171 40.8219 26.208 40.818 26.1999 40.8126C26.193 40.8069 26.1873 40.7998 26.1832 40.7919C26.1787 40.7824 26.175 40.7726 26.1718 40.7626L26.1544 40.6959H25.9759C25.9705 40.7153 25.9658 40.7359 25.9605 40.7566C25.9551 40.7772 25.9498 40.7979 25.9444 40.8179C25.9351 40.8213 25.9255 40.8239 25.9157 40.8259C25.9034 40.8285 25.8908 40.8296 25.8782 40.8292C25.8524 40.8312 25.8265 40.8254 25.804 40.8126C25.7963 40.8072 25.79 40.8 25.7858 40.7916C25.7816 40.7832 25.7796 40.7739 25.7799 40.7646C25.78 40.7553 25.7813 40.7461 25.784 40.7373C25.784 40.7279 25.7893 40.7173 25.7926 40.7046C25.796 40.6919 25.804 40.6653 25.812 40.638C25.8201 40.6107 25.8294 40.5833 25.8395 40.5527C25.8495 40.522 25.8595 40.4914 25.8709 40.4594C25.8823 40.4274 25.8923 40.3968 25.9023 40.3681L25.9291 40.2921C25.9391 40.2702 25.9451 40.2528 25.9498 40.2415ZM26.0681 40.3681C26.0588 40.3954 26.0488 40.4261 26.0367 40.4594C26.0247 40.4927 26.0153 40.526 26.006 40.562H26.1283C26.119 40.5267 26.1096 40.492 26.1002 40.4587C26.0909 40.4254 26.0815 40.3921 26.0742 40.3681H26.0681Z" fill="#5B5B5B"/>
<path d="M26.6375 40.5972V40.8145C26.6261 40.8172 26.6145 40.8192 26.6028 40.8205C26.5874 40.8205 26.572 40.8205 26.5566 40.8205C26.5433 40.8216 26.5299 40.8216 26.5165 40.8205C26.5061 40.8183 26.4963 40.814 26.4878 40.8078C26.4795 40.8019 26.4734 40.7935 26.4704 40.7838C26.466 40.7705 26.4639 40.7565 26.4643 40.7425V40.2241L26.4985 40.2188C26.5136 40.2178 26.5288 40.2178 26.5439 40.2188C26.5573 40.2176 26.5707 40.2176 26.584 40.2188C26.5944 40.2209 26.6042 40.2252 26.6128 40.2314C26.6211 40.2374 26.6274 40.2458 26.6309 40.2554C26.6347 40.2688 26.6365 40.2828 26.6362 40.2967V40.4526L26.8415 40.2148C26.8753 40.2119 26.9092 40.2208 26.9371 40.2401C26.9461 40.2471 26.9535 40.2561 26.9586 40.2664C26.9637 40.2767 26.9664 40.2879 26.9665 40.2994C26.9664 40.3162 26.9621 40.3327 26.9538 40.3474C26.9421 40.3661 26.9282 40.3833 26.9124 40.3987L26.7893 40.5213L26.8408 40.5779L26.8936 40.6352L26.9445 40.6892L26.9859 40.7332C26.9862 40.7463 26.9834 40.7593 26.9779 40.7712C26.9732 40.7821 26.9661 40.7919 26.9572 40.7998C26.9483 40.8075 26.9381 40.8136 26.9271 40.8178C26.9156 40.8212 26.9036 40.823 26.8916 40.8231C26.8677 40.8242 26.8441 40.8172 26.8248 40.8031C26.807 40.7889 26.7907 40.7731 26.776 40.7558L26.6375 40.5972Z" fill="#5B5B5B"/>
<path d="M27.4872 40.2068C27.5208 40.2061 27.5543 40.211 27.5862 40.2214C27.6132 40.2295 27.6383 40.2426 27.6604 40.2601C27.6799 40.2756 27.6956 40.2952 27.7064 40.3176C27.7171 40.34 27.7227 40.3645 27.7226 40.3893C27.7198 40.4295 27.7078 40.4684 27.6874 40.5031C27.6669 40.5378 27.6387 40.5673 27.6049 40.5892L27.4759 40.6919H27.7126C27.7169 40.7007 27.7207 40.7098 27.7239 40.7192C27.7275 40.7311 27.7293 40.7434 27.7293 40.7558C27.7302 40.7649 27.7293 40.7741 27.7265 40.7828C27.7238 40.7915 27.7193 40.7996 27.7132 40.8065C27.7078 40.8116 27.7014 40.8156 27.6944 40.8182C27.6874 40.8209 27.6799 40.8221 27.6724 40.8218H27.3307C27.3164 40.8122 27.3046 40.7991 27.2966 40.7838C27.2877 40.767 27.2833 40.7482 27.2839 40.7292C27.2834 40.7094 27.2883 40.6898 27.298 40.6725C27.3061 40.6587 27.3165 40.6463 27.3287 40.6359L27.4625 40.5199C27.4772 40.5079 27.4913 40.495 27.5046 40.4813C27.5144 40.4716 27.5235 40.4614 27.532 40.4506C27.5377 40.4427 27.5427 40.4342 27.5467 40.4253C27.5493 40.418 27.5507 40.4104 27.5507 40.4027C27.5509 40.394 27.5488 40.3854 27.5446 40.3778C27.5403 40.3702 27.5342 40.3638 27.5267 40.3594C27.5089 40.3483 27.4882 40.3427 27.4672 40.3434C27.4432 40.3432 27.4194 40.3475 27.3969 40.356C27.3788 40.3626 27.3615 40.3714 27.3455 40.382C27.3343 40.3741 27.3248 40.3642 27.3174 40.3527C27.3103 40.3401 27.3066 40.3258 27.3067 40.3114C27.3062 40.2954 27.3106 40.2796 27.3191 40.2661C27.3277 40.2526 27.3401 40.2419 27.3548 40.2354C27.396 40.2154 27.4414 40.2055 27.4872 40.2068Z" fill="#5B5B5B"/>
<path d="M28.3526 40.5199C28.3532 40.5652 28.3464 40.6102 28.3325 40.6532C28.321 40.6894 28.3023 40.7229 28.2777 40.7518C28.2549 40.7781 28.2263 40.7986 28.1941 40.8118C28.1607 40.8259 28.1247 40.8329 28.0884 40.8325C28.0517 40.833 28.0153 40.8259 27.9815 40.8118C27.9495 40.7983 27.9209 40.7778 27.8979 40.7518C27.8732 40.723 27.8548 40.6894 27.8437 40.6532C27.8304 40.61 27.8238 40.5651 27.8243 40.5199C27.8237 40.4748 27.8303 40.4298 27.8437 40.3867C27.8548 40.3506 27.8732 40.3173 27.8979 40.2887C27.9209 40.2626 27.9494 40.2418 27.9815 40.2281C28.0153 40.214 28.0517 40.2069 28.0884 40.2074C28.1247 40.2069 28.1607 40.214 28.1941 40.2281C28.2263 40.2415 28.255 40.2623 28.2777 40.2887C28.3023 40.3174 28.321 40.3507 28.3325 40.3867C28.3465 40.4297 28.3533 40.4747 28.3526 40.5199ZM28.1841 40.5199C28.1864 40.4741 28.1776 40.4284 28.1587 40.3867C28.1527 40.3727 28.1427 40.3608 28.13 40.3524C28.1173 40.344 28.1024 40.3394 28.0871 40.3394C28.072 40.3394 28.0573 40.344 28.0448 40.3524C28.0323 40.3608 28.0226 40.3727 28.0169 40.3867C27.9988 40.4287 27.9905 40.4743 27.9928 40.5199C27.9907 40.5656 27.9989 40.6111 28.0169 40.6532C28.0224 40.6672 28.0321 40.6793 28.0446 40.6877C28.0572 40.6962 28.072 40.7006 28.0871 40.7005C28.1024 40.7006 28.1174 40.6962 28.1301 40.6877C28.1429 40.6793 28.1528 40.6673 28.1587 40.6532C28.1765 40.6111 28.1843 40.5655 28.1814 40.5199H28.1841Z" fill="#5B5B5B"/>
<path d="M28.5533 40.3806L28.455 40.4106C28.4436 40.4034 28.4336 40.3941 28.4255 40.3833C28.4146 40.3695 28.4091 40.3522 28.4102 40.3346C28.4102 40.2953 28.4342 40.268 28.4824 40.252L28.5927 40.2147H28.6288C28.6411 40.2136 28.6535 40.2152 28.6652 40.2194C28.6768 40.2235 28.6874 40.2302 28.6961 40.2389C28.7048 40.2477 28.7116 40.2582 28.7158 40.2698C28.72 40.2814 28.7216 40.2937 28.7204 40.306V40.8144L28.6883 40.8197C28.6741 40.8211 28.6598 40.8211 28.6455 40.8197C28.6326 40.8208 28.6197 40.8208 28.6067 40.8197C28.5963 40.8181 28.5865 40.814 28.578 40.8078C28.5698 40.8016 28.5636 40.7933 28.5599 40.7838C28.5549 40.7713 28.5527 40.7579 28.5533 40.7445V40.3806Z" fill="#5B5B5B"/>
<path d="M29.371 40.5199C29.3716 40.5652 29.3648 40.6102 29.351 40.6532C29.3394 40.6894 29.3208 40.7229 29.2961 40.7518C29.2734 40.7781 29.2447 40.7986 29.2125 40.8118C29.1791 40.8259 29.1432 40.8329 29.1069 40.8325C29.0702 40.833 29.0338 40.8259 28.9999 40.8118C28.9679 40.7983 28.9393 40.7778 28.9163 40.7518C28.8916 40.723 28.8732 40.6894 28.8621 40.6532C28.8488 40.61 28.8423 40.5651 28.8428 40.5199C28.8421 40.4748 28.8487 40.4298 28.8621 40.3867C28.8732 40.3506 28.8917 40.3173 28.9163 40.2887C28.9393 40.2626 28.9679 40.2418 28.9999 40.2281C29.0338 40.214 29.0702 40.2069 29.1069 40.2074C29.1432 40.2069 29.1791 40.214 29.2125 40.2281C29.2448 40.2415 29.2734 40.2623 29.2961 40.2887C29.3208 40.3174 29.3394 40.3507 29.351 40.3867C29.365 40.4297 29.3717 40.4747 29.371 40.5199ZM29.2025 40.5199C29.2048 40.4741 29.1961 40.4284 29.1771 40.3867C29.1711 40.3727 29.1611 40.3608 29.1484 40.3524C29.1357 40.344 29.1208 40.3394 29.1055 40.3394C29.0905 40.3394 29.0757 40.344 29.0632 40.3524C29.0507 40.3608 29.041 40.3727 29.0353 40.3867C29.0172 40.4287 29.009 40.4743 29.0113 40.5199C29.0091 40.5656 29.0174 40.6111 29.0353 40.6532C29.0409 40.6672 29.0505 40.6793 29.0631 40.6877C29.0756 40.6962 29.0904 40.7006 29.1055 40.7005C29.1208 40.7006 29.1358 40.6962 29.1486 40.6877C29.1613 40.6793 29.1712 40.6673 29.1771 40.6532C29.1959 40.6114 29.2046 40.5657 29.2025 40.5199Z" fill="#5B5B5B"/>
<path d="M31.89 40.652H29.817C29.8058 40.652 29.7947 40.6498 29.7843 40.6455C29.7739 40.6413 29.7645 40.635 29.7565 40.627C29.7486 40.6191 29.7423 40.6097 29.738 40.5994C29.7337 40.589 29.7314 40.5779 29.7314 40.5667C29.7314 40.5555 29.7337 40.5444 29.738 40.5341C29.7423 40.5237 29.7486 40.5143 29.7565 40.5064C29.7645 40.4985 29.7739 40.4922 29.7843 40.4879C29.7947 40.4836 29.8058 40.4814 29.817 40.4814H31.89C31.9012 40.4814 31.9124 40.4836 31.9227 40.4879C31.9331 40.4922 31.9426 40.4985 31.9505 40.5064C31.9585 40.5143 31.9648 40.5237 31.9691 40.5341C31.9734 40.5444 31.9756 40.5555 31.9756 40.5667C31.9756 40.5779 31.9734 40.589 31.9691 40.5994C31.9648 40.6097 31.9585 40.6191 31.9505 40.627C31.9426 40.635 31.9331 40.6413 31.9227 40.6455C31.9124 40.6498 31.9012 40.652 31.89 40.652Z" fill="#A0A0A0"/>
<path d="M23.6664 40.652H21.7386C21.7274 40.652 21.7162 40.6498 21.7059 40.6455C21.6955 40.6413 21.686 40.635 21.6781 40.627C21.6701 40.6191 21.6638 40.6097 21.6595 40.5994C21.6552 40.589 21.653 40.5779 21.653 40.5667C21.653 40.5555 21.6552 40.5444 21.6595 40.5341C21.6638 40.5237 21.6701 40.5143 21.6781 40.5064C21.686 40.4985 21.6955 40.4922 21.7059 40.4879C21.7162 40.4836 21.7274 40.4814 21.7386 40.4814H23.6664C23.6777 40.4814 23.6888 40.4836 23.6992 40.4879C23.7096 40.4922 23.719 40.4985 23.727 40.5064C23.7349 40.5143 23.7412 40.5237 23.7455 40.5341C23.7498 40.5444 23.752 40.5555 23.752 40.5667C23.752 40.5779 23.7498 40.589 23.7455 40.5994C23.7412 40.6097 23.7349 40.6191 23.727 40.627C23.719 40.635 23.7096 40.6413 23.6992 40.6455C23.6888 40.6498 23.6777 40.652 23.6664 40.652Z" fill="#A0A0A0"/>
<path d="M31.89 40.6241H29.817C29.7943 40.6241 29.7726 40.6151 29.7565 40.5991C29.7405 40.5831 29.7314 40.5614 29.7314 40.5388C29.7314 40.5162 29.7405 40.4945 29.7565 40.4785C29.7726 40.4625 29.7943 40.4535 29.817 40.4535H31.89C31.9127 40.4535 31.9345 40.4625 31.9505 40.4785C31.9666 40.4945 31.9756 40.5162 31.9756 40.5388C31.9756 40.5614 31.9666 40.5831 31.9505 40.5991C31.9345 40.6151 31.9127 40.6241 31.89 40.6241Z" fill="#FA8700"/>
<path d="M23.6664 40.6241H21.7386C21.7159 40.6241 21.6941 40.6151 21.6781 40.5991C21.662 40.5831 21.653 40.5614 21.653 40.5388C21.653 40.5162 21.662 40.4945 21.6781 40.4785C21.6941 40.4625 21.7159 40.4535 21.7386 40.4535H23.6664C23.6891 40.4535 23.7109 40.4625 23.727 40.4785C23.743 40.4945 23.752 40.5162 23.752 40.5388C23.752 40.5614 23.743 40.5831 23.727 40.5991C23.7109 40.6151 23.6891 40.6241 23.6664 40.6241Z" fill="#FA8700"/>
<path d="M18.088 33.811C18.1623 33.811 18.2224 33.751 18.2224 33.677C18.2224 33.6031 18.1623 33.5431 18.088 33.5431C18.0138 33.5431 17.9536 33.6031 17.9536 33.677C17.9536 33.751 18.0138 33.811 18.088 33.811Z" fill="#FCFC5B"/>
<path d="M29.4631 26.499H24.1603V22.4235L26.8117 22.6629L29.4631 22.4235V26.499ZM25.6856 24.9824H27.9378V24.0851L26.8144 24.1842L25.6876 24.0824L25.6856 24.9824Z" fill="#FA8700"/>
<path d="M27.149 20.1134C26.0049 20.1134 25.1309 19.4695 24.9945 19.3032C24.951 19.2519 24.9298 19.1856 24.9355 19.1188C24.9413 19.052 24.9734 18.9902 25.0249 18.947C25.0764 18.9038 25.1431 18.8827 25.2103 18.8884C25.2774 18.894 25.3396 18.926 25.383 18.9773C25.4318 19.0212 27.0821 20.4041 28.8883 18.9473C28.9407 18.9059 29.0074 18.8867 29.074 18.8939C29.1405 18.9011 29.2015 18.9341 29.2437 18.9858C29.2859 19.0376 29.3059 19.1037 29.2993 19.17C29.2927 19.2363 29.2601 19.2973 29.2086 19.3398C28.4897 19.9178 27.7769 20.1134 27.149 20.1134Z" fill="#FA8700"/>
<path d="M17.3906 15.3314C16.9727 12.2377 18.2278 9.34154 20.833 7.3866C23.7752 5.17756 27.7459 4.64808 30.9443 6.03762C34.2209 7.46176 36.2764 10.6992 36.7298 15.1538L35.2119 15.3068C34.7057 10.3267 32.2797 8.27327 30.3304 7.4285C27.6704 6.27243 24.2213 6.74204 21.7484 8.59787C19.5953 10.2136 18.5568 12.5942 18.8992 15.1292L17.3906 15.3314Z" fill="#FA8700"/>
<path d="M17.0515 23.0926C16.8063 22.9639 16.59 22.7871 16.4155 22.5728C16.241 22.3586 16.1121 22.1113 16.0364 21.846C15.6024 20.3999 16.5473 18.574 16.7412 18.2222L18.0786 18.9539C17.654 19.7235 17.3183 20.8163 17.4982 21.415C17.5154 21.4878 17.5482 21.556 17.5944 21.615C17.6405 21.674 17.699 21.7224 17.7657 21.7569L17.0515 23.0926Z" fill="#FA8700"/>
<path d="M18.2065 19.5467C17.6313 19.546 17.0798 19.3183 16.6731 18.9136C16.2665 18.509 16.0378 17.9604 16.0372 17.3882V16.4297C16.0372 15.8574 16.2658 15.3085 16.6726 14.9039C17.0794 14.4992 17.6311 14.2719 18.2065 14.2719C18.7818 14.2719 19.3335 14.4992 19.7403 14.9039C20.1472 15.3085 20.3757 15.8574 20.3757 16.4297V17.3882C20.3752 17.9604 20.1465 18.509 19.7398 18.9136C19.3331 19.3183 18.7817 19.546 18.2065 19.5467ZM18.2065 15.7891C18.0357 15.7891 17.8719 15.8566 17.7511 15.9767C17.6304 16.0969 17.5625 16.2598 17.5625 16.4297V17.3882C17.5625 17.5581 17.6304 17.721 17.7511 17.8411C17.8719 17.9613 18.0357 18.0287 18.2065 18.0287C18.3773 18.0287 18.541 17.9613 18.6618 17.8411C18.7826 17.721 18.8504 17.5581 18.8504 17.3882V16.4297C18.8504 16.2598 18.7826 16.0969 18.6618 15.9767C18.541 15.8566 18.3773 15.7891 18.2065 15.7891Z" fill="#FA8700"/>
<path d="M18.7489 24.4763C19.7785 24.4763 20.6132 23.797 20.6132 22.959C20.6132 22.1211 19.7785 21.4418 18.7489 21.4418C17.7193 21.4418 16.8846 22.1211 16.8846 22.959C16.8846 23.797 17.7193 24.4763 18.7489 24.4763Z" fill="#FA8700"/>
<path d="M35.6586 19.5467C35.0834 19.546 34.532 19.3183 34.1253 18.9136C33.7186 18.509 33.4899 17.9604 33.4894 17.3882V16.4297C33.4894 15.8574 33.7179 15.3085 34.1247 14.9039C34.5315 14.4992 35.0833 14.2719 35.6586 14.2719C36.2339 14.2719 36.7857 14.4992 37.1925 14.9039C37.5993 15.3085 37.8278 15.8574 37.8278 16.4297V17.3882C37.8273 17.9604 37.5986 18.509 37.1919 18.9136C36.7853 19.3183 36.2338 19.546 35.6586 19.5467ZM35.6586 15.7891C35.4878 15.7891 35.324 15.8566 35.2033 15.9767C35.0825 16.0969 35.0147 16.2598 35.0147 16.4297V17.3882C35.0147 17.5581 35.0825 17.721 35.2033 17.8411C35.324 17.9613 35.4878 18.0287 35.6586 18.0287C35.8294 18.0287 35.9932 17.9613 36.114 17.8411C36.2347 17.721 36.3026 17.5581 36.3026 17.3882V16.4297C36.3026 16.2598 36.2347 16.0969 36.114 15.9767C35.9932 15.8566 35.8294 15.7891 35.6586 15.7891Z" fill="#FA8700"/>
<path d="M26.933 24.1017C22.4809 24.1017 18.8586 20.4432 18.8586 15.95C18.8586 11.4567 22.4809 7.79761 26.933 7.79761C31.3852 7.79761 35.0068 11.4561 35.0068 15.95C35.0068 20.4439 31.3852 24.1017 26.933 24.1017ZM26.933 9.31487C23.3221 9.31487 20.3839 12.2915 20.3839 15.95C20.3839 19.6084 23.3214 22.5877 26.933 22.5877C30.5446 22.5877 33.4815 19.6111 33.4815 15.9533C33.4815 12.2955 30.544 9.31487 26.933 9.31487Z" fill="#FA8700"/>
<path d="M26.9331 24.1017C22.4809 24.1017 18.8586 20.4432 18.8586 15.95C18.8505 13.8037 19.6926 11.7407 21.2024 10.2075L21.7474 9.65344L22.2924 10.2075C22.895 10.8256 23.6162 11.317 24.4133 11.6526C25.2104 11.9882 26.0672 12.1611 26.9328 12.1611C27.7983 12.1611 28.6551 11.9882 29.4522 11.6526C30.2493 11.317 30.9705 10.8256 31.5731 10.2075L32.1181 9.65344L32.6631 10.2075C34.1717 11.7413 35.0125 13.8042 35.0035 15.95C35.0069 20.4445 31.3852 24.1017 26.9331 24.1017ZM21.8042 11.8232C20.8789 13.0004 20.3786 14.453 20.3839 15.9473C20.3839 19.6058 23.3215 22.5817 26.9331 22.5817C30.5447 22.5817 33.4816 19.6051 33.4816 15.9473C33.4869 14.453 32.9866 13.0004 32.0613 11.8232C30.6239 13.0216 28.8082 13.6783 26.9328 13.6783C25.0573 13.6783 23.2416 13.0216 21.8042 11.8232Z" fill="#FA8700"/>
<path d="M30.8047 17.603H30.8001C30.7474 17.6024 30.6953 17.5915 30.6469 17.5709C30.5984 17.5502 30.5545 17.5203 30.5177 17.4828C30.4809 17.4453 30.4519 17.401 30.4323 17.3523C30.4127 17.3037 30.4029 17.2517 30.4035 17.1993C30.4102 16.6398 29.8211 16.4835 29.472 16.4789C29.123 16.4742 28.5298 16.6166 28.5232 17.176C28.5225 17.2284 28.5116 17.2802 28.4908 17.3283C28.4701 17.3765 28.44 17.4202 28.4023 17.4568C28.3646 17.4934 28.3201 17.5223 28.2712 17.5418C28.2222 17.5613 28.17 17.571 28.1173 17.5704C28.0646 17.5698 28.0125 17.5589 27.9641 17.5383C27.9156 17.5176 27.8718 17.4877 27.8349 17.4502C27.7981 17.4127 27.7691 17.3684 27.7495 17.3197C27.7299 17.2711 27.7201 17.2191 27.7207 17.1667C27.7328 16.1875 28.5981 15.6807 29.4553 15.6807H29.4821C30.348 15.6913 31.2207 16.2195 31.206 17.2106C31.2042 17.3153 31.1612 17.4151 31.0861 17.4885C31.011 17.5619 30.91 17.603 30.8047 17.603Z" fill="#FA8700"/>
<path d="M25.9378 17.603H25.9331C25.8804 17.6024 25.8284 17.5915 25.7799 17.5709C25.7315 17.5502 25.6876 17.5203 25.6508 17.4828C25.6139 17.4453 25.5849 17.401 25.5653 17.3523C25.5457 17.3037 25.5359 17.2517 25.5366 17.1993C25.5433 16.6398 24.9541 16.4835 24.6051 16.4789H24.5897C24.2386 16.4789 23.6629 16.6245 23.6535 17.176C23.6523 17.281 23.6095 17.3813 23.5344 17.4552C23.4593 17.529 23.3579 17.5704 23.2523 17.5704H23.247C23.1407 17.569 23.0393 17.5257 22.9651 17.45C22.8908 17.3743 22.8499 17.2724 22.8511 17.1667C22.8631 16.1875 23.7284 15.6807 24.5857 15.6807H24.6118C25.4777 15.6913 26.3504 16.2195 26.3363 17.2106C26.3346 17.3148 26.2919 17.4142 26.2174 17.4876C26.1429 17.5609 26.0426 17.6023 25.9378 17.603Z" fill="#FA8700"/>
<path d="M35.1297 28.897H18.2553L18.496 27.9518C18.7067 27.1246 19.1889 26.3911 19.8661 25.8675C20.5434 25.3438 21.3769 25.06 22.2347 25.0609H31.1504C32.0081 25.06 32.8417 25.3438 33.5189 25.8675C34.1962 26.3911 34.6783 27.1246 34.889 27.9518L35.1297 28.897ZM20.4673 27.377H32.9157C32.6963 27.1257 32.4251 26.9243 32.1205 26.7866C31.8158 26.6489 31.485 26.578 31.1504 26.5788H22.2327C21.8981 26.578 21.5672 26.6489 21.2626 26.7866C20.958 26.9243 20.6867 27.1257 20.4673 27.377Z" fill="#FA8700"/>
<defs>
<pattern id="pattern0" patternContentUnits="objectBoundingBox" width="1" height="1">
<use xlink:href="#image0_403_357" transform="scale(0.000387147 0.000762777)"/>
</pattern>
<pattern id="pattern1" patternContentUnits="objectBoundingBox" width="1" height="1">
<use xlink:href="#image1_403_357" transform="scale(0.00176991 0.001)"/>
</pattern>
</defs>
</svg>
