<svg width="54" height="54" viewBox="0 0 54 54" fill="none" xmlns="http://www.w3.org/2000/svg">
<circle cx="27" cy="27" r="27" fill="white"/>
<path d="M35.2036 22.2559C33.154 22.4884 31.7623 25.7567 31.9356 26.211C32.3025 26.5833 32.261 25.5287 33.6922 24.791C35.33 23.9424 38.6026 25.7567 38.6026 25.7567C37.0943 27.0827 34.3199 27.2044 32.0559 26.9611C29.7904 26.7162 29.9138 21.8939 29.7904 18.156C29.6624 14.4165 28.9067 14.7784 28.9067 14.7784C28.9067 14.7784 29.0332 13.0858 27.3984 20.8081C25.759 28.5259 16.9453 30.4557 16.9453 30.4557C21.8588 31.1826 25.3827 28.8893 26.6381 26.479C27.8996 24.064 28.7772 18.9969 28.7772 18.9969C28.7772 26.2387 29.4095 28.0453 31.3002 28.8893C33.1894 29.7379 36.8414 28.5305 39.4863 27.5633C41.1689 26.9503 43.1383 27.2029 43.1383 27.2029L44.6481 24.9111C44.6481 24.9111 42.5044 25.0282 40.9977 24.429C39.4863 23.8268 37.3457 22.0172 35.2036 22.2559Z" fill="#FA8700"/>
<path d="M19.0843 26.7208C19.5902 25.5164 18.7065 18.9969 18.7065 17.3074C18.7065 15.6224 19.3342 14.6568 19.3342 14.6568C18.4551 14.1732 17.829 12 17.829 12C17.573 12.6037 16.6939 13.9298 16.6939 13.9298C16.6939 13.9298 19.2123 25.8799 17.573 27.3215C15.9382 28.7677 12.6625 29.0141 10.7764 27.8112C8.88564 26.6022 10.8998 22.7395 10.8998 22.7395C9.76625 24.0656 8.88564 25.6365 9.0121 27.323C9.13702 29.0156 10.397 30.7006 13.4198 30.8238C16.4379 30.9424 18.5785 27.9267 19.0843 26.7208Z" fill="#FA8700"/>
<path d="M22.7084 21.0841C24.0132 21.9935 24.8983 24.5934 24.9946 24.8858C25.0866 25.1652 25.1265 24.8858 25.1265 24.8858C25.8822 18.1292 19.5902 16.2262 19.5902 16.2262C19.5902 16.2262 19.4622 16.5866 19.5902 18.3947C19.7151 20.209 21.3189 20.1185 22.7084 21.0841Z" fill="#FA8700"/>
<path d="M16.8945 42V41.84C17.0651 41.8293 17.1931 41.808 17.2785 41.776C17.3638 41.744 17.4198 41.68 17.4465 41.584C17.4785 41.488 17.4945 41.344 17.4945 41.152V37.184C17.4945 36.9867 17.4785 36.8427 17.4465 36.752C17.4198 36.656 17.3611 36.592 17.2705 36.56C17.1851 36.5227 17.0598 36.5013 16.8945 36.496V36.336C17.0385 36.3413 17.2251 36.3467 17.4545 36.352C17.6891 36.3573 17.9211 36.36 18.1505 36.36C18.3958 36.36 18.6251 36.3573 18.8385 36.352C19.0571 36.3467 19.2331 36.3413 19.3665 36.336V36.496C19.1958 36.5013 19.0651 36.5227 18.9745 36.56C18.8891 36.592 18.8331 36.656 18.8065 36.752C18.7798 36.8427 18.7665 36.9867 18.7665 37.184V41.152C18.7665 41.344 18.7798 41.488 18.8065 41.584C18.8385 41.68 18.8971 41.744 18.9825 41.776C19.0678 41.808 19.1958 41.8293 19.3665 41.84V42C19.2331 41.9893 19.0571 41.984 18.8385 41.984C18.6251 41.9787 18.3958 41.976 18.1505 41.976C17.9211 41.976 17.6891 41.9787 17.4545 41.984C17.2251 41.984 17.0385 41.9893 16.8945 42ZM13.5025 42V41.84C13.6731 41.8293 13.8011 41.808 13.8865 41.776C13.9718 41.744 14.0278 41.68 14.0545 41.584C14.0865 41.488 14.1025 41.344 14.1025 41.152V37.184C14.1025 36.9867 14.0865 36.8427 14.0545 36.752C14.0278 36.656 13.9691 36.592 13.8785 36.56C13.7931 36.5227 13.6678 36.5013 13.5025 36.496V36.336C13.6411 36.3413 13.8198 36.3467 14.0385 36.352C14.2625 36.3573 14.5051 36.36 14.7665 36.36C14.9905 36.36 15.2118 36.3573 15.4305 36.352C15.6491 36.3467 15.8305 36.3413 15.9745 36.336V36.496C15.8038 36.5013 15.6731 36.5227 15.5825 36.56C15.4971 36.592 15.4411 36.656 15.4145 36.752C15.3878 36.8427 15.3745 36.9867 15.3745 37.184V41.152C15.3745 41.344 15.3878 41.488 15.4145 41.584C15.4465 41.68 15.5051 41.744 15.5905 41.776C15.6758 41.808 15.8038 41.8293 15.9745 41.84V42C15.8305 41.9893 15.6491 41.984 15.4305 41.984C15.2118 41.9787 14.9905 41.976 14.7665 41.976C14.5051 41.976 14.2625 41.9787 14.0385 41.984C13.8198 41.984 13.6411 41.9893 13.5025 42ZM14.8545 39.232V39.072H18.0145V39.232H14.8545ZM22.5729 36.32L24.5169 41.328C24.5916 41.52 24.6742 41.6533 24.7649 41.728C24.8609 41.7973 24.9462 41.8347 25.0209 41.84V42C24.8609 41.9893 24.6716 41.984 24.4529 41.984C24.2396 41.9787 24.0236 41.976 23.8049 41.976C23.5596 41.976 23.3276 41.9787 23.1089 41.984C22.8902 41.984 22.7169 41.9893 22.5889 42V41.84C22.8609 41.8293 23.0316 41.784 23.1009 41.704C23.1756 41.6187 23.1596 41.44 23.0529 41.168L21.6929 37.448L21.8369 37.24L20.6209 40.408C20.5036 40.7013 20.4316 40.9413 20.4049 41.128C20.3836 41.3147 20.3969 41.4587 20.4449 41.56C20.4982 41.6613 20.5809 41.7333 20.6929 41.776C20.8102 41.8133 20.9489 41.8347 21.1089 41.84V42C20.9329 41.9893 20.7649 41.984 20.6049 41.984C20.4449 41.9787 20.2822 41.976 20.1169 41.976C19.9996 41.976 19.8876 41.9787 19.7809 41.984C19.6796 41.984 19.5889 41.9893 19.5089 42V41.84C19.6209 41.8187 19.7356 41.7467 19.8529 41.624C19.9702 41.5013 20.0849 41.2933 20.1969 41L22.0209 36.32C22.1062 36.3253 22.1969 36.328 22.2929 36.328C22.3942 36.328 22.4876 36.3253 22.5729 36.32ZM23.1329 39.696V39.856H20.7489L20.8289 39.696H23.1329ZM27.6006 36.336V36.496C27.4193 36.5013 27.2806 36.5227 27.1846 36.56C27.0939 36.592 27.0326 36.656 27.0006 36.752C26.9686 36.8427 26.9526 36.9867 26.9526 37.184V41.248C26.9526 41.4133 26.9633 41.536 26.9846 41.616C27.0113 41.696 27.0593 41.7493 27.1286 41.776C27.2033 41.8027 27.3126 41.816 27.4566 41.816H27.8486C28.0299 41.816 28.2006 41.7733 28.3606 41.688C28.5206 41.6027 28.6646 41.4827 28.7926 41.328C28.9206 41.168 29.0273 40.9787 29.1126 40.76C29.1979 40.5413 29.2619 40.2987 29.3046 40.032H29.4886C29.4726 40.2133 29.4646 40.448 29.4646 40.736C29.4646 40.8587 29.4673 41.0373 29.4726 41.272C29.4779 41.5067 29.4939 41.7493 29.5206 42C29.2486 41.9893 28.9419 41.984 28.6006 41.984C28.2593 41.9787 27.9553 41.976 27.6886 41.976C27.5553 41.976 27.3846 41.976 27.1766 41.976C26.9686 41.976 26.7446 41.9787 26.5046 41.984C26.2646 41.984 26.0219 41.9867 25.7766 41.992C25.5313 41.992 25.2993 41.9947 25.0806 42V41.84C25.2513 41.8293 25.3793 41.808 25.4646 41.776C25.5499 41.744 25.6059 41.68 25.6326 41.584C25.6646 41.488 25.6806 41.344 25.6806 41.152V37.184C25.6806 36.9867 25.6646 36.8427 25.6326 36.752C25.6059 36.656 25.5473 36.592 25.4566 36.56C25.3713 36.5227 25.2459 36.5013 25.0806 36.496V36.336C25.2139 36.3413 25.3926 36.3467 25.6166 36.352C25.8459 36.3573 26.0886 36.36 26.3446 36.36C26.5793 36.36 26.8086 36.3573 27.0326 36.352C27.2619 36.3467 27.4513 36.3413 27.6006 36.336ZM32.6432 36.32L34.5872 41.328C34.6619 41.52 34.7446 41.6533 34.8352 41.728C34.9312 41.7973 35.0166 41.8347 35.0912 41.84V42C34.9312 41.9893 34.7419 41.984 34.5232 41.984C34.3099 41.9787 34.0939 41.976 33.8752 41.976C33.6299 41.976 33.3979 41.9787 33.1792 41.984C32.9606 41.984 32.7872 41.9893 32.6592 42V41.84C32.9312 41.8293 33.1019 41.784 33.1712 41.704C33.2459 41.6187 33.2299 41.44 33.1232 41.168L31.7632 37.448L31.9072 37.24L30.6912 40.408C30.5739 40.7013 30.5019 40.9413 30.4752 41.128C30.4539 41.3147 30.4672 41.4587 30.5152 41.56C30.5686 41.6613 30.6512 41.7333 30.7632 41.776C30.8806 41.8133 31.0192 41.8347 31.1792 41.84V42C31.0032 41.9893 30.8352 41.984 30.6752 41.984C30.5152 41.9787 30.3526 41.976 30.1872 41.976C30.0699 41.976 29.9579 41.9787 29.8512 41.984C29.7499 41.984 29.6592 41.9893 29.5792 42V41.84C29.6912 41.8187 29.8059 41.7467 29.9232 41.624C30.0406 41.5013 30.1552 41.2933 30.2672 41L32.0912 36.32C32.1766 36.3253 32.2672 36.328 32.3632 36.328C32.4646 36.328 32.5579 36.3253 32.6432 36.32ZM33.2032 39.696V39.856H30.8192L30.8992 39.696H33.2032ZM37.6709 36.336V36.496C37.4896 36.5013 37.3509 36.5227 37.2549 36.56C37.1642 36.592 37.1029 36.656 37.0709 36.752C37.0389 36.8427 37.0229 36.9867 37.0229 37.184V41.248C37.0229 41.4133 37.0336 41.536 37.0549 41.616C37.0816 41.696 37.1296 41.7493 37.1989 41.776C37.2736 41.8027 37.3829 41.816 37.5269 41.816H37.9189C38.1002 41.816 38.2709 41.7733 38.4309 41.688C38.5909 41.6027 38.7349 41.4827 38.8629 41.328C38.9909 41.168 39.0976 40.9787 39.1829 40.76C39.2682 40.5413 39.3322 40.2987 39.3749 40.032H39.5589C39.5429 40.2133 39.5349 40.448 39.5349 40.736C39.5349 40.8587 39.5376 41.0373 39.5429 41.272C39.5482 41.5067 39.5642 41.7493 39.5909 42C39.3189 41.9893 39.0122 41.984 38.6709 41.984C38.3296 41.9787 38.0256 41.976 37.7589 41.976C37.6256 41.976 37.4549 41.976 37.2469 41.976C37.0389 41.976 36.8149 41.9787 36.5749 41.984C36.3349 41.984 36.0922 41.9867 35.8469 41.992C35.6016 41.992 35.3696 41.9947 35.1509 42V41.84C35.3216 41.8293 35.4496 41.808 35.5349 41.776C35.6202 41.744 35.6762 41.68 35.7029 41.584C35.7349 41.488 35.7509 41.344 35.7509 41.152V37.184C35.7509 36.9867 35.7349 36.8427 35.7029 36.752C35.6762 36.656 35.6176 36.592 35.5269 36.56C35.4416 36.5227 35.3162 36.5013 35.1509 36.496V36.336C35.2842 36.3413 35.4629 36.3467 35.6869 36.352C35.9162 36.3573 36.1589 36.36 36.4149 36.36C36.6496 36.36 36.8789 36.3573 37.1029 36.352C37.3322 36.3467 37.5216 36.3413 37.6709 36.336Z" fill="#FA8700"/>
</svg>
