<svg width="54" height="54" viewBox="0 0 54 54" fill="none" xmlns="http://www.w3.org/2000/svg">
<circle cx="27" cy="27" r="27" fill="white"/>
<path d="M20.5 19.7059H13.5C13.2238 19.7059 13 19.9166 13 20.1765V24.8824C13 25.1423 13.2239 25.353 13.5 25.353L17 25.8236L20.4999 25.353C20.7761 25.353 20.9999 25.1423 20.9999 24.8824V20.1766C21 19.9166 20.7761 19.7059 20.5 19.7059Z" fill="#FFCD44"/>

<path d="M14 24.8824V20.1765C14 19.9166 14.2238 19.7059 14.4999 19.7059H13.5C13.2238 19.7059 13 19.9166 13 20.1765V24.8824C13 25.1423 13.2239 25.3529 13.5 25.3529H14.5C14.2238 25.3529 14 25.1423 14 24.8824Z" fill="#FFE23C"/>

<path d="M21.5 17.8235H12.5C12.2239 17.8235 12 18.0342 12 18.2941V20.1764C12 20.4363 12.2239 20.647 12.5 20.647H21.5C21.7761 20.647 22 20.4362 22 20.1764V18.2941C22 18.0342 21.7761 17.8235 21.5 17.8235Z" fill="#FFBB00"/>

<path d="M13 20.1764V18.2941C13 18.0341 13.2239 17.8235 13.5 17.8235H12.5C12.2239 17.8235 12 18.0342 12 18.2941V20.1764C12 20.4363 12.2239 20.647 12.5 20.647H13.5C13.2238 20.647 13 20.4363 13 20.1764Z" fill="#FFCD44"/>

<path d="M21.4999 29.1178C21.2906 29.1178 21.0955 28.9931 21.0256 28.7959L20.1396 26.2942H12.5C12.2239 26.2942 12 26.0834 12 25.8236C12 25.5637 12.2239 25.353 12.5 25.353H20.5C20.7152 25.353 20.9063 25.4827 20.9743 25.6748L21.9744 28.4983C22.0616 28.7448 21.9201 29.0114 21.6581 29.0936C21.6056 29.11 21.5523 29.1178 21.4999 29.1178Z" fill="#838383"/>

<path d="M20.5606 15.4135C20.2773 15.1469 19.9006 15 19.4999 15C19.0993 15 18.7226 15.1469 18.4393 15.4135C18.4393 15.4135 18.4393 15.4135 18.4393 15.4135C18.2032 15.6356 17.7967 16.0574 17.4978 16.3714C17.476 16.1305 17.2616 15.9412 17 15.9412C16.7383 15.9412 16.5239 16.1305 16.5021 16.3715C16.2033 16.0575 15.7967 15.6357 15.5607 15.4135C15.5606 15.4135 15.5607 15.4135 15.5606 15.4135C15.2773 15.1469 14.9005 15 14.4999 15C14.0993 15 13.7226 15.1469 13.4393 15.4135C13.1559 15.6801 12.9999 16.0347 12.9999 16.4118C12.9999 16.7889 13.1559 17.1434 13.4393 17.41C13.6091 17.5698 13.8848 17.7115 14.6638 17.7115C14.8543 17.7115 15.075 17.703 15.3316 17.6843C15.842 17.6469 16.3143 17.5813 16.4999 17.5539V25.8235C16.4999 26.0834 16.7238 26.294 16.9999 26.294C17.276 26.294 17.4999 26.0833 17.4999 25.8235V17.5539C17.6855 17.5814 18.1578 17.6469 18.6682 17.6843C18.9248 17.703 19.1455 17.7115 19.336 17.7115C20.1149 17.7115 20.3907 17.5697 20.5605 17.41C20.8439 17.1434 20.9999 16.7889 20.9999 16.4118C20.9999 16.0347 20.8439 15.6801 20.5606 15.4135ZM14.1237 16.7218C13.8454 16.4237 14.0794 15.9411 14.4999 15.9411C14.6334 15.9411 14.759 15.9901 14.8534 16.079H14.8534C15.0115 16.2277 15.2605 16.482 15.4965 16.7271C14.853 16.7851 14.3031 16.7874 14.1237 16.7218ZM19.8761 16.7218C19.6971 16.7871 19.1471 16.7848 18.5034 16.727C18.7393 16.4819 18.9883 16.2277 19.1464 16.0791H19.1464C19.3336 15.9028 19.6446 15.8967 19.8391 16.066C20.0353 16.2368 20.0528 16.5325 19.8761 16.7218Z" fill="#FF4B4B"/>
<path d="M22.0001 39C24.4853 39 26.5001 37.1038 26.5001 34.7647C26.5001 32.4256 24.4853 30.5294 22.0001 30.5294C19.5148 30.5294 17.5001 32.4256 17.5001 34.7647C17.5001 37.1038 19.5148 39 22.0001 39Z" fill="#717171"/>
<path d="M22 37.1177C23.3807 37.1177 24.5 36.0642 24.5 34.7647C24.5 33.4652 23.3807 32.4117 22 32.4117C20.6193 32.4117 19.5 33.4652 19.5 34.7647C19.5 36.0642 20.6193 37.1177 22 37.1177Z" fill="#404040"/>
<path d="M22 36.1766C22.8284 36.1766 23.5 35.5445 23.5 34.7648C23.5 33.9851 22.8284 33.353 22 33.353C21.1716 33.353 20.5 33.9851 20.5 34.7648C20.5 35.5445 21.1716 36.1766 22 36.1766Z" fill="#D7D8D9"/>
<path d="M35.5001 39C37.9853 39 40.0001 37.1038 40.0001 34.7647C40.0001 32.4256 37.9853 30.5294 35.5001 30.5294C33.0148 30.5294 31.0001 32.4256 31.0001 34.7647C31.0001 37.1038 33.0148 39 35.5001 39Z" fill="#717171"/>
<path d="M35.5 37.1177C36.8807 37.1177 38 36.0642 38 34.7647C38 33.4652 36.8807 32.4117 35.5 32.4117C34.1193 32.4117 33 33.4652 33 34.7647C33 36.0642 34.1193 37.1177 35.5 37.1177Z" fill="#404040"/>
<path d="M35.5 36.1766C36.3284 36.1766 37 35.5445 37 34.7648C37 33.9851 36.3284 33.353 35.5 33.353C34.6716 33.353 34 33.9851 34 34.7648C34 35.5445 34.6716 36.1766 35.5 36.1766Z" fill="#D7D8D9"/>
<path d="M33.1879 21.5574L30.9044 20.5984C30.6522 20.4924 30.5391 20.2139 30.6517 19.9764C30.7643 19.7388 31.0601 19.6321 31.3123 19.7381L33.5958 20.6971C33.848 20.803 33.9611 21.0815 33.8485 21.319C33.7359 21.5566 33.4401 21.6633 33.1879 21.5574Z" fill="#404040"/>
<path d="M40.5886 20.5923L39.2542 20.9483C39.1068 20.9876 38.9535 20.9069 38.9116 20.768C38.8698 20.6292 38.9554 20.4847 39.1028 20.4454L40.4372 20.0895C40.5846 20.0502 40.7379 20.1309 40.7798 20.2697C40.8216 20.4086 40.736 20.553 40.5886 20.5923Z" fill="#717171"/>
<path d="M40.7674 22.1348L39.7091 22.1746C39.5922 22.179 39.4936 22.0933 39.4889 21.9831C39.4843 21.873 39.5752 21.7801 39.6921 21.7757L40.7504 21.7359C40.8673 21.7315 40.9659 21.8173 40.9706 21.9274C40.9753 22.0376 40.8843 22.1304 40.7674 22.1348Z" fill="#717171"/>
<path d="M40.7072 23.7933L39.4379 23.5173C39.2977 23.4868 39.2046 23.3783 39.23 23.2748C39.2554 23.1714 39.3897 23.1122 39.5298 23.1427L40.7991 23.4187C40.9393 23.4491 41.0324 23.5577 41.007 23.6612C40.9816 23.7646 40.8474 23.8238 40.7072 23.7933Z" fill="#717171"/>
<path d="M37 23.9411C38.1046 23.9411 39 23.0983 39 22.0587C39 21.0191 38.1046 20.1764 37 20.1764C35.8955 20.1764 35.0001 21.0191 35.0001 22.0587C35.0001 23.0983 35.8955 23.9411 37 23.9411Z" fill="#FFD900"/>
<path d="M37 20.1764H35C34.7239 20.1764 34.5001 20.3871 34.5001 20.647V23.4705C34.5001 23.7304 34.7239 23.9411 35 23.9411H37C37.2762 23.9411 37.5 23.7303 37.5 23.4705V20.647C37.5 20.3871 37.2761 20.1764 37 20.1764Z" fill="#E2E2E2"/>
<path d="M27.5 25.3529H24.5C23.1215 25.3529 21.9999 26.4084 21.9999 27.7059C21.9999 27.9658 22.2238 28.1764 22.4999 28.1764L25.9999 28.647L28.4999 28.1764C28.7761 28.1764 28.9999 27.9657 28.9999 27.7059V26.7647C29 25.9863 28.3271 25.3529 27.5 25.3529Z" fill="#717171"/>
<path d="M37.4868 28.5392L35.4868 20.5391C35.4336 20.3266 35.2321 20.1764 35.0001 20.1764H33.5001C33.2239 20.1764 33.0001 20.3871 33.0001 20.647V31.9411H29.0001V28.647C29.0001 28.3871 28.7762 28.1764 28.5001 28.1764H20.5001C18.0187 28.1764 16.0001 30.0763 16.0001 32.4117V34.294C16.0001 34.5539 16.2239 34.7646 16.5 34.7646H37.0001C37.2762 34.7646 37.5001 34.5539 37.5001 34.294V28.647C37.5001 28.6107 37.4956 28.5746 37.4868 28.5392Z" fill="#FA8700"/>
<path d="M34.0001 20.647C34.0001 20.3871 34.224 20.1764 34.5001 20.1764H33.5C33.2239 20.1764 33.0001 20.3871 33.0001 20.647V31.9411H34.0001V20.647Z" fill="#FFB039"/>
<path d="M17 34.2941V32.4118C17 30.0764 19.0187 28.1765 21.5 28.1765H20.5C18.0187 28.1765 16 30.0764 16 32.4118V34.2941C16 34.554 16.2239 34.7647 16.5 34.7647H17.5C17.2239 34.7647 17 34.554 17 34.2941Z" fill="#FFB039"/>
<path d="M23 27.7059C23 26.4085 24.1214 25.3529 25.5 25.3529H24.5C23.1215 25.3529 21.9999 26.4084 21.9999 27.7059C21.9999 27.9658 22.2238 28.1764 22.4999 28.1764H23.4999C23.2238 28.1764 23 27.9658 23 27.7059Z" fill="#404040"/>
<path d="M23.8282 30.5294H21.3282C21.052 30.5294 20.8282 30.3187 20.8282 30.0588C20.8282 29.7989 21.0521 29.5883 21.3282 29.5883H23.8282C24.1043 29.5883 24.3282 29.799 24.3282 30.0588C24.3282 30.3187 24.1043 30.5294 23.8282 30.5294Z" fill="#FFD900"/>
<path d="M25.0001 31.9411H22.5C22.2239 31.9411 22.0001 31.7304 22.0001 31.4706C22.0001 31.2107 22.2239 31 22.5 31H25.0001C25.2762 31 25.5 31.2107 25.5 31.4706C25.5 31.7304 25.2762 31.9411 25.0001 31.9411Z" fill="#FFD900"/>
<path d="M23.8282 33.3529H21.3282C21.052 33.3529 20.8282 33.1422 20.8282 32.8823C20.8282 32.6225 21.0521 32.4117 21.3282 32.4117H23.8282C24.1043 32.4117 24.3282 32.6225 24.3282 32.8823C24.3282 33.1422 24.1043 33.3529 23.8282 33.3529Z" fill="#FFD900"/>
<path d="M35.5 28.1765C31.9159 28.1765 29 30.9208 29 34.2941C29 34.554 29.2239 34.7647 29.5 34.7647H41.5C41.7761 34.7647 42 34.554 42 34.2941C42 30.9209 39.0841 28.1765 35.5 28.1765Z" fill="#FA8700"/>
<path d="M30 34.2941C30 31.0792 32.6486 28.4355 36 28.1944C35.8349 28.1826 35.6681 28.1765 35.5 28.1765C31.9159 28.1765 29 30.9208 29 34.2941C29 34.554 29.2239 34.7647 29.5 34.7647H30.5C30.2238 34.7647 30 34.554 30 34.2941Z" fill="#FFB039"/>
<path d="M37.0235 31.4963C37.5758 31.4963 38.0235 31.0749 38.0235 30.5551C38.0235 30.0353 37.5758 29.6139 37.0235 29.6139C36.4712 29.6139 36.0234 30.0353 36.0234 30.5551C36.0234 31.0749 36.4712 31.4963 37.0235 31.4963Z" fill="#FFD900"/>
<path d="M38.5235 32.4375C38.7996 32.4375 39.0235 32.2268 39.0235 31.9669C39.0235 31.707 38.7996 31.4963 38.5235 31.4963C38.2473 31.4963 38.0235 31.707 38.0235 31.9669C38.0235 32.2268 38.2473 32.4375 38.5235 32.4375Z" fill="#FFD900"/>
</svg>
